%TF.GenerationSoftware,KiCad,Pcbnew,7.0.1*%
%TF.CreationDate,2024-04-08T23:42:12+02:00*%
%TF.ProjectId,6N6P_hybrid,364e3650-5f68-4796-9272-69642e6b6963,rev?*%
%TF.SameCoordinates,Original*%
%TF.FileFunction,Soldermask,Top*%
%TF.FilePolarity,Negative*%
%FSLAX46Y46*%
G04 Gerber Fmt 4.6, Leading zero omitted, Abs format (unit mm)*
G04 Created by KiCad (PCBNEW 7.0.1) date 2024-04-08 23:42:12*
%MOMM*%
%LPD*%
G01*
G04 APERTURE LIST*
G04 Aperture macros list*
%AMRoundRect*
0 Rectangle with rounded corners*
0 $1 Rounding radius*
0 $2 $3 $4 $5 $6 $7 $8 $9 X,Y pos of 4 corners*
0 Add a 4 corners polygon primitive as box body*
4,1,4,$2,$3,$4,$5,$6,$7,$8,$9,$2,$3,0*
0 Add four circle primitives for the rounded corners*
1,1,$1+$1,$2,$3*
1,1,$1+$1,$4,$5*
1,1,$1+$1,$6,$7*
1,1,$1+$1,$8,$9*
0 Add four rect primitives between the rounded corners*
20,1,$1+$1,$2,$3,$4,$5,0*
20,1,$1+$1,$4,$5,$6,$7,0*
20,1,$1+$1,$6,$7,$8,$9,0*
20,1,$1+$1,$8,$9,$2,$3,0*%
G04 Aperture macros list end*
%ADD10C,2.800000*%
%ADD11O,2.800000X2.800000*%
%ADD12C,2.000000*%
%ADD13R,1.300000X1.050000*%
%ADD14O,1.300000X1.050000*%
%ADD15R,1.600000X1.600000*%
%ADD16O,1.600000X1.600000*%
%ADD17RoundRect,0.675000X0.675000X0.675000X-0.675000X0.675000X-0.675000X-0.675000X0.675000X-0.675000X0*%
%ADD18C,2.700000*%
%ADD19RoundRect,0.249999X-1.550001X0.790001X-1.550001X-0.790001X1.550001X-0.790001X1.550001X0.790001X0*%
%ADD20O,3.600000X2.080000*%
%ADD21C,4.200000*%
%ADD22C,4.000000*%
%ADD23R,2.000000X2.000000*%
%ADD24C,2.200000*%
%ADD25R,2.400000X2.400000*%
%ADD26C,2.400000*%
%ADD27O,2.400000X2.400000*%
%ADD28RoundRect,0.249999X0.790001X1.550001X-0.790001X1.550001X-0.790001X-1.550001X0.790001X-1.550001X0*%
%ADD29O,2.080000X3.600000*%
%ADD30C,1.400000*%
%ADD31O,1.400000X1.400000*%
%ADD32R,4.000000X4.000000*%
%ADD33RoundRect,0.249999X-0.790001X-1.550001X0.790001X-1.550001X0.790001X1.550001X-0.790001X1.550001X0*%
G04 APERTURE END LIST*
D10*
%TO.C,R21*%
X36195000Y-43815000D03*
D11*
X36195000Y-64135000D03*
%TD*%
D10*
%TO.C,R2*%
X140970000Y-42545000D03*
D11*
X161290000Y-42545000D03*
%TD*%
D12*
%TO.C,C2*%
X119253000Y-63500000D03*
X119253000Y-71000000D03*
%TD*%
D13*
%TO.C,Q1*%
X49530000Y-34255000D03*
D14*
X49530000Y-36795000D03*
X49530000Y-39335000D03*
%TD*%
D15*
%TO.C,U1*%
X140970000Y-59055000D03*
D16*
X143510000Y-59055000D03*
X146050000Y-59055000D03*
X148590000Y-59055000D03*
X148590000Y-51435000D03*
X146050000Y-51435000D03*
X143510000Y-51435000D03*
X140970000Y-51435000D03*
%TD*%
D10*
%TO.C,J8*%
X35490000Y-26035000D03*
%TD*%
D17*
%TO.C,F2*%
X68072000Y-111506000D03*
X61312000Y-111506000D03*
D18*
X51722000Y-111506000D03*
X44962000Y-111506000D03*
%TD*%
D19*
%TO.C,J6*%
X28532500Y-35560000D03*
D20*
X28532500Y-40640000D03*
X28532500Y-45720000D03*
%TD*%
D21*
%TO.C,J13*%
X31750000Y-122453400D03*
%TD*%
D22*
%TO.C,J15*%
X101370000Y-113030000D03*
%TD*%
D23*
%TO.C,D3*%
X38735000Y-132160000D03*
D12*
X38735000Y-137160000D03*
X38735000Y-142160000D03*
X38735000Y-147160000D03*
%TD*%
D24*
%TO.C,C8*%
X43180000Y-33020000D03*
X35680000Y-33020000D03*
%TD*%
D25*
%TO.C,C11*%
X72517000Y-127628000D03*
D26*
X72517000Y-135128000D03*
%TD*%
D10*
%TO.C,R3*%
X126365000Y-62230000D03*
D11*
X126365000Y-77470000D03*
%TD*%
D22*
%TO.C,J22*%
X101624000Y-122555000D03*
%TD*%
D10*
%TO.C,R19*%
X37455000Y-70485000D03*
D11*
X57775000Y-70485000D03*
%TD*%
D12*
%TO.C,C9*%
X113030000Y-53975000D03*
X113030000Y-43975000D03*
%TD*%
D10*
%TO.C,R10*%
X77777500Y-57150000D03*
D11*
X77777500Y-77470000D03*
%TD*%
D26*
%TO.C,R20*%
X57150000Y-46990000D03*
D27*
X57150000Y-31750000D03*
%TD*%
D22*
%TO.C,J21*%
X101624000Y-129032000D03*
%TD*%
D10*
%TO.C,R5*%
X161290000Y-73660000D03*
D11*
X140970000Y-73660000D03*
%TD*%
D21*
%TO.C,J11*%
X31750000Y-147193000D03*
%TD*%
D10*
%TO.C,R9*%
X119380000Y-42545000D03*
D11*
X119380000Y-57785000D03*
%TD*%
D21*
%TO.C,J12*%
X31750000Y-137160000D03*
%TD*%
D12*
%TO.C,C14*%
X87978000Y-117348000D03*
X77978000Y-117348000D03*
%TD*%
D10*
%TO.C,R23*%
X43180000Y-43815000D03*
D11*
X43180000Y-64135000D03*
%TD*%
D25*
%TO.C,C1*%
X93733000Y-129032000D03*
D26*
X86233000Y-129032000D03*
%TD*%
D21*
%TO.C,J14*%
X31750000Y-112471200D03*
%TD*%
D22*
%TO.C,J9*%
X126365000Y-34290000D03*
%TD*%
D10*
%TO.C,R11*%
X70993000Y-50165000D03*
D11*
X70993000Y-70485000D03*
%TD*%
D28*
%TO.C,J10*%
X93472000Y-104140000D03*
D29*
X88392000Y-104140000D03*
X83312000Y-104140000D03*
%TD*%
D10*
%TO.C,R13*%
X84762500Y-35560000D03*
D11*
X64442500Y-35560000D03*
%TD*%
D10*
%TO.C,R1*%
X140970000Y-66675000D03*
D11*
X161290000Y-66675000D03*
%TD*%
D10*
%TO.C,R6*%
X169545000Y-73660000D03*
D11*
X169545000Y-53340000D03*
%TD*%
D12*
%TO.C,C15*%
X84455000Y-110744000D03*
X94455000Y-110744000D03*
%TD*%
D30*
%TO.C,R24*%
X46355000Y-26035000D03*
D31*
X51435000Y-26035000D03*
%TD*%
D32*
%TO.C,C10*%
X84963000Y-154940000D03*
D22*
X84963000Y-144940000D03*
%TD*%
D33*
%TO.C,J3*%
X64760000Y-77470000D03*
D29*
X69840000Y-77470000D03*
%TD*%
D12*
%TO.C,C3*%
X91430000Y-58580000D03*
X91430000Y-68580000D03*
%TD*%
D33*
%TO.C,J4*%
X112395000Y-77502500D03*
D29*
X117475000Y-77502500D03*
%TD*%
D10*
%TO.C,R18*%
X47244000Y-149225000D03*
D11*
X67564000Y-149225000D03*
%TD*%
D12*
%TO.C,C7*%
X112268000Y-63500000D03*
X112268000Y-71000000D03*
%TD*%
D10*
%TO.C,J18*%
X161290000Y-80645000D03*
%TD*%
%TO.C,R7*%
X133350000Y-62230000D03*
D11*
X133350000Y-77470000D03*
%TD*%
D28*
%TO.C,J19*%
X160528000Y-29177500D03*
D29*
X155448000Y-29177500D03*
%TD*%
D23*
%TO.C,D11*%
X38735000Y-107475000D03*
D12*
X38735000Y-112475000D03*
X38735000Y-117475000D03*
X38735000Y-122475000D03*
%TD*%
D25*
%TO.C,C13*%
X50920000Y-125730000D03*
D26*
X58420000Y-125730000D03*
%TD*%
D12*
%TO.C,C16*%
X73660000Y-100965000D03*
X73660000Y-110965000D03*
%TD*%
D22*
%TO.C,J20*%
X101624000Y-137795000D03*
%TD*%
D15*
%TO.C,U2*%
X84692500Y-51435000D03*
D16*
X84692500Y-48895000D03*
X84692500Y-46355000D03*
X84692500Y-43815000D03*
X77072500Y-43815000D03*
X77072500Y-46355000D03*
X77072500Y-48895000D03*
X77072500Y-51435000D03*
%TD*%
D10*
%TO.C,R14*%
X64135000Y-50165000D03*
D11*
X64135000Y-70485000D03*
%TD*%
D28*
%TO.C,J5*%
X118110000Y-35900228D03*
D29*
X113030000Y-35900228D03*
X107950000Y-35900228D03*
%TD*%
D10*
%TO.C,R15*%
X37455000Y-77216000D03*
D11*
X57775000Y-77216000D03*
%TD*%
D25*
%TO.C,C12*%
X95885000Y-30107272D03*
D26*
X95885000Y-37607272D03*
%TD*%
D10*
%TO.C,R22*%
X105156000Y-72390000D03*
D11*
X105156000Y-52070000D03*
%TD*%
D10*
%TO.C,R4*%
X126365000Y-57785000D03*
D11*
X126365000Y-42545000D03*
%TD*%
D10*
%TO.C,R8*%
X133350000Y-42545000D03*
D11*
X133350000Y-57785000D03*
%TD*%
D33*
%TO.C,J1*%
X98450400Y-77502500D03*
D29*
X103530400Y-77502500D03*
%TD*%
D17*
%TO.C,F1*%
X69848000Y-157480000D03*
X63088000Y-157480000D03*
D18*
X53498000Y-157480000D03*
X46738000Y-157480000D03*
%TD*%
D15*
%TO.C,D2*%
X169545000Y-38608000D03*
D16*
X169545000Y-48768000D03*
%TD*%
D10*
%TO.C,R16*%
X84762500Y-57150000D03*
D11*
X84762500Y-77470000D03*
%TD*%
D10*
%TO.C,R17*%
X50155000Y-64135000D03*
D11*
X50155000Y-43815000D03*
%TD*%
D24*
%TO.C,C5*%
X57150000Y-51515000D03*
X57150000Y-61515000D03*
%TD*%
D19*
%TO.C,J7*%
X28532500Y-67310000D03*
D20*
X28532500Y-72390000D03*
%TD*%
D12*
%TO.C,C4*%
X90170000Y-43260000D03*
X90170000Y-53260000D03*
%TD*%
D15*
%TO.C,D1*%
X165608000Y-34925000D03*
D16*
X155448000Y-34925000D03*
%TD*%
D22*
%TO.C,J16*%
X101624000Y-144000000D03*
%TD*%
D17*
%TO.C,F3*%
X68072000Y-103886000D03*
X61312000Y-103886000D03*
D18*
X51722000Y-103886000D03*
X44962000Y-103886000D03*
%TD*%
D19*
%TO.C,J2*%
X28565000Y-53975000D03*
D20*
X28565000Y-59055000D03*
%TD*%
D10*
%TO.C,R12*%
X98425000Y-52070000D03*
D11*
X98425000Y-72390000D03*
%TD*%
M02*
