%TF.GenerationSoftware,KiCad,Pcbnew,7.0.1*%
%TF.CreationDate,2024-04-08T23:42:12+02:00*%
%TF.ProjectId,6N6P_hybrid,364e3650-5f68-4796-9272-69642e6b6963,rev?*%
%TF.SameCoordinates,Original*%
%TF.FileFunction,Profile,NP*%
%FSLAX46Y46*%
G04 Gerber Fmt 4.6, Leading zero omitted, Abs format (unit mm)*
G04 Created by KiCad (PCBNEW 7.0.1) date 2024-04-08 23:42:12*
%MOMM*%
%LPD*%
G01*
G04 APERTURE LIST*
%TA.AperFunction,Profile*%
%ADD10C,0.100000*%
%TD*%
G04 APERTURE END LIST*
D10*
X31500000Y-103000000D02*
G75*
G03*
X31500000Y-103000000I-1500000J0D01*
G01*
X103100000Y-46000000D02*
G75*
G03*
X103100000Y-46000000I-1600000J0D01*
G01*
X28000000Y-26000000D02*
G75*
G03*
X28000000Y-26000000I-1500000J0D01*
G01*
X33250000Y-117475000D02*
G75*
G03*
X33250000Y-117475000I-1500000J0D01*
G01*
X107950000Y-144145000D02*
G75*
G03*
X107950000Y-144145000I-1500000J0D01*
G01*
X157710000Y-80645000D02*
G75*
G03*
X157710000Y-80645000I-1500000J0D01*
G01*
X107500000Y-103000000D02*
G75*
G03*
X107500000Y-103000000I-1500000J0D01*
G01*
X173000000Y-81000000D02*
G75*
G03*
X173000000Y-81000000I-1500000J0D01*
G01*
X173000000Y-26000000D02*
G75*
G03*
X173000000Y-26000000I-1500000J0D01*
G01*
X107500000Y-158000000D02*
G75*
G03*
X107500000Y-158000000I-1500000J0D01*
G01*
X20700000Y-20840000D02*
X177000000Y-20840000D01*
X177000000Y-85840000D01*
X20700000Y-85840000D01*
X20700000Y-20840000D01*
X33055000Y-127405000D02*
G75*
G03*
X33055000Y-127405000I-1500000J0D01*
G01*
X28000000Y-81000000D02*
G75*
G03*
X28000000Y-81000000I-1500000J0D01*
G01*
X33020000Y-132056000D02*
G75*
G03*
X33020000Y-132056000I-1500000J0D01*
G01*
X107950000Y-128905000D02*
G75*
G03*
X107950000Y-128905000I-1500000J0D01*
G01*
X26045000Y-97000000D02*
X110490000Y-97000000D01*
X110490000Y-163508000D01*
X26045000Y-163508000D01*
X26045000Y-97000000D01*
X33020000Y-142010000D02*
G75*
G03*
X33020000Y-142010000I-1500000J0D01*
G01*
X107950000Y-137795000D02*
G75*
G03*
X107950000Y-137795000I-1500000J0D01*
G01*
X107950000Y-113030000D02*
G75*
G03*
X107950000Y-113030000I-1500000J0D01*
G01*
X31500000Y-158000000D02*
G75*
G03*
X31500000Y-158000000I-1500000J0D01*
G01*
X42140000Y-26035000D02*
G75*
G03*
X42140000Y-26035000I-1500000J0D01*
G01*
X107950000Y-122555000D02*
G75*
G03*
X107950000Y-122555000I-1500000J0D01*
G01*
X134850000Y-34520000D02*
G75*
G03*
X134850000Y-34520000I-1500000J0D01*
G01*
M02*
