%TF.GenerationSoftware,KiCad,Pcbnew,7.0.1*%
%TF.CreationDate,2024-04-08T23:42:12+02:00*%
%TF.ProjectId,6N6P_hybrid,364e3650-5f68-4796-9272-69642e6b6963,rev?*%
%TF.SameCoordinates,Original*%
%TF.FileFunction,Copper,L2,Bot*%
%TF.FilePolarity,Positive*%
%FSLAX46Y46*%
G04 Gerber Fmt 4.6, Leading zero omitted, Abs format (unit mm)*
G04 Created by KiCad (PCBNEW 7.0.1) date 2024-04-08 23:42:12*
%MOMM*%
%LPD*%
G01*
G04 APERTURE LIST*
G04 Aperture macros list*
%AMRoundRect*
0 Rectangle with rounded corners*
0 $1 Rounding radius*
0 $2 $3 $4 $5 $6 $7 $8 $9 X,Y pos of 4 corners*
0 Add a 4 corners polygon primitive as box body*
4,1,4,$2,$3,$4,$5,$6,$7,$8,$9,$2,$3,0*
0 Add four circle primitives for the rounded corners*
1,1,$1+$1,$2,$3*
1,1,$1+$1,$4,$5*
1,1,$1+$1,$6,$7*
1,1,$1+$1,$8,$9*
0 Add four rect primitives between the rounded corners*
20,1,$1+$1,$2,$3,$4,$5,0*
20,1,$1+$1,$4,$5,$6,$7,0*
20,1,$1+$1,$6,$7,$8,$9,0*
20,1,$1+$1,$8,$9,$2,$3,0*%
G04 Aperture macros list end*
%TA.AperFunction,ComponentPad*%
%ADD10C,2.800000*%
%TD*%
%TA.AperFunction,ComponentPad*%
%ADD11O,2.800000X2.800000*%
%TD*%
%TA.AperFunction,ComponentPad*%
%ADD12C,2.000000*%
%TD*%
%TA.AperFunction,ComponentPad*%
%ADD13R,1.300000X1.050000*%
%TD*%
%TA.AperFunction,ComponentPad*%
%ADD14O,1.300000X1.050000*%
%TD*%
%TA.AperFunction,ComponentPad*%
%ADD15R,1.600000X1.600000*%
%TD*%
%TA.AperFunction,ComponentPad*%
%ADD16O,1.600000X1.600000*%
%TD*%
%TA.AperFunction,ComponentPad*%
%ADD17RoundRect,0.675000X0.675000X0.675000X-0.675000X0.675000X-0.675000X-0.675000X0.675000X-0.675000X0*%
%TD*%
%TA.AperFunction,ComponentPad*%
%ADD18C,2.700000*%
%TD*%
%TA.AperFunction,ComponentPad*%
%ADD19RoundRect,0.249999X-1.550001X0.790001X-1.550001X-0.790001X1.550001X-0.790001X1.550001X0.790001X0*%
%TD*%
%TA.AperFunction,ComponentPad*%
%ADD20O,3.600000X2.080000*%
%TD*%
%TA.AperFunction,ComponentPad*%
%ADD21C,4.200000*%
%TD*%
%TA.AperFunction,ComponentPad*%
%ADD22C,4.000000*%
%TD*%
%TA.AperFunction,ComponentPad*%
%ADD23R,2.000000X2.000000*%
%TD*%
%TA.AperFunction,ComponentPad*%
%ADD24C,2.200000*%
%TD*%
%TA.AperFunction,ComponentPad*%
%ADD25R,2.400000X2.400000*%
%TD*%
%TA.AperFunction,ComponentPad*%
%ADD26C,2.400000*%
%TD*%
%TA.AperFunction,ComponentPad*%
%ADD27O,2.400000X2.400000*%
%TD*%
%TA.AperFunction,ComponentPad*%
%ADD28RoundRect,0.249999X0.790001X1.550001X-0.790001X1.550001X-0.790001X-1.550001X0.790001X-1.550001X0*%
%TD*%
%TA.AperFunction,ComponentPad*%
%ADD29O,2.080000X3.600000*%
%TD*%
%TA.AperFunction,ComponentPad*%
%ADD30C,1.400000*%
%TD*%
%TA.AperFunction,ComponentPad*%
%ADD31O,1.400000X1.400000*%
%TD*%
%TA.AperFunction,ComponentPad*%
%ADD32R,4.000000X4.000000*%
%TD*%
%TA.AperFunction,ComponentPad*%
%ADD33RoundRect,0.249999X-0.790001X-1.550001X0.790001X-1.550001X0.790001X1.550001X-0.790001X1.550001X0*%
%TD*%
%TA.AperFunction,Conductor*%
%ADD34C,1.200000*%
%TD*%
%TA.AperFunction,Conductor*%
%ADD35C,1.500000*%
%TD*%
%TA.AperFunction,Conductor*%
%ADD36C,3.000000*%
%TD*%
%TA.AperFunction,Conductor*%
%ADD37C,2.500000*%
%TD*%
%TA.AperFunction,Conductor*%
%ADD38C,2.000000*%
%TD*%
G04 APERTURE END LIST*
D10*
%TO.P,R21,1*%
%TO.N,GND*%
X36195000Y-43815000D03*
D11*
%TO.P,R21,2*%
%TO.N,Net-(J2-Pin_2)*%
X36195000Y-64135000D03*
%TD*%
D10*
%TO.P,R2,1*%
%TO.N,Net-(R2-Pad1)*%
X140970000Y-42545000D03*
D11*
%TO.P,R2,2*%
%TO.N,Net-(D2-A)*%
X161290000Y-42545000D03*
%TD*%
D12*
%TO.P,C2,1*%
%TO.N,Net-(J3-Pin_2)*%
X119253000Y-63500000D03*
%TO.P,C2,2*%
%TO.N,Net-(J4-Pin_2)*%
X119253000Y-71000000D03*
%TD*%
D13*
%TO.P,Q1,1,E*%
%TO.N,Net-(Q1-E)*%
X49530000Y-34255000D03*
D14*
%TO.P,Q1,2,B*%
%TO.N,Net-(Q1-B)*%
X49530000Y-36795000D03*
%TO.P,Q1,3,C*%
%TO.N,V++*%
X49530000Y-39335000D03*
%TD*%
D15*
%TO.P,U1,1*%
%TO.N,Net-(R1-Pad1)*%
X140970000Y-59055000D03*
D16*
%TO.P,U1,2,-*%
%TO.N,Net-(U1A--)*%
X143510000Y-59055000D03*
%TO.P,U1,3,+*%
%TO.N,GND*%
X146050000Y-59055000D03*
%TO.P,U1,4,V-*%
%TO.N,V--*%
X148590000Y-59055000D03*
%TO.P,U1,5,+*%
%TO.N,GND*%
X148590000Y-51435000D03*
%TO.P,U1,6,-*%
%TO.N,Net-(U1B--)*%
X146050000Y-51435000D03*
%TO.P,U1,7*%
%TO.N,Net-(R2-Pad1)*%
X143510000Y-51435000D03*
%TO.P,U1,8,V+*%
%TO.N,V++*%
X140970000Y-51435000D03*
%TD*%
D10*
%TO.P,J8,1,Pin_1*%
%TO.N,GND*%
X35490000Y-26035000D03*
%TD*%
D17*
%TO.P,F2,1*%
%TO.N,Net-(J10-Pin_3)*%
X68072000Y-111506000D03*
X61312000Y-111506000D03*
D18*
%TO.P,F2,2*%
%TO.N,Net-(D11-+)*%
X51722000Y-111506000D03*
X44962000Y-111506000D03*
%TD*%
D19*
%TO.P,J6,1,Pin_1*%
%TO.N,GND*%
X28532500Y-35560000D03*
D20*
%TO.P,J6,2,Pin_2*%
%TO.N,Net-(J6-Pin_2)*%
X28532500Y-40640000D03*
%TO.P,J6,3,Pin_3*%
%TO.N,Net-(J6-Pin_3)*%
X28532500Y-45720000D03*
%TD*%
D21*
%TO.P,J13,1,Pin_1*%
%TO.N,Net-(J13-Pin_1)*%
X31750000Y-122453400D03*
%TD*%
D22*
%TO.P,J15,1,Pin_1*%
%TO.N,GND2*%
X101370000Y-113030000D03*
%TD*%
D23*
%TO.P,D3,1,-*%
%TO.N,GND2*%
X38735000Y-132160000D03*
D12*
%TO.P,D3,2*%
%TO.N,Net-(J12-Pin_1)*%
X38735000Y-137160000D03*
%TO.P,D3,3,+*%
%TO.N,Net-(D3-+)*%
X38735000Y-142160000D03*
%TO.P,D3,4*%
%TO.N,Net-(J11-Pin_1)*%
X38735000Y-147160000D03*
%TD*%
D24*
%TO.P,C8,1*%
%TO.N,Net-(Q1-E)*%
X43180000Y-33020000D03*
%TO.P,C8,2*%
%TO.N,Net-(J6-Pin_2)*%
X35680000Y-33020000D03*
%TD*%
D25*
%TO.P,C11,1*%
%TO.N,Net-(J10-Pin_3)*%
X72517000Y-127628000D03*
D26*
%TO.P,C11,2*%
%TO.N,GND2*%
X72517000Y-135128000D03*
%TD*%
D10*
%TO.P,R3,1*%
%TO.N,Net-(U1A--)*%
X126365000Y-62230000D03*
D11*
%TO.P,R3,2*%
%TO.N,Net-(J4-Pin_2)*%
X126365000Y-77470000D03*
%TD*%
D22*
%TO.P,J22,1,Pin_1*%
%TO.N,Net-(J21-Pin_1)*%
X101624000Y-122555000D03*
%TD*%
D10*
%TO.P,R19,1*%
%TO.N,Net-(J7-Pin_1)*%
X37455000Y-70485000D03*
D11*
%TO.P,R19,2*%
%TO.N,Net-(J3-Pin_1)*%
X57775000Y-70485000D03*
%TD*%
D12*
%TO.P,C9,1*%
%TO.N,V--*%
X113030000Y-53975000D03*
%TO.P,C9,2*%
%TO.N,V++*%
X113030000Y-43975000D03*
%TD*%
D10*
%TO.P,R10,1*%
%TO.N,Net-(J3-Pin_1)*%
X77777500Y-57150000D03*
D11*
%TO.P,R10,2*%
%TO.N,Net-(J3-Pin_2)*%
X77777500Y-77470000D03*
%TD*%
D26*
%TO.P,R20,1*%
%TO.N,Net-(U2B--)*%
X57150000Y-46990000D03*
D27*
%TO.P,R20,2*%
%TO.N,GND*%
X57150000Y-31750000D03*
%TD*%
D22*
%TO.P,J21,1,Pin_1*%
%TO.N,Net-(J21-Pin_1)*%
X101624000Y-129032000D03*
%TD*%
D10*
%TO.P,R5,1*%
%TO.N,Net-(D1-A)*%
X161290000Y-73660000D03*
D11*
%TO.P,R5,2*%
%TO.N,GND*%
X140970000Y-73660000D03*
%TD*%
D21*
%TO.P,J11,1,Pin_1*%
%TO.N,Net-(J11-Pin_1)*%
X31750000Y-147193000D03*
%TD*%
D10*
%TO.P,R9,1*%
%TO.N,Net-(U1B--)*%
X119380000Y-42545000D03*
D11*
%TO.P,R9,2*%
%TO.N,Net-(R2-Pad1)*%
X119380000Y-57785000D03*
%TD*%
D21*
%TO.P,J12,1,Pin_1*%
%TO.N,Net-(J12-Pin_1)*%
X31750000Y-137160000D03*
%TD*%
D12*
%TO.P,C14,1*%
%TO.N,GND2*%
X87978000Y-117348000D03*
%TO.P,C14,2*%
%TO.N,Net-(J10-Pin_3)*%
X77978000Y-117348000D03*
%TD*%
D10*
%TO.P,R23,1*%
%TO.N,Net-(Q1-B)*%
X43180000Y-43815000D03*
D11*
%TO.P,R23,2*%
%TO.N,Net-(J2-Pin_2)*%
X43180000Y-64135000D03*
%TD*%
D25*
%TO.P,C1,1*%
%TO.N,Net-(J21-Pin_1)*%
X93733000Y-129032000D03*
D26*
%TO.P,C1,2*%
%TO.N,GND2*%
X86233000Y-129032000D03*
%TD*%
D21*
%TO.P,J14,1,Pin_1*%
%TO.N,Net-(J14-Pin_1)*%
X31750000Y-112471200D03*
%TD*%
D22*
%TO.P,J9,1,Pin_1*%
%TO.N,Net-(J9-Pin_1)*%
X126365000Y-34290000D03*
%TD*%
D10*
%TO.P,R11,1*%
%TO.N,Net-(J3-Pin_1)*%
X70993000Y-50165000D03*
D11*
%TO.P,R11,2*%
%TO.N,Net-(J3-Pin_2)*%
X70993000Y-70485000D03*
%TD*%
D28*
%TO.P,J10,1,Pin_1*%
%TO.N,GND2*%
X93472000Y-104140000D03*
D29*
%TO.P,J10,2,Pin_2*%
%TO.N,Net-(J10-Pin_2)*%
X88392000Y-104140000D03*
%TO.P,J10,3,Pin_3*%
%TO.N,Net-(J10-Pin_3)*%
X83312000Y-104140000D03*
%TD*%
D10*
%TO.P,R13,1*%
%TO.N,V--*%
X84762500Y-35560000D03*
D11*
%TO.P,R13,2*%
%TO.N,Net-(Q1-E)*%
X64442500Y-35560000D03*
%TD*%
D10*
%TO.P,R1,1*%
%TO.N,Net-(R1-Pad1)*%
X140970000Y-66675000D03*
D11*
%TO.P,R1,2*%
%TO.N,Net-(D1-A)*%
X161290000Y-66675000D03*
%TD*%
D10*
%TO.P,R6,1*%
%TO.N,GND*%
X169545000Y-73660000D03*
D11*
%TO.P,R6,2*%
%TO.N,Net-(D2-A)*%
X169545000Y-53340000D03*
%TD*%
D12*
%TO.P,C15,1*%
%TO.N,Net-(J10-Pin_2)*%
X84455000Y-110744000D03*
%TO.P,C15,2*%
%TO.N,GND2*%
X94455000Y-110744000D03*
%TD*%
D30*
%TO.P,R24,1*%
%TO.N,GND*%
X46355000Y-26035000D03*
D31*
%TO.P,R24,2*%
%TO.N,GND3*%
X51435000Y-26035000D03*
%TD*%
D32*
%TO.P,C10,1*%
%TO.N,Net-(J16-Pin_1)*%
X84963000Y-154940000D03*
D22*
%TO.P,C10,2*%
%TO.N,GND2*%
X84963000Y-144940000D03*
%TD*%
D33*
%TO.P,J3,1,Pin_1*%
%TO.N,Net-(J3-Pin_1)*%
X64760000Y-77470000D03*
D29*
%TO.P,J3,2,Pin_2*%
%TO.N,Net-(J3-Pin_2)*%
X69840000Y-77470000D03*
%TD*%
D12*
%TO.P,C3,1*%
%TO.N,Net-(C3-Pad1)*%
X91430000Y-58580000D03*
%TO.P,C3,2*%
%TO.N,Net-(J3-Pin_2)*%
X91430000Y-68580000D03*
%TD*%
D33*
%TO.P,J4,1,Pin_1*%
%TO.N,Net-(J4-Pin_1)*%
X112395000Y-77502500D03*
D29*
%TO.P,J4,2,Pin_2*%
%TO.N,Net-(J4-Pin_2)*%
X117475000Y-77502500D03*
%TD*%
D10*
%TO.P,R18,1*%
%TO.N,GND2*%
X47244000Y-149225000D03*
D11*
%TO.P,R18,2*%
%TO.N,Net-(J16-Pin_1)*%
X67564000Y-149225000D03*
%TD*%
D12*
%TO.P,C7,1*%
%TO.N,Net-(J3-Pin_2)*%
X112268000Y-63500000D03*
%TO.P,C7,2*%
%TO.N,Net-(J4-Pin_1)*%
X112268000Y-71000000D03*
%TD*%
D10*
%TO.P,J18,1,Pin_1*%
%TO.N,GND*%
X161290000Y-80645000D03*
%TD*%
%TO.P,R7,1*%
%TO.N,Net-(U1A--)*%
X133350000Y-62230000D03*
D11*
%TO.P,R7,2*%
%TO.N,Net-(R1-Pad1)*%
X133350000Y-77470000D03*
%TD*%
D28*
%TO.P,J19,1,Pin_1*%
%TO.N,Net-(D2-A)*%
X160528000Y-29177500D03*
D29*
%TO.P,J19,2,Pin_2*%
%TO.N,Net-(D1-A)*%
X155448000Y-29177500D03*
%TD*%
D23*
%TO.P,D11,1,-*%
%TO.N,Net-(D11--)*%
X38735000Y-107475000D03*
D12*
%TO.P,D11,2*%
%TO.N,Net-(J14-Pin_1)*%
X38735000Y-112475000D03*
%TO.P,D11,3,+*%
%TO.N,Net-(D11-+)*%
X38735000Y-117475000D03*
%TO.P,D11,4*%
%TO.N,Net-(J13-Pin_1)*%
X38735000Y-122475000D03*
%TD*%
D25*
%TO.P,C13,1*%
%TO.N,GND2*%
X50920000Y-125730000D03*
D26*
%TO.P,C13,2*%
%TO.N,Net-(J10-Pin_2)*%
X58420000Y-125730000D03*
%TD*%
D12*
%TO.P,C16,1*%
%TO.N,Net-(J10-Pin_2)*%
X73660000Y-100965000D03*
%TO.P,C16,2*%
%TO.N,Net-(J10-Pin_3)*%
X73660000Y-110965000D03*
%TD*%
D22*
%TO.P,J20,1,Pin_1*%
%TO.N,Net-(J16-Pin_1)*%
X101624000Y-137795000D03*
%TD*%
D15*
%TO.P,U2,1*%
%TO.N,Net-(U2A--)*%
X84692500Y-51435000D03*
D16*
%TO.P,U2,2,-*%
X84692500Y-48895000D03*
%TO.P,U2,3,+*%
%TO.N,Net-(U2A-+)*%
X84692500Y-46355000D03*
%TO.P,U2,4,V-*%
%TO.N,V--*%
X84692500Y-43815000D03*
%TO.P,U2,5,+*%
%TO.N,Net-(U2B-+)*%
X77072500Y-43815000D03*
%TO.P,U2,6,-*%
%TO.N,Net-(U2B--)*%
X77072500Y-46355000D03*
%TO.P,U2,7*%
%TO.N,Net-(J3-Pin_1)*%
X77072500Y-48895000D03*
%TO.P,U2,8,V+*%
%TO.N,V++*%
X77072500Y-51435000D03*
%TD*%
D10*
%TO.P,R14,1*%
%TO.N,Net-(U2B--)*%
X64135000Y-50165000D03*
D11*
%TO.P,R14,2*%
%TO.N,Net-(J3-Pin_1)*%
X64135000Y-70485000D03*
%TD*%
D28*
%TO.P,J5,1,Pin_1*%
%TO.N,GND*%
X118110000Y-35900228D03*
D29*
%TO.P,J5,2,Pin_2*%
%TO.N,V++*%
X113030000Y-35900228D03*
%TO.P,J5,3,Pin_3*%
%TO.N,V--*%
X107950000Y-35900228D03*
%TD*%
D10*
%TO.P,R15,1*%
%TO.N,Net-(J7-Pin_2)*%
X37455000Y-77216000D03*
D11*
%TO.P,R15,2*%
%TO.N,Net-(J3-Pin_1)*%
X57775000Y-77216000D03*
%TD*%
D25*
%TO.P,C12,1*%
%TO.N,V++*%
X95885000Y-30107272D03*
D26*
%TO.P,C12,2*%
%TO.N,V--*%
X95885000Y-37607272D03*
%TD*%
D10*
%TO.P,R22,1*%
%TO.N,Net-(J4-Pin_1)*%
X105156000Y-72390000D03*
D11*
%TO.P,R22,2*%
%TO.N,Net-(J4-Pin_2)*%
X105156000Y-52070000D03*
%TD*%
D10*
%TO.P,R4,1*%
%TO.N,Net-(U1A--)*%
X126365000Y-57785000D03*
D11*
%TO.P,R4,2*%
%TO.N,Net-(J9-Pin_1)*%
X126365000Y-42545000D03*
%TD*%
D10*
%TO.P,R8,1*%
%TO.N,Net-(U1B--)*%
X133350000Y-42545000D03*
D11*
%TO.P,R8,2*%
%TO.N,Net-(R1-Pad1)*%
X133350000Y-57785000D03*
%TD*%
D33*
%TO.P,J1,1,Pin_1*%
%TO.N,Net-(J1-Pin_1)*%
X98450400Y-77502500D03*
D29*
%TO.P,J1,2,Pin_2*%
%TO.N,GND*%
X103530400Y-77502500D03*
%TD*%
D17*
%TO.P,F1,1*%
%TO.N,Net-(J16-Pin_1)*%
X69848000Y-157480000D03*
X63088000Y-157480000D03*
D18*
%TO.P,F1,2*%
%TO.N,Net-(D3-+)*%
X53498000Y-157480000D03*
X46738000Y-157480000D03*
%TD*%
D15*
%TO.P,D2,1,K*%
%TO.N,Net-(D1-K)*%
X169545000Y-38608000D03*
D16*
%TO.P,D2,2,A*%
%TO.N,Net-(D2-A)*%
X169545000Y-48768000D03*
%TD*%
D10*
%TO.P,R16,1*%
%TO.N,Net-(U2A--)*%
X84762500Y-57150000D03*
D11*
%TO.P,R16,2*%
%TO.N,Net-(C3-Pad1)*%
X84762500Y-77470000D03*
%TD*%
D10*
%TO.P,R17,1*%
%TO.N,Net-(J6-Pin_3)*%
X50155000Y-64135000D03*
D11*
%TO.P,R17,2*%
%TO.N,Net-(U2B-+)*%
X50155000Y-43815000D03*
%TD*%
D24*
%TO.P,C5,1*%
%TO.N,Net-(U2B--)*%
X57150000Y-51515000D03*
%TO.P,C5,2*%
%TO.N,Net-(J7-Pin_1)*%
X57150000Y-61515000D03*
%TD*%
D19*
%TO.P,J7,1,Pin_1*%
%TO.N,Net-(J7-Pin_1)*%
X28532500Y-67310000D03*
D20*
%TO.P,J7,2,Pin_2*%
%TO.N,Net-(J7-Pin_2)*%
X28532500Y-72390000D03*
%TD*%
D12*
%TO.P,C4,1*%
%TO.N,Net-(U2A-+)*%
X90170000Y-43260000D03*
%TO.P,C4,2*%
%TO.N,Net-(C3-Pad1)*%
X90170000Y-53260000D03*
%TD*%
D15*
%TO.P,D1,1,K*%
%TO.N,Net-(D1-K)*%
X165608000Y-34925000D03*
D16*
%TO.P,D1,2,A*%
%TO.N,Net-(D1-A)*%
X155448000Y-34925000D03*
%TD*%
D22*
%TO.P,J16,1,Pin_1*%
%TO.N,Net-(J16-Pin_1)*%
X101624000Y-144000000D03*
%TD*%
D17*
%TO.P,F3,1*%
%TO.N,Net-(J10-Pin_2)*%
X68072000Y-103886000D03*
X61312000Y-103886000D03*
D18*
%TO.P,F3,2*%
%TO.N,Net-(D11--)*%
X51722000Y-103886000D03*
X44962000Y-103886000D03*
%TD*%
D19*
%TO.P,J2,1,Pin_1*%
%TO.N,GND*%
X28565000Y-53975000D03*
D20*
%TO.P,J2,2,Pin_2*%
%TO.N,Net-(J2-Pin_2)*%
X28565000Y-59055000D03*
%TD*%
D10*
%TO.P,R12,1*%
%TO.N,Net-(U2A-+)*%
X98425000Y-52070000D03*
D11*
%TO.P,R12,2*%
%TO.N,Net-(J1-Pin_1)*%
X98425000Y-72390000D03*
%TD*%
D34*
%TO.N,Net-(U2A--)*%
X84692500Y-51435000D02*
X84692500Y-57080000D01*
X84692500Y-57080000D02*
X84762500Y-57150000D01*
X84692500Y-48895000D02*
X84692500Y-51435000D01*
D35*
%TO.N,Net-(U2A-+)*%
X97127641Y-52070000D02*
X98425000Y-52070000D01*
D34*
X98345000Y-52150000D02*
X98425000Y-52070000D01*
D35*
X90170000Y-46355000D02*
X95006321Y-51191321D01*
X84692500Y-46355000D02*
X90170000Y-46355000D01*
X90170000Y-43260000D02*
X90170000Y-46355000D01*
X95006301Y-51191341D02*
G75*
G03*
X97127641Y-52070000I2121299J2121341D01*
G01*
D34*
%TO.N,Net-(D1-K)*%
X165608000Y-34925000D02*
X166397359Y-34925000D01*
X168518680Y-35803680D02*
X168666321Y-35951321D01*
X169545000Y-38072641D02*
X169545000Y-38608000D01*
X169544971Y-38072641D02*
G75*
G03*
X168666321Y-35951321I-2999971J41D01*
G01*
X168518700Y-35803660D02*
G75*
G03*
X166397359Y-34925000I-2121300J-2121340D01*
G01*
D35*
%TO.N,Net-(D1-A)*%
X155448000Y-34290000D02*
X155448000Y-34925000D01*
X155448000Y-29177500D02*
X155448000Y-34290000D01*
X156619573Y-44472719D02*
X160118427Y-47971573D01*
X161290000Y-50800000D02*
X161290000Y-66675000D01*
X161290000Y-66675000D02*
X161290000Y-73660000D01*
X155448000Y-34290000D02*
X155448000Y-41644292D01*
X161289999Y-50800000D02*
G75*
G03*
X160118426Y-47971574I-3999999J0D01*
G01*
X155448006Y-41644292D02*
G75*
G03*
X156619573Y-44472719I3999994J-8D01*
G01*
D34*
%TO.N,Net-(D2-A)*%
X169545000Y-48768000D02*
X169545000Y-53340000D01*
X160655000Y-41910000D02*
X161290000Y-42545000D01*
X167883680Y-43423680D02*
X168666321Y-44206321D01*
X161290000Y-42545000D02*
X165762359Y-42545000D01*
X161290000Y-29939500D02*
X161290000Y-42545000D01*
X169545000Y-46327641D02*
X169545000Y-48768000D01*
X160528000Y-29177500D02*
X161290000Y-29939500D01*
X167883700Y-43423660D02*
G75*
G03*
X165762359Y-42545000I-2121300J-2121340D01*
G01*
X169544971Y-46327641D02*
G75*
G03*
X168666321Y-44206321I-2999971J41D01*
G01*
%TO.N,Net-(R1-Pad1)*%
X137110787Y-58370787D02*
X137209214Y-58469214D01*
X133350000Y-57785000D02*
X135696573Y-57785000D01*
X138623427Y-59055000D02*
X140970000Y-59055000D01*
X133886573Y-68678427D02*
X134718427Y-67846573D01*
X132715000Y-77470000D02*
X132715000Y-71506854D01*
X137546854Y-66675000D02*
X140970000Y-66675000D01*
X133886596Y-68678450D02*
G75*
G03*
X132715000Y-71506854I2828404J-2828450D01*
G01*
X137110801Y-58370773D02*
G75*
G03*
X135696573Y-57785000I-1414201J-1414227D01*
G01*
X137209200Y-58469228D02*
G75*
G03*
X138623427Y-59055000I1414200J1414228D01*
G01*
X137546854Y-66674968D02*
G75*
G03*
X134718427Y-67846573I46J-4000032D01*
G01*
%TO.N,Net-(U1A--)*%
X126365000Y-62230000D02*
X126365000Y-57785000D01*
X133350000Y-62230000D02*
X141411573Y-62230000D01*
X142825787Y-61644213D02*
X142924214Y-61545786D01*
X143510000Y-60131573D02*
X143510000Y-59055000D01*
X126365000Y-62230000D02*
X133350000Y-62230000D01*
X142924228Y-61545800D02*
G75*
G03*
X143510000Y-60131573I-1414228J1414200D01*
G01*
X141411573Y-62229980D02*
G75*
G03*
X142825786Y-61644212I27J1999980D01*
G01*
%TO.N,Net-(U1B--)*%
X133350000Y-47625000D02*
X142902359Y-47625000D01*
X120551573Y-46256573D02*
X120748427Y-46453427D01*
X133350000Y-42545000D02*
X133350000Y-47625000D01*
X145023680Y-48503680D02*
X145171321Y-48651321D01*
X123576854Y-47625000D02*
X133350000Y-47625000D01*
X119380000Y-42545000D02*
X119380000Y-43428146D01*
X146050000Y-50772641D02*
X146050000Y-51435000D01*
X120748450Y-46453404D02*
G75*
G03*
X123576854Y-47625000I2828450J2828404D01*
G01*
X145023700Y-48503660D02*
G75*
G03*
X142902359Y-47625000I-2121300J-2121340D01*
G01*
X119379968Y-43428146D02*
G75*
G03*
X120551573Y-46256573I4000032J46D01*
G01*
X146049971Y-50772641D02*
G75*
G03*
X145171321Y-48651321I-2999971J41D01*
G01*
%TO.N,Net-(U2B--)*%
X77072500Y-46355000D02*
X63500000Y-46355000D01*
X64135000Y-50165000D02*
X64135000Y-46990000D01*
X63500000Y-46355000D02*
X57785000Y-46355000D01*
X57150000Y-46990000D02*
X57150000Y-51515000D01*
X64135000Y-46990000D02*
X63500000Y-46355000D01*
X57785000Y-46355000D02*
X57150000Y-46990000D01*
%TO.N,Net-(J1-Pin_1)*%
X98425000Y-72390000D02*
X98425000Y-77477100D01*
X98425000Y-77477100D02*
X98450400Y-77502500D01*
D35*
%TO.N,Net-(J3-Pin_1)*%
X64760000Y-77470000D02*
X58029000Y-77470000D01*
D34*
X71677213Y-49480787D02*
X70993000Y-50165000D01*
D35*
X77777500Y-57150000D02*
X75316854Y-57150000D01*
X57775000Y-70485000D02*
X64135000Y-70485000D01*
D34*
X77072500Y-48895000D02*
X73091427Y-48895000D01*
D35*
X57775000Y-70485000D02*
X57775000Y-77216000D01*
X72488427Y-55978427D02*
X72164573Y-55654573D01*
X70993000Y-52826146D02*
X70993000Y-50165000D01*
X58029000Y-77470000D02*
X57775000Y-77216000D01*
D34*
X73091427Y-48895020D02*
G75*
G03*
X71677214Y-49480788I-27J-1999980D01*
G01*
D35*
X72488450Y-55978404D02*
G75*
G03*
X75316854Y-57150000I2828450J2828404D01*
G01*
X70992968Y-52826146D02*
G75*
G03*
X72164573Y-55654573I4000032J46D01*
G01*
D34*
%TO.N,Net-(J4-Pin_1)*%
X112395000Y-71127000D02*
X112268000Y-71000000D01*
X112268000Y-71000000D02*
X112268000Y-77375500D01*
X112268000Y-71000000D02*
X107788641Y-71000000D01*
X105667320Y-71878680D02*
X105156000Y-72390000D01*
X112268000Y-77375500D02*
X112395000Y-77502500D01*
X107788641Y-71000029D02*
G75*
G03*
X105667320Y-71878680I-41J-2999971D01*
G01*
%TO.N,Net-(J4-Pin_2)*%
X125218680Y-71878680D02*
X125486321Y-72146321D01*
X117475000Y-77502500D02*
X126332500Y-77502500D01*
X125697500Y-77502500D02*
X125730000Y-77470000D01*
X126332500Y-77502500D02*
X126365000Y-77470000D01*
X126365000Y-74267641D02*
X126365000Y-77470000D01*
X119253000Y-71000000D02*
X123097359Y-71000000D01*
X125218700Y-71878660D02*
G75*
G03*
X123097359Y-71000000I-2121300J-2121340D01*
G01*
X126364971Y-74267641D02*
G75*
G03*
X125486321Y-72146321I-2999971J41D01*
G01*
%TO.N,Net-(J3-Pin_2)*%
X71726427Y-69751573D02*
X70993000Y-70485000D01*
X70718680Y-70759320D02*
X70993000Y-70485000D01*
X69840000Y-77470000D02*
X77777500Y-77470000D01*
X119253000Y-63500000D02*
X112268000Y-63500000D01*
X69840000Y-77470000D02*
X69840000Y-72880641D01*
X91430000Y-68580000D02*
X74554854Y-68580000D01*
X112268000Y-63500000D02*
X98166854Y-63500000D01*
X95338427Y-64671573D02*
X91430000Y-68580000D01*
X70718660Y-70759300D02*
G75*
G03*
X69840000Y-72880641I2121340J-2121300D01*
G01*
X74554854Y-68579968D02*
G75*
G03*
X71726427Y-69751573I46J-4000032D01*
G01*
X98166854Y-63499968D02*
G75*
G03*
X95338427Y-64671573I46J-4000032D01*
G01*
D35*
%TO.N,Net-(Q1-B)*%
X43180000Y-41026854D02*
X43180000Y-43815000D01*
X44583427Y-37966573D02*
X44351573Y-38198427D01*
X49530000Y-36795000D02*
X47411854Y-36795000D01*
X44351571Y-38198425D02*
G75*
G03*
X43180000Y-41026854I2828429J-2828425D01*
G01*
X47411854Y-36794968D02*
G75*
G03*
X44583427Y-37966573I46J-4000032D01*
G01*
%TO.N,Net-(Q1-E)*%
X48880787Y-33605787D02*
X49530000Y-34255000D01*
X49530000Y-34255000D02*
X53111573Y-34255000D01*
X54525787Y-34840787D02*
X54659214Y-34974214D01*
X43180000Y-33020000D02*
X47466573Y-33020000D01*
X56073427Y-35560000D02*
X64442500Y-35560000D01*
X54659200Y-34974228D02*
G75*
G03*
X56073427Y-35560000I1414200J1414228D01*
G01*
X48880801Y-33605773D02*
G75*
G03*
X47466573Y-33020000I-1414201J-1414227D01*
G01*
X54525801Y-34840773D02*
G75*
G03*
X53111573Y-34255000I-1414201J-1414227D01*
G01*
D34*
%TO.N,V--*%
X84762500Y-43745000D02*
X84692500Y-43815000D01*
X84762500Y-35560000D02*
X92595087Y-35560000D01*
X113030000Y-53975000D02*
X137601573Y-53975000D01*
X84692500Y-35630000D02*
X84762500Y-35560000D01*
X108634214Y-39419214D02*
X108535787Y-39320787D01*
X84692500Y-34995000D02*
X84762500Y-34925000D01*
X107775228Y-36075000D02*
X107950000Y-35900228D01*
X110246320Y-53096320D02*
X110098679Y-52948679D01*
X140528427Y-55245000D02*
X146491573Y-55245000D01*
X94716408Y-36438680D02*
X95885000Y-37607272D01*
X139015787Y-54560787D02*
X139114214Y-54659214D01*
X113030000Y-53975000D02*
X112367641Y-53975000D01*
X96713364Y-36778908D02*
X95885000Y-37607272D01*
X109220000Y-50827359D02*
X109220000Y-40833427D01*
X148590000Y-57343427D02*
X148590000Y-59055000D01*
X84692500Y-43815000D02*
X84692500Y-35630000D01*
X107950000Y-37906573D02*
X107950000Y-35900228D01*
X147905787Y-55830787D02*
X148004214Y-55929214D01*
X107950000Y-35900228D02*
X98834685Y-35900228D01*
X109219980Y-40833427D02*
G75*
G03*
X108634213Y-39419215I-1999980J27D01*
G01*
X110246300Y-53096340D02*
G75*
G03*
X112367641Y-53975000I2121300J2121340D01*
G01*
X139015801Y-54560773D02*
G75*
G03*
X137601573Y-53975000I-1414201J-1414227D01*
G01*
X139114200Y-54659228D02*
G75*
G03*
X140528427Y-55245000I1414200J1414228D01*
G01*
X98834685Y-35900209D02*
G75*
G03*
X96713364Y-36778908I15J-2999991D01*
G01*
X109220029Y-50827359D02*
G75*
G03*
X110098679Y-52948679I2999971J-41D01*
G01*
X147905801Y-55830773D02*
G75*
G03*
X146491573Y-55245000I-1414201J-1414227D01*
G01*
X148589980Y-57343427D02*
G75*
G03*
X148004213Y-55929215I-1999980J27D01*
G01*
X107950020Y-37906573D02*
G75*
G03*
X108535788Y-39320786I1999980J-27D01*
G01*
X94716414Y-36438674D02*
G75*
G03*
X92595087Y-35560000I-2121314J-2121326D01*
G01*
D35*
%TO.N,V++*%
X80645000Y-40640000D02*
X80645000Y-44450000D01*
D34*
X140970000Y-51435000D02*
X119546068Y-51435000D01*
X113030000Y-43260000D02*
X113030000Y-35900228D01*
D35*
X77072500Y-51435000D02*
X77497359Y-51435000D01*
X113030000Y-33627641D02*
X113030000Y-35900228D01*
X80645000Y-48287359D02*
X80645000Y-44450000D01*
D34*
X113030000Y-44918932D02*
X113030000Y-43975000D01*
D35*
X49530000Y-39335000D02*
X59461573Y-39335000D01*
X82679048Y-30985952D02*
X81523679Y-32141321D01*
X111630952Y-30985952D02*
X112151321Y-31506321D01*
X80645000Y-39370000D02*
X80645000Y-40640000D01*
X62423427Y-40640000D02*
X80645000Y-40640000D01*
X79618680Y-50556320D02*
X79766321Y-50408679D01*
X60875787Y-39920787D02*
X61009214Y-40054214D01*
X95885000Y-30107272D02*
X84800369Y-30107272D01*
X80635000Y-39360000D02*
X80645000Y-39370000D01*
D34*
X116010534Y-49970534D02*
X114494466Y-48454466D01*
D35*
X80645000Y-34262641D02*
X80645000Y-44450000D01*
X95885000Y-30107272D02*
X109509631Y-30107272D01*
X60875801Y-39920773D02*
G75*
G03*
X59461573Y-39335000I-1414201J-1414227D01*
G01*
X113029971Y-33627641D02*
G75*
G03*
X112151321Y-31506321I-2999971J41D01*
G01*
X84800369Y-30107259D02*
G75*
G03*
X82679049Y-30985953I31J-3000041D01*
G01*
X77497359Y-51434971D02*
G75*
G03*
X79618680Y-50556320I41J2999971D01*
G01*
X61009200Y-40054228D02*
G75*
G03*
X62423427Y-40640000I1414200J1414228D01*
G01*
D34*
X116010550Y-49970518D02*
G75*
G03*
X119546068Y-51435000I3535550J3535518D01*
G01*
D35*
X81523659Y-32141301D02*
G75*
G03*
X80645000Y-34262641I2121341J-2121299D01*
G01*
X111630942Y-30985962D02*
G75*
G03*
X109509631Y-30107272I-2121342J-2121338D01*
G01*
X79766341Y-50408699D02*
G75*
G03*
X80645000Y-48287359I-2121341J2121299D01*
G01*
D34*
X113029978Y-44918932D02*
G75*
G03*
X114494467Y-48454465I5000022J32D01*
G01*
%TO.N,Net-(U2B-+)*%
X50155000Y-43815000D02*
X77072500Y-43815000D01*
%TO.N,Net-(J2-Pin_2)*%
X35902107Y-60032107D02*
X35803679Y-59933679D01*
X33682359Y-59055000D02*
X28565000Y-59055000D01*
X36195000Y-64135000D02*
X36195000Y-60739214D01*
X36195000Y-64135000D02*
X43180000Y-64135000D01*
X35803699Y-59933659D02*
G75*
G03*
X33682359Y-59055000I-2121299J-2121341D01*
G01*
X36194990Y-60739214D02*
G75*
G03*
X35902107Y-60032107I-999990J14D01*
G01*
%TO.N,Net-(J6-Pin_3)*%
X28825393Y-48637393D02*
X29171107Y-48983107D01*
X50155000Y-64135000D02*
X50155000Y-53843854D01*
X28532500Y-45720000D02*
X28532500Y-47930286D01*
X46176322Y-49276000D02*
X46228000Y-49327678D01*
X48983427Y-51015427D02*
X48415573Y-50447573D01*
X29878214Y-49276000D02*
X46176322Y-49276000D01*
X50154996Y-53843854D02*
G75*
G03*
X48983426Y-51015428I-3999996J4D01*
G01*
X28532510Y-47930286D02*
G75*
G03*
X28825393Y-48637393I999990J-14D01*
G01*
X48415550Y-50447596D02*
G75*
G03*
X45587146Y-49276000I-2828450J-2828404D01*
G01*
X29171100Y-48983114D02*
G75*
G03*
X29878214Y-49276000I707100J707114D01*
G01*
D35*
%TO.N,Net-(J7-Pin_2)*%
X32479820Y-76337320D02*
X28532500Y-72390000D01*
X37455000Y-77216000D02*
X34601141Y-77216000D01*
X32479800Y-76337340D02*
G75*
G03*
X34601141Y-77216000I2121300J2121340D01*
G01*
%TO.N,Net-(J7-Pin_1)*%
X34339213Y-69899213D02*
X32335786Y-67895786D01*
X37455000Y-70485000D02*
X35753427Y-70485000D01*
X30921573Y-67310000D02*
X28532500Y-67310000D01*
X34339199Y-69899227D02*
G75*
G03*
X35753427Y-70485000I1414201J1414227D01*
G01*
X32335800Y-67895772D02*
G75*
G03*
X30921573Y-67310000I-1414200J-1414228D01*
G01*
D34*
%TO.N,Net-(J6-Pin_2)*%
X35680000Y-36737359D02*
X35680000Y-33020000D01*
X33898680Y-39761320D02*
X34801321Y-38858679D01*
X28532500Y-40640000D02*
X31777359Y-40640000D01*
X31777359Y-40639971D02*
G75*
G03*
X33898680Y-39761320I41J2999971D01*
G01*
X34801321Y-38858679D02*
G75*
G03*
X35680000Y-36737359I-2121321J2121319D01*
G01*
%TO.N,Net-(J9-Pin_1)*%
X126365000Y-34290000D02*
X126365000Y-42545000D01*
%TO.N,Net-(C3-Pad1)*%
X90170000Y-53260000D02*
X90170000Y-56491573D01*
X90755787Y-57905787D02*
X91430000Y-58580000D01*
X90170020Y-56491573D02*
G75*
G03*
X90755788Y-57905786I1999980J-27D01*
G01*
D35*
%TO.N,Net-(J12-Pin_1)*%
X31750000Y-137160000D02*
X38735000Y-137160000D01*
D36*
%TO.N,Net-(D3-+)*%
X52326427Y-143766427D02*
X51891573Y-143331573D01*
X53498000Y-157480000D02*
X53498000Y-146594854D01*
X49063146Y-142160000D02*
X38735000Y-142160000D01*
X46738000Y-157480000D02*
X53498000Y-157480000D01*
X51891550Y-143331596D02*
G75*
G03*
X49063146Y-142160000I-2828450J-2828404D01*
G01*
X53497996Y-146594854D02*
G75*
G03*
X52326426Y-143766428I-3999996J4D01*
G01*
D35*
%TO.N,Net-(J11-Pin_1)*%
X31750000Y-147193000D02*
X38702000Y-147193000D01*
X38702000Y-147193000D02*
X38735000Y-147160000D01*
%TO.N,Net-(D11--)*%
X39673213Y-104471787D02*
X39320786Y-104824214D01*
X44962000Y-103886000D02*
X51722000Y-103886000D01*
X44962000Y-103886000D02*
X41087427Y-103886000D01*
X38735000Y-106238427D02*
X38735000Y-107475000D01*
X41087427Y-103886020D02*
G75*
G03*
X39673214Y-104471788I-27J-1999980D01*
G01*
X39320772Y-104824200D02*
G75*
G03*
X38735000Y-106238427I1414228J-1414200D01*
G01*
%TO.N,Net-(J14-Pin_1)*%
X31750000Y-112471200D02*
X38731200Y-112471200D01*
X38731200Y-112471200D02*
X38735000Y-112475000D01*
%TO.N,Net-(D11-+)*%
X44962000Y-111506000D02*
X44962000Y-114450359D01*
X44962000Y-111506000D02*
X51722000Y-111506000D01*
X41937359Y-117475000D02*
X38735000Y-117475000D01*
X44083320Y-116571680D02*
X44058679Y-116596321D01*
X44083320Y-116571680D02*
G75*
G03*
X44962000Y-114450359I-2121320J2121320D01*
G01*
X41937359Y-117474971D02*
G75*
G03*
X44058679Y-116596321I41J2999971D01*
G01*
%TO.N,Net-(J13-Pin_1)*%
X38713400Y-122453400D02*
X38735000Y-122475000D01*
X31750000Y-122453400D02*
X38713400Y-122453400D01*
D37*
%TO.N,Net-(J16-Pin_1)*%
X69723000Y-157355000D02*
X69848000Y-157480000D01*
X69848000Y-157480000D02*
X69848000Y-152751641D01*
X69848000Y-157480000D02*
X63088000Y-157480000D01*
X68969320Y-150630320D02*
X67564000Y-149225000D01*
X69848000Y-157480000D02*
X81594573Y-157480000D01*
X101624000Y-144000000D02*
X101624000Y-137795000D01*
X84963000Y-154940000D02*
X89027146Y-154940000D01*
X91855573Y-153768427D02*
X101624000Y-144000000D01*
X83008787Y-156894213D02*
X84963000Y-154940000D01*
X81594573Y-157479980D02*
G75*
G03*
X83008786Y-156894212I27J1999980D01*
G01*
X89027146Y-154940032D02*
G75*
G03*
X91855573Y-153768427I-46J4000032D01*
G01*
X69847971Y-152751641D02*
G75*
G03*
X68969320Y-150630320I-2999971J41D01*
G01*
D35*
%TO.N,Net-(J10-Pin_3)*%
X68950680Y-126735680D02*
X68971321Y-126756321D01*
X78856680Y-105293320D02*
X79131321Y-105018679D01*
X76792787Y-127042213D02*
X77392214Y-126442786D01*
X72510000Y-127635000D02*
X72517000Y-127628000D01*
X77978000Y-117348000D02*
X77978000Y-110490000D01*
X73660000Y-110965000D02*
X77503000Y-110965000D01*
X72517000Y-127628000D02*
X75378573Y-127628000D01*
X77503000Y-110965000D02*
X77978000Y-110490000D01*
X68072000Y-111506000D02*
X68072000Y-124614359D01*
X77978000Y-125028573D02*
X77978000Y-117348000D01*
X61312000Y-111506000D02*
X68072000Y-111506000D01*
X77978000Y-110490000D02*
X77978000Y-107414641D01*
X71092641Y-127635000D02*
X72510000Y-127635000D01*
X81252641Y-104140000D02*
X83312000Y-104140000D01*
X78856660Y-105293300D02*
G75*
G03*
X77978000Y-107414641I2121340J-2121300D01*
G01*
X81252641Y-104140029D02*
G75*
G03*
X79131321Y-105018679I-41J-2999971D01*
G01*
X68072029Y-124614359D02*
G75*
G03*
X68950680Y-126735680I2999971J-41D01*
G01*
X77392228Y-126442800D02*
G75*
G03*
X77978000Y-125028573I-1414228J1414200D01*
G01*
X68971301Y-126756341D02*
G75*
G03*
X71092641Y-127635000I2121299J2121341D01*
G01*
X75378573Y-127627980D02*
G75*
G03*
X76792786Y-127042212I27J1999980D01*
G01*
D36*
%TO.N,GND2*%
X61773427Y-138608427D02*
X56496573Y-133331573D01*
X78025000Y-139780000D02*
X77317719Y-139780000D01*
X78105000Y-139700000D02*
X78025000Y-139780000D01*
X77317719Y-139780000D02*
X64601854Y-139780000D01*
X81560360Y-141537360D02*
X84963000Y-144940000D01*
X53668146Y-132160000D02*
X38735000Y-132160000D01*
X81560351Y-141537369D02*
G75*
G03*
X77317719Y-139780000I-4242651J-4242631D01*
G01*
X56496550Y-133331596D02*
G75*
G03*
X53668146Y-132160000I-2828450J-2828404D01*
G01*
X61773450Y-138608404D02*
G75*
G03*
X64601854Y-139780000I2828450J2828404D01*
G01*
D38*
%TO.N,Net-(J21-Pin_1)*%
X101624000Y-129032000D02*
X93733000Y-129032000D01*
X101624000Y-122555000D02*
X101624000Y-129032000D01*
D35*
%TO.N,Net-(J10-Pin_2)*%
X73660000Y-100965000D02*
X71821427Y-100965000D01*
X57393680Y-124703680D02*
X58420000Y-125730000D01*
X56515000Y-107287641D02*
X56515000Y-122582359D01*
X88392000Y-104140000D02*
X88392000Y-108264573D01*
X61312000Y-103886000D02*
X68072000Y-103886000D01*
X87453787Y-100153787D02*
X87806214Y-100506214D01*
X73660000Y-100965000D02*
X74471214Y-100153786D01*
X61312000Y-103886000D02*
X59916641Y-103886000D01*
X87806213Y-109678787D02*
X87326786Y-110158214D01*
X85912573Y-110744000D02*
X84455000Y-110744000D01*
X75885427Y-99568000D02*
X86039573Y-99568000D01*
X88392000Y-101920427D02*
X88392000Y-104140000D01*
X70407213Y-101550787D02*
X68072000Y-103886000D01*
X57795320Y-104764680D02*
X57393679Y-105166321D01*
X85912573Y-110743980D02*
G75*
G03*
X87326785Y-110158213I27J1999980D01*
G01*
X71821427Y-100965020D02*
G75*
G03*
X70407214Y-101550788I-27J-1999980D01*
G01*
X57393659Y-105166301D02*
G75*
G03*
X56515000Y-107287641I2121341J-2121299D01*
G01*
X75885427Y-99568020D02*
G75*
G03*
X74471215Y-100153787I-27J-1999980D01*
G01*
X87806227Y-109678801D02*
G75*
G03*
X88392000Y-108264573I-1414227J1414201D01*
G01*
X87453801Y-100153773D02*
G75*
G03*
X86039573Y-99568000I-1414201J-1414227D01*
G01*
X88391980Y-101920427D02*
G75*
G03*
X87806213Y-100506215I-1999980J27D01*
G01*
X59916641Y-103886029D02*
G75*
G03*
X57795320Y-104764680I-41J-2999971D01*
G01*
X56515029Y-122582359D02*
G75*
G03*
X57393680Y-124703680I2999971J-41D01*
G01*
%TD*%
%TA.AperFunction,Conductor*%
%TO.N,GND3*%
G36*
X163460151Y-22877003D02*
G01*
X163580500Y-22926853D01*
X163683846Y-23006154D01*
X163763147Y-23109500D01*
X163812997Y-23229849D01*
X163830000Y-23359000D01*
X163830000Y-26229132D01*
X163810887Y-26365914D01*
X163755013Y-26492218D01*
X163666657Y-26598368D01*
X163552589Y-26676233D01*
X163421546Y-26719848D01*
X163283566Y-26725872D01*
X163149221Y-26693844D01*
X163028800Y-26626217D01*
X162931529Y-26528171D01*
X162926825Y-26521887D01*
X162795855Y-26346931D01*
X162795853Y-26346929D01*
X162795851Y-26346926D01*
X162598573Y-26149648D01*
X162375212Y-25982442D01*
X162130336Y-25848730D01*
X161868924Y-25751228D01*
X161596298Y-25691922D01*
X161506879Y-25685526D01*
X161387658Y-25677000D01*
X159668342Y-25677000D01*
X159564023Y-25684461D01*
X159459701Y-25691922D01*
X159187075Y-25751228D01*
X158925663Y-25848730D01*
X158680787Y-25982442D01*
X158457426Y-26149648D01*
X158260142Y-26346932D01*
X158174119Y-26461846D01*
X158073689Y-26562277D01*
X157949032Y-26630344D01*
X157810248Y-26660535D01*
X157668580Y-26650402D01*
X157535505Y-26600768D01*
X157421804Y-26515652D01*
X157268613Y-26362461D01*
X157268613Y-26362460D01*
X157268609Y-26362457D01*
X157007627Y-26157990D01*
X156804176Y-26035000D01*
X156723906Y-25986475D01*
X156714945Y-25982442D01*
X156421571Y-25850404D01*
X156421572Y-25850404D01*
X156421567Y-25850402D01*
X156105039Y-25751769D01*
X155778941Y-25692009D01*
X155448000Y-25671991D01*
X155117058Y-25692009D01*
X154790960Y-25751769D01*
X154474432Y-25850402D01*
X154172093Y-25986475D01*
X153888377Y-26157987D01*
X153888373Y-26157989D01*
X153888373Y-26157990D01*
X153647207Y-26346932D01*
X153627386Y-26362461D01*
X153392961Y-26596886D01*
X153392957Y-26596890D01*
X153392957Y-26596891D01*
X153369982Y-26626217D01*
X153188487Y-26857877D01*
X153016975Y-27141593D01*
X152880902Y-27443932D01*
X152782269Y-27760460D01*
X152722509Y-28086558D01*
X152707500Y-28334699D01*
X152707500Y-30020301D01*
X152722509Y-30268441D01*
X152782269Y-30594539D01*
X152880904Y-30911071D01*
X152953538Y-31072457D01*
X152986386Y-31172522D01*
X152997500Y-31277253D01*
X152997500Y-34379355D01*
X152988661Y-34472859D01*
X152962311Y-34610986D01*
X152942555Y-34924999D01*
X152962311Y-35239013D01*
X152988661Y-35377141D01*
X152997500Y-35470645D01*
X152997500Y-41736949D01*
X152997505Y-41737125D01*
X152997505Y-41874667D01*
X153030375Y-42334254D01*
X153030376Y-42334260D01*
X153095947Y-42790327D01*
X153193887Y-43240552D01*
X153313786Y-43648896D01*
X153323698Y-43682651D01*
X153412255Y-43920084D01*
X153484720Y-44114371D01*
X153663577Y-44506013D01*
X153676123Y-44533484D01*
X153853834Y-44858939D01*
X153896941Y-44937884D01*
X154112847Y-45273842D01*
X154146046Y-45325500D01*
X154422169Y-45694358D01*
X154677918Y-45989510D01*
X154691019Y-46009696D01*
X154886806Y-46205482D01*
X154886805Y-46205482D01*
X154991618Y-46310295D01*
X154991621Y-46310297D01*
X155016694Y-46335370D01*
X155016693Y-46335370D01*
X155016697Y-46335373D01*
X158374100Y-49692777D01*
X158396423Y-49716611D01*
X158497735Y-49832136D01*
X158537469Y-49883918D01*
X158613735Y-49998058D01*
X158646368Y-50054580D01*
X158700822Y-50165000D01*
X158707084Y-50177698D01*
X158732061Y-50237999D01*
X158776186Y-50367985D01*
X158793081Y-50431035D01*
X158819862Y-50565671D01*
X158828382Y-50630386D01*
X158838352Y-50782506D01*
X158838432Y-50783718D01*
X158839500Y-50816354D01*
X158839500Y-64611648D01*
X158828980Y-64713570D01*
X158797865Y-64811194D01*
X158747467Y-64900401D01*
X158660595Y-65022836D01*
X158660593Y-65022839D01*
X158492146Y-65327621D01*
X158358877Y-65649360D01*
X158262473Y-65983981D01*
X158204140Y-66327309D01*
X158184615Y-66675000D01*
X158204140Y-67022690D01*
X158262473Y-67366018D01*
X158358877Y-67700639D01*
X158358878Y-67700643D01*
X158358879Y-67700644D01*
X158492145Y-68022376D01*
X158660595Y-68327164D01*
X158747467Y-68449598D01*
X158797865Y-68538806D01*
X158828980Y-68636430D01*
X158839500Y-68738352D01*
X158839500Y-71596648D01*
X158828980Y-71698570D01*
X158797865Y-71796194D01*
X158747467Y-71885401D01*
X158660595Y-72007836D01*
X158660593Y-72007839D01*
X158492146Y-72312621D01*
X158358877Y-72634360D01*
X158262473Y-72968981D01*
X158204140Y-73312309D01*
X158184615Y-73659999D01*
X158204140Y-74007690D01*
X158235440Y-74191905D01*
X158256681Y-74316925D01*
X158261862Y-74347415D01*
X158267310Y-74470949D01*
X158242215Y-74592029D01*
X158188118Y-74703222D01*
X158108340Y-74797698D01*
X158007780Y-74869657D01*
X157892613Y-74914679D01*
X157769912Y-74930000D01*
X154305000Y-74930000D01*
X154305000Y-83321000D01*
X154287997Y-83450151D01*
X154238147Y-83570500D01*
X154158846Y-83673846D01*
X154055500Y-83753147D01*
X153935151Y-83802997D01*
X153806000Y-83820000D01*
X40846692Y-83820000D01*
X40717541Y-83802997D01*
X40597192Y-83753147D01*
X40493846Y-83673846D01*
X37903738Y-81083738D01*
X37821547Y-80975318D01*
X37771696Y-80848727D01*
X37757891Y-80713377D01*
X37781158Y-80579328D01*
X37839768Y-80456547D01*
X37929362Y-80354160D01*
X38043282Y-80279779D01*
X38120308Y-80255535D01*
X38119084Y-80251286D01*
X38357319Y-80182650D01*
X38480644Y-80147121D01*
X38802376Y-80013855D01*
X39107164Y-79845405D01*
X39391176Y-79643888D01*
X39650839Y-79411839D01*
X39882888Y-79152176D01*
X40084405Y-78868164D01*
X40252855Y-78563376D01*
X40386121Y-78241644D01*
X40482527Y-77907013D01*
X40540859Y-77563693D01*
X40560385Y-77216000D01*
X40540859Y-76868307D01*
X40482527Y-76524987D01*
X40482526Y-76524981D01*
X40386122Y-76190360D01*
X40386121Y-76190356D01*
X40252855Y-75868624D01*
X40084405Y-75563836D01*
X39946216Y-75369076D01*
X39882888Y-75279823D01*
X39758079Y-75140163D01*
X39650839Y-75020161D01*
X39499809Y-74885192D01*
X39391176Y-74788111D01*
X39181629Y-74639431D01*
X39107164Y-74586595D01*
X39105796Y-74585839D01*
X38802378Y-74418146D01*
X38788392Y-74412353D01*
X38544950Y-74311515D01*
X38432138Y-74246383D01*
X38340027Y-74154272D01*
X38274894Y-74041459D01*
X38241179Y-73915633D01*
X38241179Y-73785367D01*
X38274894Y-73659541D01*
X38340027Y-73546728D01*
X38432138Y-73454617D01*
X38544951Y-73389484D01*
X38802376Y-73282855D01*
X39107164Y-73114405D01*
X39391176Y-72912888D01*
X39650839Y-72680839D01*
X39882888Y-72421176D01*
X40084405Y-72137164D01*
X40252855Y-71832376D01*
X40386121Y-71510644D01*
X40439286Y-71326104D01*
X40482526Y-71176018D01*
X40493806Y-71109627D01*
X40540859Y-70832693D01*
X40560385Y-70485000D01*
X40540859Y-70137307D01*
X40482527Y-69793987D01*
X40482526Y-69793981D01*
X40386122Y-69459360D01*
X40386122Y-69459359D01*
X40386121Y-69459356D01*
X40252855Y-69137624D01*
X40084405Y-68832836D01*
X39922361Y-68604456D01*
X39882888Y-68548823D01*
X39725922Y-68373179D01*
X39650839Y-68289161D01*
X39430629Y-68092369D01*
X39391176Y-68057111D01*
X39185594Y-67911244D01*
X39107164Y-67855595D01*
X38802376Y-67687145D01*
X38742953Y-67662531D01*
X38480641Y-67553877D01*
X38234438Y-67482947D01*
X38107095Y-67425964D01*
X38000503Y-67335955D01*
X37922996Y-67219955D01*
X37880631Y-67087031D01*
X37876719Y-66947575D01*
X37911567Y-66812486D01*
X37982451Y-66692323D01*
X38083826Y-66596483D01*
X38131176Y-66562888D01*
X38131691Y-66562427D01*
X38138515Y-66557680D01*
X38154037Y-66546668D01*
X38154139Y-66546812D01*
X38231033Y-66493328D01*
X38344086Y-66450173D01*
X38464202Y-66435500D01*
X40910798Y-66435500D01*
X41030914Y-66450173D01*
X41143967Y-66493328D01*
X41220864Y-66546816D01*
X41220968Y-66546671D01*
X41236503Y-66557694D01*
X41243308Y-66562427D01*
X41243823Y-66562888D01*
X41293452Y-66598101D01*
X41527836Y-66764405D01*
X41832624Y-66932855D01*
X42154356Y-67066121D01*
X42212241Y-67082797D01*
X42488981Y-67162526D01*
X42488987Y-67162527D01*
X42832307Y-67220859D01*
X43180000Y-67240385D01*
X43527693Y-67220859D01*
X43871013Y-67162527D01*
X43871014Y-67162526D01*
X43871018Y-67162526D01*
X44038328Y-67114323D01*
X44205644Y-67066121D01*
X44527376Y-66932855D01*
X44832164Y-66764405D01*
X45116176Y-66562888D01*
X45375839Y-66330839D01*
X45607888Y-66071176D01*
X45809405Y-65787164D01*
X45977855Y-65482376D01*
X46111121Y-65160644D01*
X46188003Y-64893781D01*
X46239134Y-64775989D01*
X46318635Y-64675143D01*
X46421240Y-64597925D01*
X46540153Y-64549449D01*
X46667500Y-64532926D01*
X46794847Y-64549449D01*
X46913760Y-64597925D01*
X47016365Y-64675143D01*
X47095866Y-64775989D01*
X47146996Y-64893781D01*
X47188218Y-65036863D01*
X47223880Y-65160647D01*
X47357146Y-65482378D01*
X47449433Y-65649360D01*
X47525595Y-65787164D01*
X47545353Y-65815010D01*
X47727111Y-66071176D01*
X47818327Y-66173246D01*
X47959161Y-66330839D01*
X48009287Y-66375634D01*
X48218823Y-66562888D01*
X48268452Y-66598101D01*
X48502836Y-66764405D01*
X48807624Y-66932855D01*
X49129356Y-67066121D01*
X49187241Y-67082797D01*
X49463981Y-67162526D01*
X49463987Y-67162527D01*
X49807307Y-67220859D01*
X50155000Y-67240385D01*
X50502693Y-67220859D01*
X50846013Y-67162527D01*
X50846014Y-67162526D01*
X50846018Y-67162526D01*
X51013328Y-67114323D01*
X51180644Y-67066121D01*
X51502376Y-66932855D01*
X51807164Y-66764405D01*
X52091176Y-66562888D01*
X52350839Y-66330839D01*
X52582888Y-66071176D01*
X52784405Y-65787164D01*
X52952855Y-65482376D01*
X53086121Y-65160644D01*
X53161095Y-64900405D01*
X53182526Y-64826018D01*
X53229353Y-64550415D01*
X53271719Y-64417492D01*
X53349227Y-64301493D01*
X53455819Y-64211485D01*
X53583162Y-64154502D01*
X53721303Y-64135000D01*
X56072290Y-64135000D01*
X56158940Y-64142581D01*
X56242953Y-64165091D01*
X56345446Y-64202396D01*
X56662874Y-64277628D01*
X56986889Y-64315500D01*
X57313110Y-64315500D01*
X57313111Y-64315500D01*
X57637126Y-64277628D01*
X57954554Y-64202396D01*
X58261101Y-64090822D01*
X58552623Y-63944414D01*
X58825177Y-63765153D01*
X59075077Y-63555462D01*
X59298943Y-63318177D01*
X59493749Y-63056508D01*
X59656859Y-62773992D01*
X59786069Y-62474451D01*
X59879630Y-62161934D01*
X59936278Y-61840669D01*
X59955246Y-61515000D01*
X59936278Y-61189331D01*
X59879630Y-60868066D01*
X59786069Y-60555549D01*
X59656859Y-60256008D01*
X59493749Y-59973492D01*
X59349256Y-59779405D01*
X59298942Y-59711821D01*
X59075076Y-59474537D01*
X58825177Y-59264847D01*
X58552626Y-59085588D01*
X58552623Y-59085586D01*
X58261101Y-58939178D01*
X57954554Y-58827604D01*
X57954552Y-58827603D01*
X57954548Y-58827602D01*
X57637127Y-58752372D01*
X57475118Y-58733436D01*
X57313111Y-58714500D01*
X56986889Y-58714500D01*
X56922086Y-58722074D01*
X56662870Y-58752372D01*
X56494077Y-58792377D01*
X56366559Y-58805673D01*
X56239863Y-58786038D01*
X56122351Y-58734768D01*
X56021782Y-58655248D01*
X55944795Y-58552728D01*
X55896470Y-58433975D01*
X55880000Y-58306828D01*
X55880000Y-54723172D01*
X55896470Y-54596025D01*
X55944795Y-54477272D01*
X56021782Y-54374752D01*
X56122351Y-54295232D01*
X56239863Y-54243962D01*
X56366559Y-54224327D01*
X56494077Y-54237623D01*
X56651514Y-54274935D01*
X56662874Y-54277628D01*
X56986889Y-54315500D01*
X57313110Y-54315500D01*
X57313111Y-54315500D01*
X57637126Y-54277628D01*
X57954554Y-54202396D01*
X58261101Y-54090822D01*
X58552623Y-53944414D01*
X58825177Y-53765153D01*
X59075077Y-53555462D01*
X59298943Y-53318177D01*
X59493749Y-53056508D01*
X59656859Y-52773992D01*
X59786069Y-52474451D01*
X59879630Y-52161934D01*
X59936278Y-51840669D01*
X59955246Y-51515000D01*
X59936278Y-51189331D01*
X59879630Y-50868066D01*
X59786069Y-50555549D01*
X59656859Y-50256008D01*
X59517350Y-50014370D01*
X59467503Y-49894026D01*
X59450500Y-49764876D01*
X59450500Y-49154500D01*
X59467503Y-49025349D01*
X59517353Y-48905000D01*
X59596654Y-48801654D01*
X59700000Y-48722353D01*
X59820349Y-48672503D01*
X59949500Y-48655500D01*
X60680220Y-48655500D01*
X60810658Y-48672850D01*
X60932025Y-48723693D01*
X61035883Y-48804493D01*
X61115008Y-48909632D01*
X61163899Y-49031799D01*
X61179156Y-49162498D01*
X61159718Y-49292642D01*
X61107472Y-49473989D01*
X61049140Y-49817309D01*
X61029615Y-50164999D01*
X61049140Y-50512690D01*
X61107473Y-50856018D01*
X61203877Y-51190639D01*
X61203878Y-51190643D01*
X61203879Y-51190644D01*
X61319239Y-51469148D01*
X61337146Y-51512378D01*
X61467931Y-51749017D01*
X61505595Y-51817164D01*
X61535388Y-51859153D01*
X61707111Y-52101176D01*
X61797107Y-52201881D01*
X61939161Y-52360839D01*
X62028332Y-52440527D01*
X62198823Y-52592888D01*
X62286843Y-52655341D01*
X62482836Y-52794405D01*
X62787624Y-52962855D01*
X63109356Y-53096121D01*
X63167241Y-53112797D01*
X63443981Y-53192526D01*
X63443987Y-53192527D01*
X63787307Y-53250859D01*
X64135000Y-53270385D01*
X64482693Y-53250859D01*
X64826013Y-53192527D01*
X64826014Y-53192526D01*
X64826018Y-53192526D01*
X64993328Y-53144323D01*
X65160644Y-53096121D01*
X65482376Y-52962855D01*
X65787164Y-52794405D01*
X66071176Y-52592888D01*
X66330839Y-52360839D01*
X66562888Y-52101176D01*
X66764405Y-51817164D01*
X66932855Y-51512376D01*
X67066121Y-51190644D01*
X67084503Y-51126838D01*
X67135634Y-51009046D01*
X67215135Y-50908200D01*
X67317740Y-50830982D01*
X67436653Y-50782506D01*
X67564000Y-50765983D01*
X67691347Y-50782506D01*
X67810260Y-50830982D01*
X67912865Y-50908200D01*
X67992366Y-51009046D01*
X68043498Y-51126841D01*
X68061880Y-51190647D01*
X68195146Y-51512378D01*
X68230585Y-51576500D01*
X68363595Y-51817164D01*
X68450467Y-51939598D01*
X68500865Y-52028806D01*
X68531980Y-52126430D01*
X68542500Y-52228352D01*
X68542500Y-52619450D01*
X68542466Y-52619708D01*
X68542469Y-53056557D01*
X68575345Y-53516140D01*
X68640923Y-53972211D01*
X68738869Y-54422443D01*
X68867207Y-54859500D01*
X68868686Y-54864536D01*
X68909477Y-54973897D01*
X69029708Y-55296239D01*
X69221124Y-55715372D01*
X69441945Y-56119765D01*
X69691052Y-56507377D01*
X69949281Y-56852323D01*
X69967180Y-56876233D01*
X70047863Y-56969344D01*
X70268914Y-57224447D01*
X70417468Y-57372998D01*
X70417472Y-57373002D01*
X70821963Y-57777494D01*
X70822699Y-57778185D01*
X70918575Y-57874062D01*
X71266616Y-58175647D01*
X71266787Y-58175795D01*
X71635641Y-58451920D01*
X72023253Y-58701029D01*
X72023257Y-58701031D01*
X72427641Y-58921847D01*
X72427645Y-58921848D01*
X72427649Y-58921851D01*
X72846768Y-59113261D01*
X73278474Y-59274283D01*
X73720567Y-59404099D01*
X73874097Y-59437499D01*
X74170795Y-59502045D01*
X74626863Y-59567622D01*
X75086444Y-59600498D01*
X75086447Y-59600498D01*
X75114521Y-59600498D01*
X75114543Y-59600500D01*
X75159527Y-59600500D01*
X75316825Y-59600500D01*
X75316826Y-59600500D01*
X75465054Y-59600502D01*
X75465063Y-59600500D01*
X75496100Y-59600501D01*
X75496133Y-59600500D01*
X75714148Y-59600500D01*
X75816070Y-59611020D01*
X75913694Y-59642135D01*
X76002901Y-59692532D01*
X76125336Y-59779405D01*
X76430124Y-59947855D01*
X76751856Y-60081121D01*
X76809741Y-60097797D01*
X77086481Y-60177526D01*
X77086487Y-60177527D01*
X77429807Y-60235859D01*
X77777500Y-60255385D01*
X78125193Y-60235859D01*
X78468513Y-60177527D01*
X78468514Y-60177526D01*
X78468518Y-60177526D01*
X78679081Y-60116863D01*
X78803144Y-60081121D01*
X79124876Y-59947855D01*
X79429664Y-59779405D01*
X79713676Y-59577888D01*
X79973339Y-59345839D01*
X80205388Y-59086176D01*
X80406905Y-58802164D01*
X80575355Y-58497376D01*
X80708621Y-58175644D01*
X80790502Y-57891426D01*
X80841634Y-57773634D01*
X80921135Y-57672788D01*
X81023740Y-57595570D01*
X81142653Y-57547094D01*
X81270000Y-57530571D01*
X81397347Y-57547094D01*
X81516260Y-57595570D01*
X81618865Y-57672788D01*
X81698366Y-57773634D01*
X81749497Y-57891426D01*
X81826781Y-58159684D01*
X81831380Y-58175647D01*
X81844154Y-58206485D01*
X81955903Y-58476272D01*
X81964646Y-58497378D01*
X82115737Y-58770758D01*
X82133095Y-58802164D01*
X82151146Y-58827604D01*
X82334611Y-59086176D01*
X82394645Y-59153353D01*
X82566661Y-59345839D01*
X82668848Y-59437159D01*
X82826323Y-59577888D01*
X82956530Y-59670274D01*
X83110336Y-59779405D01*
X83415124Y-59947855D01*
X83736856Y-60081121D01*
X83794741Y-60097797D01*
X84071481Y-60177526D01*
X84071487Y-60177527D01*
X84414807Y-60235859D01*
X84762500Y-60255385D01*
X85110193Y-60235859D01*
X85453513Y-60177527D01*
X85453514Y-60177526D01*
X85453518Y-60177526D01*
X85664081Y-60116863D01*
X85788144Y-60081121D01*
X86109876Y-59947855D01*
X86414664Y-59779405D01*
X86698676Y-59577888D01*
X86958339Y-59345839D01*
X87190388Y-59086176D01*
X87391905Y-58802164D01*
X87525310Y-58560783D01*
X87603471Y-58455138D01*
X87706508Y-58373559D01*
X87827270Y-58321709D01*
X87957380Y-58303186D01*
X88087814Y-58319274D01*
X88209524Y-58368857D01*
X88314067Y-58448497D01*
X88394192Y-58552667D01*
X88539533Y-58804410D01*
X88714993Y-59055000D01*
X88732523Y-59080035D01*
X88771673Y-59146296D01*
X88800168Y-59217790D01*
X88900373Y-59539363D01*
X89034456Y-59837282D01*
X89203468Y-60116860D01*
X89203470Y-60116863D01*
X89250997Y-60177527D01*
X89404953Y-60374038D01*
X89635961Y-60605046D01*
X89710911Y-60663765D01*
X89893137Y-60806530D01*
X89905974Y-60814290D01*
X90172717Y-60975543D01*
X90172719Y-60975544D01*
X90172721Y-60975545D01*
X90280926Y-61024244D01*
X90470636Y-61109626D01*
X90470638Y-61109626D01*
X90470639Y-61109627D01*
X90782547Y-61206821D01*
X91103896Y-61265710D01*
X91430000Y-61285436D01*
X91756104Y-61265710D01*
X92077453Y-61206821D01*
X92389361Y-61109627D01*
X92687279Y-60975545D01*
X92966863Y-60806530D01*
X93224036Y-60605048D01*
X93455048Y-60374036D01*
X93656530Y-60116863D01*
X93825545Y-59837279D01*
X93959627Y-59539361D01*
X94056821Y-59227453D01*
X94115710Y-58906104D01*
X94135436Y-58580000D01*
X94115710Y-58253896D01*
X94056821Y-57932547D01*
X93959627Y-57620639D01*
X93959625Y-57620636D01*
X93950647Y-57591822D01*
X93951098Y-57591681D01*
X93925447Y-57509364D01*
X93918185Y-57389287D01*
X93939869Y-57270962D01*
X93980000Y-57181796D01*
X93980000Y-55109000D01*
X93997003Y-54979849D01*
X94046853Y-54859500D01*
X94126154Y-54756154D01*
X94229500Y-54676853D01*
X94349849Y-54627003D01*
X94479000Y-54610000D01*
X96487786Y-54610000D01*
X96589706Y-54620519D01*
X96687330Y-54651634D01*
X96748211Y-54686028D01*
X96748310Y-54685850D01*
X96772835Y-54699404D01*
X96772836Y-54699405D01*
X97077624Y-54867855D01*
X97399356Y-55001121D01*
X97457241Y-55017797D01*
X97733981Y-55097526D01*
X97733987Y-55097527D01*
X98077307Y-55155859D01*
X98425000Y-55175385D01*
X98772693Y-55155859D01*
X99116013Y-55097527D01*
X99116014Y-55097526D01*
X99116018Y-55097526D01*
X99283328Y-55049324D01*
X99450644Y-55001121D01*
X99772376Y-54867855D01*
X100077164Y-54699405D01*
X100077164Y-54699404D01*
X100101690Y-54685850D01*
X100101788Y-54686028D01*
X100162670Y-54651634D01*
X100260294Y-54620519D01*
X100362214Y-54610000D01*
X103218786Y-54610000D01*
X103320706Y-54620519D01*
X103418330Y-54651634D01*
X103479211Y-54686028D01*
X103479310Y-54685850D01*
X103503835Y-54699404D01*
X103503836Y-54699405D01*
X103808624Y-54867855D01*
X104130356Y-55001121D01*
X104188241Y-55017797D01*
X104464981Y-55097526D01*
X104464987Y-55097527D01*
X104808307Y-55155859D01*
X105156000Y-55175385D01*
X105503693Y-55155859D01*
X105847013Y-55097527D01*
X105847014Y-55097526D01*
X105847018Y-55097526D01*
X106014328Y-55049324D01*
X106181644Y-55001121D01*
X106503376Y-54867855D01*
X106808164Y-54699405D01*
X106808164Y-54699404D01*
X106832690Y-54685850D01*
X106832788Y-54686028D01*
X106893670Y-54651634D01*
X106991294Y-54620519D01*
X107093214Y-54610000D01*
X108299869Y-54610000D01*
X108429019Y-54627003D01*
X108549368Y-54676853D01*
X108652711Y-54756150D01*
X108756063Y-54859500D01*
X108766884Y-54870321D01*
X109083597Y-55140814D01*
X109379517Y-55355807D01*
X109420574Y-55385636D01*
X109775715Y-55603262D01*
X110146836Y-55792352D01*
X110531649Y-55951742D01*
X110531652Y-55951743D01*
X110531657Y-55951745D01*
X110736167Y-56018191D01*
X110927782Y-56080448D01*
X111332791Y-56177677D01*
X111400099Y-56188336D01*
X111493340Y-56212516D01*
X111580187Y-56254153D01*
X111772721Y-56370545D01*
X111772723Y-56370546D01*
X111772725Y-56370547D01*
X112070636Y-56504626D01*
X112070638Y-56504626D01*
X112070639Y-56504627D01*
X112382547Y-56601821D01*
X112703896Y-56660710D01*
X113030000Y-56680436D01*
X113356104Y-56660710D01*
X113677453Y-56601821D01*
X113989361Y-56504627D01*
X114287279Y-56370545D01*
X114325456Y-56347465D01*
X114449611Y-56293828D01*
X114583609Y-56275500D01*
X115925220Y-56275500D01*
X116055658Y-56292850D01*
X116177025Y-56343693D01*
X116280883Y-56424493D01*
X116360008Y-56529632D01*
X116408899Y-56651799D01*
X116424156Y-56782498D01*
X116404718Y-56912642D01*
X116352472Y-57093989D01*
X116294140Y-57437309D01*
X116274615Y-57785000D01*
X116294140Y-58132690D01*
X116352473Y-58476018D01*
X116448877Y-58810639D01*
X116582146Y-59132378D01*
X116732320Y-59404099D01*
X116750595Y-59437164D01*
X116821904Y-59537665D01*
X116952111Y-59721176D01*
X117074651Y-59858298D01*
X117184161Y-59980839D01*
X117282733Y-60068928D01*
X117443829Y-60212893D01*
X117557484Y-60293535D01*
X117658862Y-60389378D01*
X117729744Y-60509540D01*
X117764590Y-60644629D01*
X117760678Y-60784085D01*
X117718312Y-60917008D01*
X117640804Y-61033007D01*
X117534212Y-61123015D01*
X117406869Y-61179998D01*
X117268728Y-61199500D01*
X113821609Y-61199500D01*
X113687611Y-61181172D01*
X113563456Y-61127534D01*
X113525278Y-61104454D01*
X113227363Y-60970373D01*
X112915454Y-60873179D01*
X112594104Y-60814290D01*
X112268000Y-60794564D01*
X111941895Y-60814290D01*
X111620545Y-60873179D01*
X111308636Y-60970373D01*
X111010721Y-61104454D01*
X110972544Y-61127534D01*
X110848389Y-61181172D01*
X110714391Y-61199500D01*
X98373551Y-61199500D01*
X98373285Y-61199465D01*
X97941801Y-61199470D01*
X97492905Y-61231581D01*
X97047440Y-61295634D01*
X96607677Y-61391303D01*
X96175866Y-61518100D01*
X95754192Y-61675381D01*
X95344830Y-61862335D01*
X94949820Y-62078031D01*
X94571226Y-62321343D01*
X94210953Y-62591046D01*
X93870824Y-62885775D01*
X93734214Y-63022386D01*
X93734211Y-63022391D01*
X90899841Y-65856759D01*
X90805147Y-65930948D01*
X90695450Y-65980318D01*
X90470642Y-66050371D01*
X90172721Y-66184454D01*
X90134544Y-66207534D01*
X90010389Y-66261172D01*
X89876391Y-66279500D01*
X74761551Y-66279500D01*
X74761285Y-66279465D01*
X74329801Y-66279470D01*
X73880905Y-66311581D01*
X73435440Y-66375634D01*
X72995677Y-66471303D01*
X72563866Y-66598100D01*
X72142192Y-66755381D01*
X71732825Y-66942337D01*
X71337833Y-67158024D01*
X71103610Y-67308552D01*
X70987787Y-67363422D01*
X70861809Y-67386982D01*
X70645308Y-67399140D01*
X70301981Y-67457473D01*
X69967360Y-67553877D01*
X69645621Y-67687146D01*
X69340840Y-67855592D01*
X69056823Y-68057111D01*
X68797161Y-68289161D01*
X68565111Y-68548823D01*
X68363592Y-68832840D01*
X68195146Y-69137621D01*
X68061877Y-69459359D01*
X68043497Y-69523159D01*
X67992365Y-69640954D01*
X67912864Y-69741800D01*
X67810260Y-69819017D01*
X67691347Y-69867493D01*
X67564000Y-69884016D01*
X67436653Y-69867493D01*
X67317740Y-69819017D01*
X67215136Y-69741800D01*
X67135635Y-69640954D01*
X67084503Y-69523159D01*
X67066122Y-69459359D01*
X67065923Y-69458879D01*
X66932855Y-69137624D01*
X66764405Y-68832836D01*
X66602361Y-68604456D01*
X66562888Y-68548823D01*
X66405922Y-68373179D01*
X66330839Y-68289161D01*
X66110629Y-68092369D01*
X66071176Y-68057111D01*
X65865594Y-67911244D01*
X65787164Y-67855595D01*
X65482376Y-67687145D01*
X65160644Y-67553879D01*
X65160643Y-67553878D01*
X65160639Y-67553877D01*
X64826018Y-67457473D01*
X64482690Y-67399140D01*
X64135000Y-67379615D01*
X63787309Y-67399140D01*
X63443981Y-67457473D01*
X63109360Y-67553877D01*
X62787621Y-67687146D01*
X62482839Y-67855593D01*
X62482836Y-67855594D01*
X62482836Y-67855595D01*
X62360401Y-67942467D01*
X62271194Y-67992865D01*
X62173570Y-68023980D01*
X62071648Y-68034500D01*
X59838352Y-68034500D01*
X59736430Y-68023980D01*
X59638806Y-67992865D01*
X59549598Y-67942467D01*
X59427164Y-67855595D01*
X59122376Y-67687145D01*
X58800644Y-67553879D01*
X58800643Y-67553878D01*
X58800639Y-67553877D01*
X58466018Y-67457473D01*
X58122690Y-67399140D01*
X57775000Y-67379615D01*
X57427309Y-67399140D01*
X57083981Y-67457473D01*
X56749360Y-67553877D01*
X56427621Y-67687146D01*
X56122840Y-67855592D01*
X55838823Y-68057111D01*
X55579161Y-68289161D01*
X55347111Y-68548823D01*
X55145592Y-68832840D01*
X54977146Y-69137621D01*
X54843877Y-69459360D01*
X54747473Y-69793981D01*
X54689140Y-70137309D01*
X54669615Y-70484999D01*
X54689140Y-70832690D01*
X54747473Y-71176018D01*
X54843877Y-71510639D01*
X54843878Y-71510643D01*
X54843879Y-71510644D01*
X54912260Y-71675731D01*
X54977146Y-71832378D01*
X55002666Y-71878553D01*
X55145595Y-72137164D01*
X55232467Y-72259598D01*
X55282865Y-72348806D01*
X55313980Y-72446430D01*
X55324500Y-72548352D01*
X55324500Y-75152648D01*
X55313980Y-75254570D01*
X55282865Y-75352194D01*
X55232467Y-75441401D01*
X55166890Y-75533824D01*
X55145593Y-75563839D01*
X54977146Y-75868621D01*
X54843877Y-76190360D01*
X54747473Y-76524981D01*
X54689140Y-76868309D01*
X54669615Y-77216000D01*
X54689140Y-77563690D01*
X54747473Y-77907018D01*
X54843877Y-78241639D01*
X54843878Y-78241643D01*
X54843879Y-78241644D01*
X54949089Y-78495644D01*
X54977146Y-78563378D01*
X55117526Y-78817378D01*
X55145595Y-78868164D01*
X55216904Y-78968665D01*
X55347111Y-79152176D01*
X55422085Y-79236071D01*
X55579161Y-79411839D01*
X55639686Y-79465927D01*
X55838823Y-79643888D01*
X55969030Y-79736274D01*
X56122836Y-79845405D01*
X56427624Y-80013855D01*
X56749356Y-80147121D01*
X56807241Y-80163797D01*
X57083981Y-80243526D01*
X57083987Y-80243527D01*
X57427307Y-80301859D01*
X57775000Y-80321385D01*
X58122693Y-80301859D01*
X58466013Y-80243527D01*
X58466014Y-80243526D01*
X58466018Y-80243526D01*
X58633328Y-80195324D01*
X58800644Y-80147121D01*
X59122376Y-80013855D01*
X59178633Y-79982762D01*
X59295370Y-79936316D01*
X59420008Y-79920500D01*
X61957848Y-79920500D01*
X62072605Y-79933875D01*
X62181210Y-79973282D01*
X62277841Y-80036609D01*
X62357319Y-80120462D01*
X62492145Y-80300570D01*
X62689426Y-80497851D01*
X62689429Y-80497853D01*
X62689431Y-80497855D01*
X62792998Y-80575384D01*
X62912787Y-80665057D01*
X63157663Y-80798769D01*
X63419075Y-80896271D01*
X63589795Y-80933408D01*
X63691705Y-80955578D01*
X63900342Y-80970500D01*
X65619654Y-80970500D01*
X65619658Y-80970500D01*
X65828295Y-80955578D01*
X66100924Y-80896271D01*
X66362337Y-80798769D01*
X66607214Y-80665056D01*
X66830569Y-80497855D01*
X67027855Y-80300569D01*
X67113879Y-80185653D01*
X67198263Y-80097754D01*
X67301436Y-80032925D01*
X67417246Y-79995035D01*
X67538786Y-79986342D01*
X67658809Y-80007365D01*
X67770159Y-80056850D01*
X67866195Y-80131847D01*
X68019391Y-80285043D01*
X68280373Y-80489510D01*
X68564098Y-80661027D01*
X68866429Y-80797096D01*
X68866431Y-80797096D01*
X68866432Y-80797097D01*
X69182960Y-80895730D01*
X69509058Y-80955490D01*
X69509060Y-80955490D01*
X69509065Y-80955491D01*
X69840000Y-80975509D01*
X70170935Y-80955491D01*
X70170940Y-80955490D01*
X70170941Y-80955490D01*
X70497039Y-80895730D01*
X70497041Y-80895729D01*
X70497043Y-80895729D01*
X70813571Y-80797096D01*
X71115902Y-80661027D01*
X71399627Y-80489510D01*
X71660609Y-80285043D01*
X71895043Y-80050609D01*
X71964655Y-79961755D01*
X72043818Y-79881388D01*
X72139012Y-79820855D01*
X72245371Y-79783252D01*
X72357458Y-79770500D01*
X75508298Y-79770500D01*
X75628414Y-79785173D01*
X75741467Y-79828328D01*
X75818364Y-79881816D01*
X75818468Y-79881671D01*
X75834003Y-79892694D01*
X75840808Y-79897427D01*
X75841323Y-79897888D01*
X75895483Y-79936316D01*
X76125336Y-80099405D01*
X76430124Y-80267855D01*
X76751856Y-80401121D01*
X76809741Y-80417797D01*
X77086481Y-80497526D01*
X77086487Y-80497527D01*
X77429807Y-80555859D01*
X77777500Y-80575385D01*
X78125193Y-80555859D01*
X78468513Y-80497527D01*
X78468514Y-80497526D01*
X78468518Y-80497526D01*
X78635828Y-80449324D01*
X78803144Y-80401121D01*
X79124876Y-80267855D01*
X79429664Y-80099405D01*
X79713676Y-79897888D01*
X79973339Y-79665839D01*
X80205388Y-79406176D01*
X80406905Y-79122164D01*
X80575355Y-78817376D01*
X80708621Y-78495644D01*
X80790502Y-78211426D01*
X80841634Y-78093634D01*
X80921135Y-77992788D01*
X81023740Y-77915570D01*
X81142653Y-77867094D01*
X81270000Y-77850571D01*
X81397347Y-77867094D01*
X81516260Y-77915570D01*
X81618865Y-77992788D01*
X81698366Y-78093634D01*
X81749498Y-78211429D01*
X81831380Y-78495647D01*
X81964646Y-78817378D01*
X82133091Y-79122158D01*
X82133095Y-79122164D01*
X82154390Y-79152176D01*
X82334611Y-79406176D01*
X82452776Y-79538402D01*
X82566661Y-79665839D01*
X82683777Y-79770500D01*
X82826323Y-79897888D01*
X82880483Y-79936316D01*
X83110336Y-80099405D01*
X83415124Y-80267855D01*
X83736856Y-80401121D01*
X83794741Y-80417797D01*
X84071481Y-80497526D01*
X84071487Y-80497527D01*
X84414807Y-80555859D01*
X84762500Y-80575385D01*
X85110193Y-80555859D01*
X85453513Y-80497527D01*
X85453514Y-80497526D01*
X85453518Y-80497526D01*
X85620828Y-80449324D01*
X85788144Y-80401121D01*
X86109876Y-80267855D01*
X86414664Y-80099405D01*
X86698676Y-79897888D01*
X86958339Y-79665839D01*
X87190388Y-79406176D01*
X87391905Y-79122164D01*
X87560355Y-78817376D01*
X87693621Y-78495644D01*
X87741824Y-78328328D01*
X87790026Y-78161018D01*
X87839965Y-77867094D01*
X87848359Y-77817693D01*
X87867885Y-77470000D01*
X87848359Y-77122307D01*
X87790027Y-76778987D01*
X87790026Y-76778981D01*
X87693622Y-76444360D01*
X87693621Y-76444356D01*
X87560355Y-76122624D01*
X87391905Y-75817836D01*
X87233739Y-75594921D01*
X87190388Y-75533823D01*
X87063000Y-75391277D01*
X86958339Y-75274161D01*
X86808393Y-75140161D01*
X86698676Y-75042111D01*
X86480455Y-74887276D01*
X86414664Y-74840595D01*
X86376564Y-74819538D01*
X86109878Y-74672146D01*
X86105904Y-74670500D01*
X85788144Y-74538879D01*
X85788143Y-74538878D01*
X85788139Y-74538877D01*
X85453518Y-74442473D01*
X85110190Y-74384140D01*
X84762500Y-74364615D01*
X84414809Y-74384140D01*
X84071481Y-74442473D01*
X83736860Y-74538877D01*
X83415121Y-74672146D01*
X83110340Y-74840592D01*
X82826323Y-75042111D01*
X82566661Y-75274161D01*
X82334611Y-75533823D01*
X82133092Y-75817840D01*
X81964646Y-76122621D01*
X81831376Y-76444360D01*
X81749497Y-76728570D01*
X81698365Y-76846366D01*
X81618865Y-76947211D01*
X81516260Y-77024429D01*
X81397347Y-77072905D01*
X81270000Y-77089428D01*
X81142653Y-77072905D01*
X81023740Y-77024429D01*
X80921135Y-76947211D01*
X80841635Y-76846366D01*
X80790503Y-76728570D01*
X80708623Y-76444360D01*
X80603412Y-76190360D01*
X80575355Y-76122624D01*
X80406905Y-75817836D01*
X80248739Y-75594921D01*
X80205388Y-75533823D01*
X80078000Y-75391277D01*
X79973339Y-75274161D01*
X79823393Y-75140161D01*
X79713676Y-75042111D01*
X79495455Y-74887276D01*
X79429664Y-74840595D01*
X79391564Y-74819538D01*
X79124878Y-74672146D01*
X79120904Y-74670500D01*
X78803144Y-74538879D01*
X78803143Y-74538878D01*
X78803139Y-74538877D01*
X78468518Y-74442473D01*
X78125190Y-74384140D01*
X77777500Y-74364615D01*
X77429809Y-74384140D01*
X77086481Y-74442473D01*
X76751860Y-74538877D01*
X76430121Y-74672146D01*
X76125340Y-74840592D01*
X75841323Y-75042111D01*
X75840808Y-75042573D01*
X75834003Y-75047305D01*
X75818468Y-75058329D01*
X75818364Y-75058183D01*
X75741467Y-75111672D01*
X75628414Y-75154827D01*
X75508298Y-75169500D01*
X72639500Y-75169500D01*
X72510349Y-75152497D01*
X72390000Y-75102647D01*
X72286654Y-75023346D01*
X72207353Y-74920000D01*
X72157503Y-74799651D01*
X72140500Y-74670500D01*
X72140500Y-73687676D01*
X72158112Y-73556274D01*
X72209705Y-73434147D01*
X72291636Y-73329916D01*
X72398123Y-73250940D01*
X72481980Y-73204593D01*
X72645164Y-73114405D01*
X72929176Y-72912888D01*
X73188839Y-72680839D01*
X73420888Y-72421176D01*
X73622405Y-72137164D01*
X73790855Y-71832376D01*
X73924121Y-71510644D01*
X73999979Y-71247336D01*
X74047795Y-71135174D01*
X74121389Y-71037953D01*
X74216365Y-70961483D01*
X74327051Y-70910331D01*
X74446825Y-70887551D01*
X74538111Y-70881567D01*
X74570726Y-70880500D01*
X89876391Y-70880500D01*
X90010389Y-70898828D01*
X90134543Y-70952465D01*
X90149460Y-70961483D01*
X90172721Y-70975545D01*
X90470636Y-71109626D01*
X90470638Y-71109626D01*
X90470639Y-71109627D01*
X90782547Y-71206821D01*
X91103896Y-71265710D01*
X91430000Y-71285436D01*
X91756104Y-71265710D01*
X92077453Y-71206821D01*
X92389361Y-71109627D01*
X92687279Y-70975545D01*
X92966863Y-70806530D01*
X93224036Y-70605048D01*
X93455048Y-70374036D01*
X93656530Y-70116863D01*
X93825545Y-69837279D01*
X93959627Y-69539361D01*
X94029681Y-69314545D01*
X94079051Y-69204851D01*
X94153236Y-69110160D01*
X96827851Y-66435545D01*
X96827873Y-66435528D01*
X96953582Y-66309817D01*
X96977414Y-66287495D01*
X97007429Y-66261172D01*
X97107695Y-66173239D01*
X97159466Y-66133513D01*
X97289929Y-66046338D01*
X97346439Y-66013711D01*
X97487192Y-65944298D01*
X97547457Y-65919335D01*
X97696046Y-65868894D01*
X97759075Y-65852004D01*
X97912981Y-65821388D01*
X97977685Y-65812870D01*
X98150084Y-65801569D01*
X98182726Y-65800500D01*
X110714391Y-65800500D01*
X110848389Y-65818828D01*
X110972544Y-65872466D01*
X111010721Y-65895545D01*
X111308636Y-66029626D01*
X111308638Y-66029626D01*
X111308639Y-66029627D01*
X111620547Y-66126821D01*
X111941896Y-66185710D01*
X112268000Y-66205436D01*
X112594104Y-66185710D01*
X112915453Y-66126821D01*
X113227361Y-66029627D01*
X113525279Y-65895545D01*
X113563456Y-65872465D01*
X113687611Y-65818828D01*
X113821609Y-65800500D01*
X117699391Y-65800500D01*
X117833389Y-65818828D01*
X117957544Y-65872466D01*
X117995721Y-65895545D01*
X118293636Y-66029626D01*
X118293638Y-66029626D01*
X118293639Y-66029627D01*
X118605547Y-66126821D01*
X118926896Y-66185710D01*
X119253000Y-66205436D01*
X119579104Y-66185710D01*
X119900453Y-66126821D01*
X120212361Y-66029627D01*
X120510279Y-65895545D01*
X120789863Y-65726530D01*
X121047036Y-65525048D01*
X121278048Y-65294036D01*
X121479530Y-65036863D01*
X121648545Y-64757279D01*
X121782627Y-64459361D01*
X121879821Y-64147453D01*
X121938710Y-63826104D01*
X121958436Y-63500000D01*
X121938710Y-63173896D01*
X121879821Y-62852547D01*
X121782627Y-62540639D01*
X121739322Y-62444420D01*
X121648543Y-62242717D01*
X121479531Y-61963139D01*
X121479530Y-61963137D01*
X121326374Y-61767647D01*
X121278046Y-61705961D01*
X121047038Y-61474953D01*
X120871138Y-61337145D01*
X120840539Y-61313172D01*
X120743465Y-61212128D01*
X120678309Y-61088078D01*
X120650211Y-60950804D01*
X120661386Y-60811130D01*
X120710952Y-60680069D01*
X120795002Y-60567956D01*
X120906906Y-60483632D01*
X121032164Y-60414405D01*
X121316176Y-60212888D01*
X121575839Y-59980839D01*
X121807888Y-59721176D01*
X122009405Y-59437164D01*
X122177855Y-59132376D01*
X122311121Y-58810644D01*
X122393002Y-58526426D01*
X122444134Y-58408634D01*
X122523635Y-58307788D01*
X122626240Y-58230570D01*
X122745153Y-58182094D01*
X122872500Y-58165571D01*
X122999847Y-58182094D01*
X123118760Y-58230570D01*
X123221365Y-58307788D01*
X123300866Y-58408634D01*
X123351997Y-58526426D01*
X123432083Y-58804410D01*
X123433880Y-58810647D01*
X123567146Y-59132378D01*
X123735595Y-59437165D01*
X123935385Y-59718743D01*
X123993605Y-59826933D01*
X124023624Y-59946068D01*
X124023624Y-60068928D01*
X123993605Y-60188064D01*
X123935386Y-60296254D01*
X123735595Y-60577835D01*
X123567146Y-60882621D01*
X123433877Y-61204360D01*
X123337473Y-61538981D01*
X123279140Y-61882309D01*
X123259615Y-62230000D01*
X123279140Y-62577690D01*
X123337473Y-62921018D01*
X123433877Y-63255639D01*
X123433878Y-63255643D01*
X123433879Y-63255644D01*
X123495203Y-63403694D01*
X123567146Y-63577378D01*
X123723603Y-63860467D01*
X123735595Y-63882164D01*
X123779762Y-63944411D01*
X123937111Y-64166176D01*
X124058039Y-64301493D01*
X124169161Y-64425839D01*
X124302696Y-64545173D01*
X124428823Y-64657888D01*
X124509974Y-64715467D01*
X124712836Y-64859405D01*
X125017624Y-65027855D01*
X125339356Y-65161121D01*
X125397241Y-65177797D01*
X125673981Y-65257526D01*
X125673987Y-65257527D01*
X126017307Y-65315859D01*
X126365000Y-65335385D01*
X126712693Y-65315859D01*
X127056013Y-65257527D01*
X127056014Y-65257526D01*
X127056018Y-65257526D01*
X127223328Y-65209324D01*
X127390644Y-65161121D01*
X127712376Y-65027855D01*
X128017164Y-64859405D01*
X128301176Y-64657888D01*
X128301691Y-64657427D01*
X128308496Y-64652694D01*
X128324032Y-64641671D01*
X128324135Y-64641816D01*
X128401033Y-64588328D01*
X128514086Y-64545173D01*
X128634202Y-64530500D01*
X131080798Y-64530500D01*
X131200914Y-64545173D01*
X131313967Y-64588328D01*
X131390864Y-64641816D01*
X131390968Y-64641671D01*
X131406503Y-64652694D01*
X131413308Y-64657427D01*
X131413823Y-64657888D01*
X131494974Y-64715467D01*
X131697836Y-64859405D01*
X132002624Y-65027855D01*
X132324356Y-65161121D01*
X132382241Y-65177797D01*
X132658981Y-65257526D01*
X132899203Y-65298341D01*
X133028967Y-65339200D01*
X133142872Y-65413587D01*
X133232454Y-65515975D01*
X133291052Y-65638753D01*
X133314311Y-65772794D01*
X133300503Y-65908136D01*
X133250654Y-66034719D01*
X133168471Y-66143130D01*
X133127147Y-66184455D01*
X133127144Y-66184458D01*
X132195773Y-67115827D01*
X132195103Y-67116541D01*
X132100798Y-67210845D01*
X131806070Y-67550974D01*
X131536370Y-67911244D01*
X131293059Y-68289836D01*
X131276505Y-68320153D01*
X131197630Y-68427497D01*
X131093168Y-68510149D01*
X130970561Y-68562221D01*
X130838547Y-68580000D01*
X128905000Y-68580000D01*
X128905000Y-71394271D01*
X128888333Y-71522160D01*
X128839447Y-71641506D01*
X128761605Y-71744336D01*
X128660010Y-71823782D01*
X128541446Y-71874537D01*
X128413835Y-71893209D01*
X128285700Y-71878553D01*
X128165601Y-71831546D01*
X128061561Y-71755329D01*
X127980530Y-71654993D01*
X127775615Y-71320595D01*
X127750070Y-71285435D01*
X127530796Y-70983622D01*
X127260295Y-70666899D01*
X127179834Y-70586437D01*
X127179808Y-70586409D01*
X127047219Y-70453820D01*
X126989014Y-70395612D01*
X126988888Y-70395448D01*
X126698115Y-70104678D01*
X126381402Y-69834185D01*
X126044428Y-69589365D01*
X125854293Y-69472853D01*
X125689285Y-69371738D01*
X125318164Y-69182648D01*
X125035077Y-69065393D01*
X124933342Y-69023254D01*
X124537222Y-68894553D01*
X124132210Y-68797323D01*
X123888156Y-68758672D01*
X123720819Y-68732171D01*
X123720817Y-68732170D01*
X123720812Y-68732170D01*
X123305589Y-68699497D01*
X123305586Y-68699497D01*
X123097328Y-68699500D01*
X120806609Y-68699500D01*
X120672611Y-68681172D01*
X120548456Y-68627534D01*
X120510278Y-68604454D01*
X120212363Y-68470373D01*
X119900454Y-68373179D01*
X119579104Y-68314290D01*
X119253000Y-68294564D01*
X118926895Y-68314290D01*
X118605545Y-68373179D01*
X118293636Y-68470373D01*
X117995717Y-68604456D01*
X117716139Y-68773468D01*
X117458961Y-68974953D01*
X117227953Y-69205961D01*
X117026468Y-69463139D01*
X116857456Y-69742717D01*
X116723373Y-70040636D01*
X116626179Y-70352545D01*
X116567290Y-70673895D01*
X116547564Y-71000000D01*
X116567290Y-71326104D01*
X116626179Y-71647454D01*
X116723373Y-71959363D01*
X116857456Y-72257282D01*
X117026468Y-72536860D01*
X117227953Y-72794038D01*
X117458961Y-73025046D01*
X117576046Y-73116776D01*
X117669229Y-73212494D01*
X117733678Y-73329504D01*
X117764776Y-73459419D01*
X117760294Y-73592929D01*
X117720552Y-73720466D01*
X117648400Y-73832889D01*
X117549007Y-73922142D01*
X117429497Y-73981828D01*
X117298436Y-74007670D01*
X117144066Y-74017008D01*
X116817960Y-74076769D01*
X116501432Y-74175402D01*
X116199093Y-74311475D01*
X115915377Y-74482987D01*
X115915373Y-74482989D01*
X115915373Y-74482990D01*
X115656705Y-74685644D01*
X115654386Y-74687461D01*
X115501194Y-74840653D01*
X115387493Y-74925768D01*
X115254418Y-74975403D01*
X115112750Y-74985535D01*
X114973965Y-74955344D01*
X114849309Y-74887276D01*
X114748878Y-74786845D01*
X114732899Y-74765500D01*
X114668028Y-74678841D01*
X114613593Y-74587096D01*
X114579904Y-74485874D01*
X114568500Y-74379804D01*
X114568500Y-72553609D01*
X114586828Y-72419611D01*
X114640466Y-72295456D01*
X114648178Y-72282699D01*
X114663545Y-72257279D01*
X114797627Y-71959361D01*
X114894821Y-71647453D01*
X114953710Y-71326104D01*
X114973436Y-71000000D01*
X114953710Y-70673896D01*
X114894821Y-70352547D01*
X114797627Y-70040639D01*
X114797408Y-70040153D01*
X114663543Y-69742717D01*
X114500405Y-69472855D01*
X114494530Y-69463137D01*
X114354667Y-69284615D01*
X114293046Y-69205961D01*
X114062038Y-68974953D01*
X113804860Y-68773468D01*
X113525282Y-68604456D01*
X113227363Y-68470373D01*
X112915454Y-68373179D01*
X112594104Y-68314290D01*
X112268000Y-68294564D01*
X111941895Y-68314290D01*
X111620545Y-68373179D01*
X111308636Y-68470373D01*
X111010721Y-68604454D01*
X110972544Y-68627534D01*
X110848389Y-68681172D01*
X110714391Y-68699500D01*
X107697959Y-68699500D01*
X107697108Y-68699526D01*
X107580414Y-68699526D01*
X107165192Y-68732199D01*
X107165187Y-68732199D01*
X107165184Y-68732200D01*
X107043218Y-68751515D01*
X106753793Y-68797352D01*
X106348784Y-68894581D01*
X105952662Y-69023283D01*
X105567852Y-69182671D01*
X105466768Y-69234175D01*
X105343066Y-69277848D01*
X105212256Y-69287774D01*
X105156001Y-69284615D01*
X105156000Y-69284615D01*
X105135313Y-69285776D01*
X104808309Y-69304140D01*
X104464981Y-69362473D01*
X104130360Y-69458877D01*
X103808621Y-69592146D01*
X103503840Y-69760592D01*
X103219823Y-69962111D01*
X102960161Y-70194161D01*
X102728115Y-70453820D01*
X102728112Y-70453823D01*
X102728112Y-70453824D01*
X102683737Y-70516365D01*
X102526592Y-70737840D01*
X102358147Y-71042618D01*
X102251516Y-71300049D01*
X102186383Y-71412861D01*
X102094272Y-71504973D01*
X101981459Y-71570105D01*
X101855632Y-71603820D01*
X101725368Y-71603820D01*
X101599541Y-71570105D01*
X101486728Y-71504973D01*
X101394617Y-71412861D01*
X101329484Y-71300049D01*
X101307652Y-71247341D01*
X101222855Y-71042624D01*
X101220273Y-71037953D01*
X101054407Y-70737840D01*
X101054405Y-70737836D01*
X100852888Y-70453824D01*
X100852887Y-70453823D01*
X100852885Y-70453820D01*
X100710817Y-70294847D01*
X100620839Y-70194161D01*
X100449048Y-70040639D01*
X100361176Y-69962111D01*
X100158964Y-69818635D01*
X100077164Y-69760595D01*
X100044823Y-69742721D01*
X99772378Y-69592146D01*
X99644939Y-69539359D01*
X99450644Y-69458879D01*
X99450643Y-69458878D01*
X99450639Y-69458877D01*
X99116018Y-69362473D01*
X98772690Y-69304140D01*
X98425000Y-69284615D01*
X98077309Y-69304140D01*
X97733981Y-69362473D01*
X97399360Y-69458877D01*
X97077621Y-69592146D01*
X96772840Y-69760592D01*
X96488823Y-69962111D01*
X96229161Y-70194161D01*
X95997115Y-70453820D01*
X95997112Y-70453823D01*
X95997112Y-70453824D01*
X95952737Y-70516365D01*
X95795592Y-70737840D01*
X95627146Y-71042621D01*
X95493877Y-71364360D01*
X95397473Y-71698981D01*
X95339140Y-72042309D01*
X95319615Y-72390000D01*
X95339140Y-72737690D01*
X95397473Y-73081018D01*
X95493877Y-73415639D01*
X95493878Y-73415643D01*
X95493879Y-73415644D01*
X95599381Y-73670349D01*
X95627146Y-73737378D01*
X95795439Y-74041883D01*
X95795595Y-74042164D01*
X95890132Y-74175402D01*
X96002824Y-74334227D01*
X96061937Y-74444738D01*
X96091650Y-74566493D01*
X96090088Y-74691811D01*
X96057351Y-74812787D01*
X96029290Y-74862240D01*
X96032447Y-74863964D01*
X95881631Y-75140161D01*
X95784128Y-75401575D01*
X95724822Y-75674201D01*
X95724822Y-75674205D01*
X95709900Y-75882842D01*
X95709900Y-79122158D01*
X95712047Y-79152176D01*
X95724822Y-79330798D01*
X95784128Y-79603424D01*
X95881630Y-79864836D01*
X96015342Y-80109712D01*
X96182548Y-80333073D01*
X96379826Y-80530351D01*
X96379829Y-80530353D01*
X96379831Y-80530355D01*
X96492746Y-80614882D01*
X96603187Y-80697557D01*
X96848063Y-80831269D01*
X97109475Y-80928771D01*
X97232301Y-80955490D01*
X97382105Y-80988078D01*
X97590742Y-81003000D01*
X99310054Y-81003000D01*
X99310058Y-81003000D01*
X99518695Y-80988078D01*
X99791324Y-80928771D01*
X100052737Y-80831269D01*
X100297614Y-80697556D01*
X100520969Y-80530355D01*
X100718255Y-80333069D01*
X100804279Y-80218153D01*
X100888663Y-80130254D01*
X100991836Y-80065425D01*
X101107646Y-80027535D01*
X101229186Y-80018842D01*
X101349209Y-80039865D01*
X101460559Y-80089350D01*
X101556594Y-80164346D01*
X101709791Y-80317543D01*
X101970773Y-80522010D01*
X102254498Y-80693527D01*
X102556829Y-80829596D01*
X102556831Y-80829596D01*
X102556832Y-80829597D01*
X102873360Y-80928230D01*
X103199458Y-80987990D01*
X103199460Y-80987990D01*
X103199465Y-80987991D01*
X103530400Y-81008009D01*
X103861335Y-80987991D01*
X103861340Y-80987990D01*
X103861341Y-80987990D01*
X104187439Y-80928230D01*
X104187441Y-80928229D01*
X104187443Y-80928229D01*
X104503971Y-80829596D01*
X104806302Y-80693527D01*
X105090027Y-80522010D01*
X105351009Y-80317543D01*
X105585443Y-80083109D01*
X105789910Y-79822127D01*
X105961427Y-79538402D01*
X106097496Y-79236071D01*
X106196129Y-78919543D01*
X106255891Y-78593435D01*
X106270900Y-78345308D01*
X106270900Y-76659692D01*
X106255891Y-76411565D01*
X106255890Y-76411558D01*
X106196130Y-76085460D01*
X106174725Y-76016770D01*
X106119099Y-75838258D01*
X106097271Y-75717427D01*
X106105610Y-75594921D01*
X106143613Y-75478161D01*
X106208979Y-75374216D01*
X106297749Y-75289380D01*
X106404548Y-75228791D01*
X106503376Y-75187855D01*
X106567078Y-75152648D01*
X106808164Y-75019405D01*
X107092176Y-74817888D01*
X107351839Y-74585839D01*
X107583888Y-74326176D01*
X107785405Y-74042164D01*
X107953855Y-73737376D01*
X108007221Y-73608538D01*
X108064536Y-73506196D01*
X108144161Y-73420058D01*
X108241695Y-73354888D01*
X108351747Y-73314287D01*
X108468236Y-73300500D01*
X109468500Y-73300500D01*
X109597651Y-73317503D01*
X109718000Y-73367353D01*
X109821346Y-73446654D01*
X109900647Y-73550000D01*
X109950497Y-73670349D01*
X109967500Y-73799500D01*
X109967500Y-74754086D01*
X109952000Y-74877492D01*
X109906461Y-74993232D01*
X109826231Y-75140161D01*
X109728728Y-75401575D01*
X109669422Y-75674201D01*
X109669422Y-75674205D01*
X109654500Y-75882842D01*
X109654500Y-79122158D01*
X109656647Y-79152176D01*
X109669422Y-79330798D01*
X109728728Y-79603424D01*
X109826230Y-79864836D01*
X109959942Y-80109712D01*
X110127148Y-80333073D01*
X110324426Y-80530351D01*
X110324429Y-80530353D01*
X110324431Y-80530355D01*
X110437346Y-80614882D01*
X110547787Y-80697557D01*
X110792663Y-80831269D01*
X111054075Y-80928771D01*
X111176901Y-80955490D01*
X111326705Y-80988078D01*
X111535342Y-81003000D01*
X113254654Y-81003000D01*
X113254658Y-81003000D01*
X113463295Y-80988078D01*
X113735924Y-80928771D01*
X113997337Y-80831269D01*
X114242214Y-80697556D01*
X114465569Y-80530355D01*
X114662855Y-80333069D01*
X114748879Y-80218153D01*
X114833263Y-80130254D01*
X114936436Y-80065425D01*
X115052246Y-80027535D01*
X115173786Y-80018842D01*
X115293809Y-80039865D01*
X115405159Y-80089350D01*
X115501194Y-80164346D01*
X115654391Y-80317543D01*
X115915373Y-80522010D01*
X116199098Y-80693527D01*
X116501429Y-80829596D01*
X116501431Y-80829596D01*
X116501432Y-80829597D01*
X116817960Y-80928230D01*
X117144058Y-80987990D01*
X117144060Y-80987990D01*
X117144065Y-80987991D01*
X117475000Y-81008009D01*
X117805935Y-80987991D01*
X117805940Y-80987990D01*
X117805941Y-80987990D01*
X118132039Y-80928230D01*
X118132041Y-80928229D01*
X118132043Y-80928229D01*
X118448571Y-80829596D01*
X118750902Y-80693527D01*
X119034627Y-80522010D01*
X119295609Y-80317543D01*
X119530043Y-80083109D01*
X119599655Y-79994255D01*
X119678818Y-79913888D01*
X119774012Y-79853355D01*
X119880371Y-79815752D01*
X119992458Y-79803000D01*
X124136046Y-79803000D01*
X124237967Y-79813520D01*
X124335592Y-79844635D01*
X124424802Y-79895035D01*
X124712834Y-80099404D01*
X124784621Y-80139079D01*
X125017624Y-80267855D01*
X125339356Y-80401121D01*
X125397241Y-80417797D01*
X125673981Y-80497526D01*
X125673987Y-80497527D01*
X126017307Y-80555859D01*
X126365000Y-80575385D01*
X126712693Y-80555859D01*
X127056013Y-80497527D01*
X127056014Y-80497526D01*
X127056018Y-80497526D01*
X127223328Y-80449324D01*
X127390644Y-80401121D01*
X127712376Y-80267855D01*
X128017164Y-80099405D01*
X128301176Y-79897888D01*
X128560839Y-79665839D01*
X128792888Y-79406176D01*
X128994405Y-79122164D01*
X129162855Y-78817376D01*
X129296121Y-78495644D01*
X129378002Y-78211426D01*
X129429134Y-78093634D01*
X129508635Y-77992788D01*
X129611240Y-77915570D01*
X129730153Y-77867094D01*
X129857500Y-77850571D01*
X129984847Y-77867094D01*
X130103760Y-77915570D01*
X130206365Y-77992788D01*
X130285866Y-78093634D01*
X130336998Y-78211429D01*
X130418880Y-78495647D01*
X130552146Y-78817378D01*
X130720591Y-79122158D01*
X130720595Y-79122164D01*
X130741890Y-79152176D01*
X130922111Y-79406176D01*
X131040276Y-79538402D01*
X131154161Y-79665839D01*
X131271277Y-79770500D01*
X131413823Y-79897888D01*
X131467983Y-79936316D01*
X131697836Y-80099405D01*
X132002624Y-80267855D01*
X132324356Y-80401121D01*
X132382241Y-80417797D01*
X132658981Y-80497526D01*
X132658987Y-80497527D01*
X133002307Y-80555859D01*
X133350000Y-80575385D01*
X133697693Y-80555859D01*
X134041013Y-80497527D01*
X134041014Y-80497526D01*
X134041018Y-80497526D01*
X134208328Y-80449324D01*
X134375644Y-80401121D01*
X134697376Y-80267855D01*
X135002164Y-80099405D01*
X135286176Y-79897888D01*
X135545839Y-79665839D01*
X135777888Y-79406176D01*
X135979405Y-79122164D01*
X136147855Y-78817376D01*
X136281121Y-78495644D01*
X136329324Y-78328328D01*
X136377526Y-78161018D01*
X136427465Y-77867094D01*
X136435859Y-77817693D01*
X136455385Y-77470000D01*
X136449319Y-77361977D01*
X136460028Y-77227514D01*
X136506361Y-77100832D01*
X136584931Y-76991188D01*
X136689998Y-76906594D01*
X136813883Y-76853232D01*
X136947534Y-76835000D01*
X140986957Y-76835000D01*
X141004378Y-76821372D01*
X141114834Y-76771946D01*
X141233936Y-76750562D01*
X141317693Y-76745859D01*
X141661013Y-76687527D01*
X141661014Y-76687526D01*
X141661018Y-76687526D01*
X141849384Y-76633258D01*
X141995644Y-76591121D01*
X142317376Y-76457855D01*
X142622164Y-76289405D01*
X142906176Y-76087888D01*
X143165839Y-75855839D01*
X143397888Y-75596176D01*
X143599405Y-75312164D01*
X143767855Y-75007376D01*
X143901121Y-74685644D01*
X143963615Y-74468723D01*
X143997526Y-74351018D01*
X144007483Y-74292413D01*
X144055859Y-74007693D01*
X144075385Y-73660000D01*
X144055859Y-73312307D01*
X143997527Y-72968987D01*
X143997526Y-72968981D01*
X143901122Y-72634360D01*
X143901121Y-72634356D01*
X143767855Y-72312624D01*
X143599405Y-72007836D01*
X143468812Y-71823782D01*
X143397888Y-71723823D01*
X143260516Y-71570105D01*
X143165839Y-71464161D01*
X142965846Y-71285436D01*
X142906176Y-71232111D01*
X142639117Y-71042624D01*
X142622164Y-71030595D01*
X142566806Y-71000000D01*
X142317378Y-70862146D01*
X141995647Y-70728880D01*
X141995644Y-70728879D01*
X141711426Y-70646997D01*
X141593634Y-70595866D01*
X141492788Y-70516365D01*
X141415570Y-70413760D01*
X141367094Y-70294847D01*
X141350571Y-70167500D01*
X141367094Y-70040153D01*
X141415570Y-69921240D01*
X141492788Y-69818635D01*
X141593634Y-69739134D01*
X141711426Y-69688002D01*
X141995644Y-69606121D01*
X142317376Y-69472855D01*
X142622164Y-69304405D01*
X142906176Y-69102888D01*
X143165839Y-68870839D01*
X143397888Y-68611176D01*
X143599405Y-68327164D01*
X143767855Y-68022376D01*
X143901121Y-67700644D01*
X143963839Y-67482947D01*
X143997526Y-67366018D01*
X144032100Y-67162527D01*
X144055859Y-67022693D01*
X144075385Y-66675000D01*
X144055859Y-66327307D01*
X143997527Y-65983987D01*
X143997526Y-65983981D01*
X143901122Y-65649360D01*
X143901121Y-65649356D01*
X143767855Y-65327624D01*
X143599405Y-65022836D01*
X143397888Y-64738824D01*
X143381671Y-64715968D01*
X143382376Y-64715467D01*
X143328709Y-64637428D01*
X143285563Y-64518725D01*
X143273602Y-64392992D01*
X143293593Y-64268282D01*
X143344255Y-64152587D01*
X143422342Y-64053317D01*
X143522842Y-63976839D01*
X143724410Y-63860467D01*
X144032027Y-63645077D01*
X144319700Y-63403694D01*
X144378132Y-63345261D01*
X144378143Y-63345253D01*
X144399224Y-63324171D01*
X144399234Y-63324164D01*
X144404762Y-63318635D01*
X144404900Y-63318529D01*
X144550942Y-63172482D01*
X144550943Y-63172483D01*
X144683711Y-63039712D01*
X144925094Y-62752037D01*
X145140485Y-62444419D01*
X145328247Y-62119199D01*
X145456747Y-61843619D01*
X145533825Y-61725491D01*
X145640881Y-61633650D01*
X145769360Y-61575436D01*
X145908997Y-61555500D01*
X146207321Y-61555500D01*
X146519470Y-61516067D01*
X146617222Y-61490968D01*
X146824225Y-61437819D01*
X146941711Y-61391303D01*
X147136306Y-61314258D01*
X147257459Y-61283151D01*
X147382541Y-61283151D01*
X147503694Y-61314258D01*
X147698291Y-61391304D01*
X147815775Y-61437819D01*
X147913524Y-61462916D01*
X148120529Y-61516067D01*
X148432679Y-61555500D01*
X148432682Y-61555500D01*
X148747318Y-61555500D01*
X148747321Y-61555500D01*
X149059470Y-61516067D01*
X149203382Y-61479116D01*
X149364225Y-61437819D01*
X149656766Y-61321994D01*
X149932484Y-61170416D01*
X150187030Y-60985478D01*
X150416390Y-60770094D01*
X150616947Y-60527663D01*
X150785537Y-60262007D01*
X150853838Y-60116860D01*
X150919502Y-59977319D01*
X151005767Y-59711823D01*
X151016731Y-59678079D01*
X151026232Y-59628273D01*
X151075688Y-59369017D01*
X151095444Y-59055000D01*
X151075688Y-58740982D01*
X151016733Y-58431927D01*
X151011275Y-58415131D01*
X150919503Y-58132685D01*
X150919500Y-58132679D01*
X150914923Y-58118592D01*
X150896644Y-58042453D01*
X150890500Y-57964391D01*
X150890500Y-57251388D01*
X150890480Y-57250807D01*
X150890482Y-57155694D01*
X150857758Y-56781595D01*
X150792553Y-56411772D01*
X150695364Y-56049038D01*
X150566930Y-55696156D01*
X150408229Y-55355811D01*
X150326254Y-55213823D01*
X150220471Y-55030595D01*
X150184939Y-54979849D01*
X150005078Y-54722975D01*
X149763696Y-54435302D01*
X149750835Y-54422441D01*
X149722531Y-54394136D01*
X149642487Y-54289495D01*
X149592618Y-54167553D01*
X149576400Y-54036810D01*
X149594964Y-53906380D01*
X149647016Y-53785354D01*
X149728927Y-53682168D01*
X149834983Y-53604017D01*
X149932484Y-53550416D01*
X150187030Y-53365478D01*
X150416390Y-53150094D01*
X150616947Y-52907663D01*
X150785537Y-52642007D01*
X150854757Y-52494908D01*
X150919502Y-52357319D01*
X150989643Y-52141447D01*
X151016731Y-52058079D01*
X151022315Y-52028806D01*
X151075688Y-51749017D01*
X151093296Y-51469148D01*
X151095444Y-51435000D01*
X151088072Y-51317823D01*
X151075688Y-51120982D01*
X151016732Y-50811924D01*
X150919502Y-50512680D01*
X150785539Y-50227997D01*
X150785538Y-50227996D01*
X150785537Y-50227993D01*
X150616947Y-49962337D01*
X150416390Y-49719906D01*
X150264126Y-49576920D01*
X150187031Y-49504522D01*
X149932483Y-49319583D01*
X149656765Y-49168005D01*
X149364224Y-49052180D01*
X149059470Y-48973932D01*
X148747321Y-48934500D01*
X148747318Y-48934500D01*
X148432682Y-48934500D01*
X148432676Y-48934500D01*
X148423864Y-48935613D01*
X148294119Y-48934998D01*
X148168919Y-48900955D01*
X148056728Y-48835786D01*
X147965129Y-48743896D01*
X147900317Y-48631498D01*
X147867327Y-48551850D01*
X147867326Y-48551848D01*
X147867324Y-48551843D01*
X147678237Y-48180730D01*
X147460615Y-47825595D01*
X147215798Y-47488624D01*
X147126486Y-47384051D01*
X146945295Y-47171899D01*
X146899397Y-47126000D01*
X146851284Y-47077885D01*
X146851277Y-47077879D01*
X146794023Y-47020625D01*
X146793884Y-47020444D01*
X146638712Y-46865274D01*
X146503122Y-46729685D01*
X146503115Y-46729678D01*
X146186402Y-46459185D01*
X145849428Y-46214365D01*
X145686818Y-46114720D01*
X145494285Y-45996738D01*
X145123164Y-45807648D01*
X144834041Y-45687893D01*
X144738342Y-45648254D01*
X144342222Y-45519553D01*
X144303928Y-45510360D01*
X144161310Y-45476122D01*
X143937201Y-45422321D01*
X143631680Y-45373935D01*
X143504011Y-45335697D01*
X143391017Y-45265030D01*
X143300757Y-45166976D01*
X143239670Y-45048528D01*
X143212113Y-44918136D01*
X143220052Y-44785100D01*
X143262921Y-44658910D01*
X143337659Y-44548571D01*
X143397888Y-44481176D01*
X143599405Y-44197164D01*
X143767855Y-43892376D01*
X143901121Y-43570644D01*
X143964090Y-43352074D01*
X143997526Y-43236018D01*
X143997527Y-43236013D01*
X144055859Y-42892693D01*
X144075385Y-42545000D01*
X144055859Y-42197307D01*
X143997527Y-41853987D01*
X143997526Y-41853981D01*
X143901122Y-41519360D01*
X143901121Y-41519356D01*
X143767855Y-41197624D01*
X143599405Y-40892836D01*
X143467093Y-40706359D01*
X143397888Y-40608823D01*
X143241551Y-40433883D01*
X143165839Y-40349161D01*
X142979970Y-40183058D01*
X142906176Y-40117111D01*
X142653422Y-39937774D01*
X142622164Y-39915595D01*
X142583436Y-39894191D01*
X142317378Y-39747146D01*
X142253278Y-39720595D01*
X141995644Y-39613879D01*
X141995643Y-39613878D01*
X141995639Y-39613877D01*
X141661018Y-39517473D01*
X141317690Y-39459140D01*
X140970000Y-39439615D01*
X140622309Y-39459140D01*
X140278981Y-39517473D01*
X139944360Y-39613877D01*
X139622621Y-39747146D01*
X139317840Y-39915592D01*
X139033823Y-40117111D01*
X138774161Y-40349161D01*
X138542111Y-40608823D01*
X138340592Y-40892840D01*
X138172146Y-41197621D01*
X138038877Y-41519360D01*
X137942473Y-41853981D01*
X137884140Y-42197309D01*
X137864615Y-42544999D01*
X137884140Y-42892690D01*
X137942473Y-43236018D01*
X138038877Y-43570639D01*
X138038878Y-43570643D01*
X138038879Y-43570644D01*
X138128512Y-43787038D01*
X138172146Y-43892378D01*
X138339714Y-44195571D01*
X138340595Y-44197164D01*
X138542112Y-44481176D01*
X138542115Y-44481180D01*
X138552673Y-44492995D01*
X138624643Y-44597852D01*
X138667768Y-44717498D01*
X138679247Y-44844160D01*
X138658334Y-44969609D01*
X138606388Y-45085697D01*
X138526782Y-45184883D01*
X138424689Y-45260724D01*
X138306740Y-45308293D01*
X138180596Y-45324500D01*
X136149500Y-45324500D01*
X136020349Y-45307497D01*
X135900000Y-45257647D01*
X135796654Y-45178346D01*
X135717353Y-45075000D01*
X135667503Y-44954651D01*
X135650500Y-44825500D01*
X135650500Y-44814202D01*
X135665173Y-44694086D01*
X135708328Y-44581033D01*
X135761816Y-44504135D01*
X135761671Y-44504032D01*
X135772694Y-44488496D01*
X135777427Y-44481692D01*
X135777888Y-44481176D01*
X135777887Y-44481176D01*
X135979405Y-44197164D01*
X136147855Y-43892376D01*
X136281121Y-43570644D01*
X136344090Y-43352074D01*
X136377526Y-43236018D01*
X136377527Y-43236013D01*
X136435859Y-42892693D01*
X136455385Y-42545000D01*
X136435859Y-42197307D01*
X136377527Y-41853987D01*
X136377526Y-41853981D01*
X136281122Y-41519360D01*
X136281121Y-41519356D01*
X136147855Y-41197624D01*
X135979405Y-40892836D01*
X135847093Y-40706359D01*
X135777888Y-40608823D01*
X135621551Y-40433883D01*
X135545839Y-40349161D01*
X135359970Y-40183058D01*
X135286176Y-40117111D01*
X135033422Y-39937774D01*
X135002164Y-39915595D01*
X134963436Y-39894191D01*
X134697378Y-39747146D01*
X134633278Y-39720595D01*
X134375644Y-39613879D01*
X134375643Y-39613878D01*
X134375639Y-39613877D01*
X134041018Y-39517473D01*
X133697690Y-39459140D01*
X133350000Y-39439615D01*
X133002309Y-39459140D01*
X132658981Y-39517473D01*
X132324360Y-39613877D01*
X132002621Y-39747146D01*
X131697840Y-39915592D01*
X131413823Y-40117111D01*
X131154161Y-40349161D01*
X130922111Y-40608823D01*
X130720592Y-40892840D01*
X130552146Y-41197621D01*
X130418876Y-41519360D01*
X130336997Y-41803570D01*
X130285865Y-41921366D01*
X130206365Y-42022211D01*
X130103760Y-42099429D01*
X129984847Y-42147905D01*
X129857500Y-42164428D01*
X129730153Y-42147905D01*
X129611240Y-42099429D01*
X129508635Y-42022211D01*
X129429135Y-41921366D01*
X129378003Y-41803570D01*
X129296123Y-41519360D01*
X129210773Y-41313309D01*
X129162855Y-41197624D01*
X128994405Y-40892836D01*
X128862093Y-40706359D01*
X128792888Y-40608823D01*
X128792427Y-40608308D01*
X128787694Y-40601503D01*
X128776671Y-40585968D01*
X128776816Y-40585864D01*
X128723328Y-40508967D01*
X128680173Y-40395914D01*
X128665500Y-40275798D01*
X128665500Y-37426756D01*
X128677804Y-37316630D01*
X128714108Y-37211935D01*
X128772623Y-37117833D01*
X128826746Y-37062995D01*
X128826024Y-37062273D01*
X128942683Y-36945614D01*
X129118781Y-36769516D01*
X129362876Y-36468084D01*
X129574125Y-36142789D01*
X129750214Y-35797194D01*
X129750215Y-35797193D01*
X129851159Y-35534223D01*
X129889214Y-35435087D01*
X129989602Y-35060433D01*
X130050278Y-34677338D01*
X130058524Y-34520000D01*
X131844357Y-34520000D01*
X131864892Y-34767821D01*
X131925937Y-35008881D01*
X132025827Y-35236607D01*
X132161836Y-35444785D01*
X132330256Y-35627738D01*
X132526491Y-35780474D01*
X132745190Y-35898828D01*
X132980386Y-35979571D01*
X133225665Y-36020500D01*
X133474332Y-36020500D01*
X133474335Y-36020500D01*
X133719614Y-35979571D01*
X133954810Y-35898828D01*
X134173509Y-35780474D01*
X134369744Y-35627738D01*
X134538164Y-35444785D01*
X134674173Y-35236607D01*
X134774063Y-35008881D01*
X134835108Y-34767821D01*
X134855643Y-34520000D01*
X134835108Y-34272179D01*
X134774063Y-34031119D01*
X134674173Y-33803393D01*
X134538164Y-33595215D01*
X134369744Y-33412262D01*
X134284187Y-33345670D01*
X134173511Y-33259527D01*
X133954810Y-33141172D01*
X133719615Y-33060429D01*
X133658294Y-33050196D01*
X133474335Y-33019500D01*
X133225665Y-33019500D01*
X133099469Y-33040558D01*
X132980384Y-33060429D01*
X132745189Y-33141172D01*
X132526488Y-33259527D01*
X132330255Y-33412262D01*
X132161837Y-33595213D01*
X132025827Y-33803392D01*
X131948600Y-33979452D01*
X131925937Y-34031119D01*
X131864892Y-34272179D01*
X131844357Y-34520000D01*
X130058524Y-34520000D01*
X130070578Y-34290000D01*
X130050278Y-33902662D01*
X129989602Y-33519567D01*
X129981368Y-33488839D01*
X129896120Y-33170686D01*
X129889214Y-33144913D01*
X129875620Y-33109500D01*
X129750215Y-32782806D01*
X129574125Y-32437210D01*
X129362879Y-32111921D01*
X129362876Y-32111916D01*
X129118781Y-31810484D01*
X128844516Y-31536219D01*
X128543084Y-31292124D01*
X128520185Y-31277253D01*
X128217789Y-31080874D01*
X127872193Y-30904784D01*
X127510089Y-30765786D01*
X127135437Y-30665398D01*
X126943885Y-30635060D01*
X126752338Y-30604722D01*
X126685207Y-30601203D01*
X126365000Y-30584421D01*
X126030290Y-30601963D01*
X125977662Y-30604722D01*
X125834001Y-30627475D01*
X125594562Y-30665398D01*
X125219910Y-30765786D01*
X124857806Y-30904784D01*
X124512210Y-31080874D01*
X124186921Y-31292120D01*
X123885479Y-31536223D01*
X123611223Y-31810479D01*
X123611218Y-31810484D01*
X123611219Y-31810484D01*
X123387059Y-32087299D01*
X123367120Y-32111921D01*
X123155874Y-32437210D01*
X122979784Y-32782806D01*
X122840786Y-33144910D01*
X122740398Y-33519562D01*
X122717057Y-33666934D01*
X122680359Y-33898644D01*
X122679722Y-33902665D01*
X122659421Y-34289999D01*
X122673651Y-34561508D01*
X122679722Y-34677338D01*
X122693893Y-34766810D01*
X122740398Y-35060437D01*
X122840786Y-35435089D01*
X122979784Y-35797193D01*
X123155874Y-36142789D01*
X123365550Y-36465661D01*
X123367124Y-36468084D01*
X123611219Y-36769516D01*
X123611222Y-36769519D01*
X123611223Y-36769520D01*
X123903976Y-37062273D01*
X123903253Y-37062995D01*
X123957377Y-37117833D01*
X124015892Y-37211935D01*
X124052196Y-37316630D01*
X124064500Y-37426756D01*
X124064500Y-40275798D01*
X124049827Y-40395914D01*
X124006672Y-40508967D01*
X123953183Y-40585864D01*
X123953329Y-40585968D01*
X123942305Y-40601503D01*
X123937573Y-40608308D01*
X123937111Y-40608823D01*
X123735592Y-40892840D01*
X123567146Y-41197621D01*
X123433876Y-41519360D01*
X123351997Y-41803570D01*
X123300865Y-41921366D01*
X123221365Y-42022211D01*
X123118760Y-42099429D01*
X122999847Y-42147905D01*
X122872500Y-42164428D01*
X122745153Y-42147905D01*
X122626240Y-42099429D01*
X122523635Y-42022211D01*
X122444135Y-41921366D01*
X122393003Y-41803570D01*
X122311123Y-41519360D01*
X122225773Y-41313309D01*
X122177855Y-41197624D01*
X122009405Y-40892836D01*
X121877093Y-40706359D01*
X121807888Y-40608823D01*
X121651551Y-40433883D01*
X121575839Y-40349161D01*
X121389970Y-40183058D01*
X121316176Y-40117111D01*
X121063422Y-39937774D01*
X121032164Y-39915595D01*
X121025582Y-39911957D01*
X120727381Y-39747147D01*
X120451519Y-39632881D01*
X120331357Y-39561998D01*
X120235513Y-39460621D01*
X120171481Y-39336673D01*
X120144264Y-39199842D01*
X120155990Y-39060825D01*
X120205743Y-38930487D01*
X120289630Y-38819021D01*
X120377855Y-38730797D01*
X120545056Y-38507442D01*
X120678769Y-38262565D01*
X120776271Y-38001152D01*
X120835578Y-37728523D01*
X120850500Y-37519886D01*
X120850500Y-34280570D01*
X120835578Y-34071933D01*
X120777161Y-33803393D01*
X120776271Y-33799303D01*
X120678769Y-33537891D01*
X120545057Y-33293015D01*
X120431389Y-33141172D01*
X120377855Y-33069659D01*
X120377853Y-33069657D01*
X120377851Y-33069654D01*
X120180573Y-32872376D01*
X119957212Y-32705170D01*
X119712336Y-32571458D01*
X119450924Y-32473956D01*
X119178298Y-32414650D01*
X119088879Y-32408254D01*
X118969658Y-32399728D01*
X117250342Y-32399728D01*
X117146023Y-32407189D01*
X117041701Y-32414650D01*
X116769075Y-32473956D01*
X116507663Y-32571458D01*
X116262784Y-32705172D01*
X116150398Y-32789303D01*
X116027170Y-32856834D01*
X115890000Y-32887333D01*
X115749767Y-32878379D01*
X115617589Y-32830685D01*
X115503950Y-32748030D01*
X115417860Y-32636971D01*
X115366147Y-32506313D01*
X115279900Y-32147045D01*
X115147552Y-31739705D01*
X115116976Y-31665885D01*
X114983658Y-31344014D01*
X114983653Y-31344004D01*
X114789213Y-30962383D01*
X114565430Y-30597194D01*
X114545310Y-30569500D01*
X114313682Y-30250683D01*
X114035534Y-29925007D01*
X114017303Y-29906775D01*
X114017277Y-29906746D01*
X113863969Y-29753439D01*
X113863968Y-29753438D01*
X113863964Y-29753434D01*
X113779291Y-29668759D01*
X113779288Y-29668756D01*
X113767539Y-29657007D01*
X113767538Y-29657007D01*
X113297230Y-29186699D01*
X113296900Y-29186389D01*
X113212289Y-29101779D01*
X113212282Y-29101772D01*
X112886602Y-28823614D01*
X112886599Y-28823612D01*
X112886597Y-28823610D01*
X112540098Y-28571862D01*
X112174923Y-28348081D01*
X111793300Y-28153631D01*
X111397603Y-27989726D01*
X110990279Y-27857376D01*
X110990275Y-27857375D01*
X110990272Y-27857374D01*
X110831774Y-27819320D01*
X110573806Y-27757386D01*
X110150775Y-27690380D01*
X109723810Y-27656774D01*
X109696219Y-27656774D01*
X109696179Y-27656772D01*
X109666958Y-27656772D01*
X109509657Y-27656772D01*
X109509651Y-27656771D01*
X109361428Y-27656770D01*
X109361425Y-27656770D01*
X109330381Y-27656770D01*
X109330349Y-27656772D01*
X98418730Y-27656772D01*
X98314359Y-27645735D01*
X98214605Y-27613111D01*
X98123881Y-27560345D01*
X97984463Y-27458233D01*
X97752734Y-27337916D01*
X97505340Y-27254378D01*
X97248106Y-27209585D01*
X97208974Y-27207709D01*
X97189410Y-27206772D01*
X94580590Y-27206772D01*
X94565916Y-27207475D01*
X94521893Y-27209585D01*
X94264659Y-27254378D01*
X94017265Y-27337916D01*
X93785536Y-27458233D01*
X93646119Y-27560345D01*
X93555395Y-27613111D01*
X93455641Y-27645735D01*
X93351270Y-27656772D01*
X85007048Y-27656772D01*
X85006926Y-27656756D01*
X84586189Y-27656761D01*
X84159219Y-27690369D01*
X83736192Y-27757373D01*
X83319715Y-27857364D01*
X82912391Y-27989714D01*
X82516694Y-28153619D01*
X82135067Y-28348071D01*
X81769900Y-28571848D01*
X81769895Y-28571851D01*
X81769891Y-28571854D01*
X81642507Y-28664405D01*
X81423386Y-28823606D01*
X81097709Y-29101760D01*
X81069279Y-29130190D01*
X81069287Y-29130181D01*
X81069278Y-29130190D01*
X79934425Y-30265042D01*
X79934243Y-30265182D01*
X79639443Y-30559990D01*
X79361299Y-30885659D01*
X79109541Y-31232182D01*
X78885759Y-31597373D01*
X78691322Y-31978986D01*
X78527418Y-32374698D01*
X78395073Y-32782031D01*
X78295092Y-33198504D01*
X78260436Y-33417333D01*
X78228333Y-33620047D01*
X78228095Y-33621547D01*
X78194497Y-34048520D01*
X78194500Y-34253250D01*
X78194500Y-37690500D01*
X78177497Y-37819651D01*
X78127647Y-37940000D01*
X78048346Y-38043346D01*
X77945000Y-38122647D01*
X77824651Y-38172497D01*
X77695500Y-38189500D01*
X67344357Y-38189500D01*
X67209582Y-38170955D01*
X67084825Y-38116697D01*
X66979359Y-38030761D01*
X66901023Y-37919533D01*
X66855640Y-37791281D01*
X66846583Y-37655538D01*
X66874526Y-37522393D01*
X66937391Y-37401744D01*
X66954314Y-37377893D01*
X67071905Y-37212164D01*
X67240355Y-36907376D01*
X67373621Y-36585644D01*
X67470027Y-36251013D01*
X67528359Y-35907693D01*
X67547885Y-35560000D01*
X67528359Y-35212307D01*
X67470027Y-34868987D01*
X67470026Y-34868981D01*
X67390297Y-34592241D01*
X67373621Y-34534356D01*
X67240355Y-34212624D01*
X67071905Y-33907836D01*
X66954710Y-33742665D01*
X66870388Y-33623823D01*
X66685856Y-33417333D01*
X66638339Y-33364161D01*
X66498367Y-33239074D01*
X66378676Y-33132111D01*
X66134584Y-32958920D01*
X66094664Y-32930595D01*
X66004418Y-32880718D01*
X65789878Y-32762146D01*
X65652350Y-32705180D01*
X65468144Y-32628879D01*
X65468143Y-32628878D01*
X65468139Y-32628877D01*
X65133518Y-32532473D01*
X64790190Y-32474140D01*
X64442500Y-32454615D01*
X64094809Y-32474140D01*
X63751481Y-32532473D01*
X63416860Y-32628877D01*
X63095121Y-32762146D01*
X62790339Y-32930593D01*
X62790336Y-32930594D01*
X62790336Y-32930595D01*
X62667901Y-33017467D01*
X62578694Y-33067865D01*
X62481070Y-33098980D01*
X62379148Y-33109500D01*
X60440961Y-33109500D01*
X60309808Y-33091956D01*
X60187878Y-33040558D01*
X60083743Y-32958920D01*
X60004727Y-32852783D01*
X59956385Y-32729609D01*
X59942116Y-32598060D01*
X59962924Y-32467385D01*
X59966747Y-32454615D01*
X59977100Y-32420035D01*
X60035771Y-32087298D01*
X60055416Y-31750000D01*
X60035771Y-31412702D01*
X59977100Y-31079965D01*
X59880198Y-30756289D01*
X59746375Y-30446052D01*
X59577440Y-30153448D01*
X59474228Y-30014810D01*
X59375680Y-29882437D01*
X59143815Y-29636675D01*
X58884998Y-29419501D01*
X58884996Y-29419499D01*
X58884994Y-29419498D01*
X58602708Y-29233836D01*
X58300776Y-29082200D01*
X58159188Y-29030666D01*
X57983276Y-28966639D01*
X57654524Y-28888724D01*
X57318935Y-28849500D01*
X56981065Y-28849500D01*
X56645475Y-28888724D01*
X56316723Y-28966639D01*
X55999224Y-29082200D01*
X55697292Y-29233836D01*
X55415001Y-29419501D01*
X55156184Y-29636675D01*
X54924319Y-29882437D01*
X54722561Y-30153445D01*
X54619125Y-30332602D01*
X54553625Y-30446052D01*
X54520067Y-30523849D01*
X54419802Y-30756288D01*
X54322900Y-31079965D01*
X54260862Y-31431795D01*
X54221693Y-31556025D01*
X54151706Y-31665885D01*
X54055672Y-31753890D01*
X53940134Y-31814041D01*
X53812964Y-31842242D01*
X53714908Y-31837966D01*
X53714708Y-31840262D01*
X53693008Y-31838363D01*
X53693004Y-31838363D01*
X53305854Y-31804497D01*
X53305851Y-31804497D01*
X53111539Y-31804500D01*
X50739888Y-31804500D01*
X50624812Y-31791050D01*
X50515940Y-31751424D01*
X50419142Y-31687760D01*
X50178439Y-31485790D01*
X49860091Y-31262886D01*
X49780302Y-31216821D01*
X49523521Y-31068571D01*
X49171313Y-30904339D01*
X48806121Y-30771424D01*
X48430722Y-30670841D01*
X48048009Y-30603363D01*
X47806035Y-30582196D01*
X47660854Y-30569497D01*
X47660851Y-30569497D01*
X47466539Y-30569500D01*
X44658902Y-30569500D01*
X44543824Y-30556049D01*
X44434951Y-30516422D01*
X44291107Y-30444181D01*
X44291106Y-30444180D01*
X44291101Y-30444178D01*
X43984554Y-30332604D01*
X43984552Y-30332603D01*
X43984548Y-30332602D01*
X43667127Y-30257372D01*
X43505118Y-30238435D01*
X43343111Y-30219500D01*
X43016889Y-30219500D01*
X42908883Y-30232124D01*
X42692872Y-30257372D01*
X42375451Y-30332602D01*
X42068899Y-30444178D01*
X41777373Y-30590588D01*
X41504822Y-30769847D01*
X41254923Y-30979537D01*
X41031057Y-31216821D01*
X40836254Y-31478487D01*
X40836251Y-31478491D01*
X40836251Y-31478492D01*
X40673141Y-31761008D01*
X40673137Y-31761015D01*
X40673138Y-31761015D01*
X40543931Y-32060547D01*
X40450370Y-32373066D01*
X40393722Y-32694329D01*
X40374753Y-33020000D01*
X40393722Y-33345670D01*
X40396983Y-33364161D01*
X40450370Y-33666934D01*
X40489999Y-33799304D01*
X40543931Y-33979452D01*
X40598714Y-34106452D01*
X40673141Y-34278992D01*
X40836251Y-34561508D01*
X40836254Y-34561512D01*
X41031057Y-34823178D01*
X41204378Y-35006887D01*
X41254923Y-35060462D01*
X41504823Y-35270153D01*
X41777377Y-35449414D01*
X42068899Y-35595822D01*
X42373758Y-35706781D01*
X42484824Y-35763831D01*
X42578253Y-35846672D01*
X42648191Y-35950114D01*
X42690257Y-36067681D01*
X42701819Y-36192011D01*
X42682151Y-36315319D01*
X42632486Y-36429883D01*
X42555934Y-36528531D01*
X42455895Y-36628570D01*
X42154171Y-36976778D01*
X41878041Y-37345644D01*
X41628934Y-37733263D01*
X41408120Y-38137657D01*
X41216713Y-38556778D01*
X41055693Y-38988491D01*
X40925882Y-39430590D01*
X40827942Y-39880815D01*
X40781294Y-40205261D01*
X40762369Y-40336890D01*
X40730143Y-40787473D01*
X40729499Y-40796481D01*
X40729500Y-40912491D01*
X40729500Y-41751648D01*
X40718980Y-41853570D01*
X40687865Y-41951194D01*
X40637467Y-42040401D01*
X40604947Y-42086234D01*
X40550593Y-42162839D01*
X40382146Y-42467621D01*
X40248876Y-42789360D01*
X40166997Y-43073570D01*
X40115865Y-43191366D01*
X40036365Y-43292211D01*
X39933760Y-43369429D01*
X39814847Y-43417905D01*
X39687500Y-43434428D01*
X39560153Y-43417905D01*
X39441240Y-43369429D01*
X39338635Y-43292211D01*
X39259135Y-43191366D01*
X39208003Y-43073570D01*
X39126123Y-42789360D01*
X39052883Y-42612545D01*
X38992855Y-42467624D01*
X38824405Y-42162836D01*
X38711968Y-42004370D01*
X38622888Y-41878823D01*
X38483759Y-41723139D01*
X38390839Y-41619161D01*
X38253099Y-41496069D01*
X38131176Y-41387111D01*
X37947665Y-41256904D01*
X37847164Y-41185595D01*
X37754468Y-41134364D01*
X37542378Y-41017146D01*
X37526480Y-41010561D01*
X37399339Y-40957897D01*
X37220640Y-40883877D01*
X37190857Y-40875297D01*
X37073062Y-40824165D01*
X36972216Y-40744664D01*
X36894999Y-40642060D01*
X36846523Y-40523147D01*
X36830000Y-40395800D01*
X36830000Y-40205261D01*
X36840904Y-40101513D01*
X36873141Y-40002300D01*
X36925300Y-39911957D01*
X37041583Y-39751906D01*
X37090607Y-39684430D01*
X37170631Y-39553842D01*
X37308233Y-39329297D01*
X37392135Y-39164629D01*
X37497328Y-38958176D01*
X37656721Y-38573367D01*
X37785431Y-38177238D01*
X37882664Y-37772232D01*
X37947821Y-37360846D01*
X37980500Y-36945615D01*
X37980500Y-36737358D01*
X37980500Y-36665236D01*
X37980500Y-34770124D01*
X37997503Y-34640974D01*
X38047350Y-34520629D01*
X38186859Y-34278992D01*
X38316069Y-33979451D01*
X38409630Y-33666934D01*
X38466278Y-33345669D01*
X38485246Y-33020000D01*
X38466278Y-32694331D01*
X38409630Y-32373066D01*
X38316069Y-32060549D01*
X38186859Y-31761008D01*
X38023749Y-31478492D01*
X37863235Y-31262885D01*
X37828942Y-31216821D01*
X37605076Y-30979537D01*
X37355177Y-30769847D01*
X37196369Y-30665398D01*
X37082623Y-30590586D01*
X37082620Y-30590584D01*
X37058341Y-30574616D01*
X37060590Y-30571196D01*
X36991903Y-30523849D01*
X36904304Y-30417908D01*
X36848935Y-30292084D01*
X36830000Y-30155927D01*
X36830000Y-29131284D01*
X36847612Y-28999881D01*
X36899205Y-28877754D01*
X36981138Y-28773523D01*
X37087621Y-28694549D01*
X37142164Y-28664405D01*
X37426176Y-28462888D01*
X37685839Y-28230839D01*
X37917888Y-27971176D01*
X38119405Y-27687164D01*
X38287855Y-27382376D01*
X38421121Y-27060644D01*
X38455182Y-26942412D01*
X38513442Y-26813047D01*
X38605758Y-26705306D01*
X38724664Y-26627901D01*
X38860550Y-26587091D01*
X39002428Y-26586174D01*
X39138829Y-26625225D01*
X39258726Y-26701087D01*
X39352426Y-26807627D01*
X39451836Y-26959786D01*
X39620255Y-27142737D01*
X39620256Y-27142738D01*
X39816491Y-27295474D01*
X40035190Y-27413828D01*
X40270386Y-27494571D01*
X40515665Y-27535500D01*
X40764332Y-27535500D01*
X40764335Y-27535500D01*
X41009614Y-27494571D01*
X41244810Y-27413828D01*
X41463509Y-27295474D01*
X41659744Y-27142738D01*
X41828164Y-26959785D01*
X41964173Y-26751607D01*
X42064063Y-26523881D01*
X42125108Y-26282821D01*
X42145643Y-26035000D01*
X44649732Y-26035000D01*
X44668778Y-26289160D01*
X44725491Y-26537637D01*
X44818605Y-26774885D01*
X44946042Y-26995615D01*
X45104947Y-27194875D01*
X45169077Y-27254378D01*
X45291783Y-27368232D01*
X45502366Y-27511805D01*
X45731996Y-27622389D01*
X45975542Y-27697513D01*
X45975547Y-27697513D01*
X45975548Y-27697514D01*
X46227562Y-27735500D01*
X46227565Y-27735500D01*
X46482435Y-27735500D01*
X46482438Y-27735500D01*
X46734451Y-27697514D01*
X46734450Y-27697514D01*
X46734458Y-27697513D01*
X46978004Y-27622389D01*
X47207634Y-27511805D01*
X47418217Y-27368232D01*
X47605050Y-27194877D01*
X47646631Y-27142737D01*
X47763957Y-26995615D01*
X47784643Y-26959786D01*
X47891393Y-26774888D01*
X47984508Y-26537637D01*
X48041222Y-26289157D01*
X48060268Y-26035000D01*
X48041222Y-25780843D01*
X48019873Y-25687307D01*
X47984508Y-25532362D01*
X47891394Y-25295114D01*
X47763957Y-25074384D01*
X47605052Y-24875124D01*
X47418217Y-24701768D01*
X47207634Y-24558195D01*
X46978006Y-24447612D01*
X46978004Y-24447611D01*
X46734458Y-24372487D01*
X46734456Y-24372486D01*
X46734451Y-24372485D01*
X46482438Y-24334500D01*
X46482435Y-24334500D01*
X46227565Y-24334500D01*
X46227562Y-24334500D01*
X45975548Y-24372485D01*
X45731993Y-24447612D01*
X45502365Y-24558195D01*
X45291782Y-24701768D01*
X45104947Y-24875124D01*
X44946042Y-25074384D01*
X44818605Y-25295114D01*
X44725491Y-25532362D01*
X44668778Y-25780839D01*
X44649732Y-26035000D01*
X42145643Y-26035000D01*
X42125108Y-25787179D01*
X42064063Y-25546119D01*
X41964173Y-25318393D01*
X41828164Y-25110215D01*
X41659744Y-24927262D01*
X41470117Y-24779669D01*
X41463511Y-24774527D01*
X41244810Y-24656172D01*
X41009615Y-24575429D01*
X40906334Y-24558195D01*
X40764335Y-24534500D01*
X40515665Y-24534500D01*
X40373666Y-24558195D01*
X40270384Y-24575429D01*
X40035189Y-24656172D01*
X39816488Y-24774527D01*
X39620255Y-24927262D01*
X39451835Y-25110215D01*
X39352425Y-25262373D01*
X39258726Y-25368912D01*
X39138829Y-25444774D01*
X39002428Y-25483825D01*
X38860550Y-25482908D01*
X38724665Y-25442098D01*
X38605758Y-25364693D01*
X38513443Y-25256952D01*
X38455182Y-25127585D01*
X38450177Y-25110213D01*
X38421121Y-25009356D01*
X38287855Y-24687624D01*
X38119405Y-24382836D01*
X38010274Y-24229030D01*
X37917888Y-24098823D01*
X37828464Y-23998759D01*
X37685839Y-23839161D01*
X37564891Y-23731075D01*
X37478225Y-23629730D01*
X37421493Y-23509052D01*
X37398747Y-23377658D01*
X37411611Y-23244931D01*
X37459166Y-23120351D01*
X37538016Y-23012813D01*
X37642530Y-22929997D01*
X37765245Y-22877817D01*
X37897398Y-22860000D01*
X163331000Y-22860000D01*
X163460151Y-22877003D01*
G37*
%TD.AperFunction*%
%TD*%
M02*
