%TF.GenerationSoftware,KiCad,Pcbnew,7.0.1*%
%TF.CreationDate,2024-04-09T21:12:25+02:00*%
%TF.ProjectId,6N6P_hybrid,364e3650-5f68-4796-9272-69642e6b6963,rev?*%
%TF.SameCoordinates,Original*%
%TF.FileFunction,Profile,NP*%
%FSLAX46Y46*%
G04 Gerber Fmt 4.6, Leading zero omitted, Abs format (unit mm)*
G04 Created by KiCad (PCBNEW 7.0.1) date 2024-04-09 21:12:25*
%MOMM*%
%LPD*%
G01*
G04 APERTURE LIST*
%TA.AperFunction,Profile*%
%ADD10C,0.100000*%
%TD*%
G04 APERTURE END LIST*
D10*
X107696000Y-127000000D02*
G75*
G03*
X107696000Y-127000000I-1500000J0D01*
G01*
X107696000Y-137287000D02*
G75*
G03*
X107696000Y-137287000I-1500000J0D01*
G01*
X101600000Y-139192000D02*
G75*
G03*
X101600000Y-139192000I-1500000J0D01*
G01*
X101576000Y-125095000D02*
G75*
G03*
X101576000Y-125095000I-1500000J0D01*
G01*
X31500000Y-103000000D02*
G75*
G03*
X31500000Y-103000000I-1500000J0D01*
G01*
X103100000Y-46000000D02*
G75*
G03*
X103100000Y-46000000I-1600000J0D01*
G01*
X28000000Y-26000000D02*
G75*
G03*
X28000000Y-26000000I-1500000J0D01*
G01*
X33250000Y-117475000D02*
G75*
G03*
X33250000Y-117475000I-1500000J0D01*
G01*
X157710000Y-80645000D02*
G75*
G03*
X157710000Y-80645000I-1500000J0D01*
G01*
X107500000Y-103000000D02*
G75*
G03*
X107500000Y-103000000I-1500000J0D01*
G01*
X173000000Y-81000000D02*
G75*
G03*
X173000000Y-81000000I-1500000J0D01*
G01*
X173000000Y-26000000D02*
G75*
G03*
X173000000Y-26000000I-1500000J0D01*
G01*
X107500000Y-158000000D02*
G75*
G03*
X107500000Y-158000000I-1500000J0D01*
G01*
X20700000Y-20840000D02*
X177000000Y-20840000D01*
X177000000Y-85840000D01*
X20700000Y-85840000D01*
X20700000Y-20840000D01*
X33055000Y-127405000D02*
G75*
G03*
X33055000Y-127405000I-1500000J0D01*
G01*
X28000000Y-81000000D02*
G75*
G03*
X28000000Y-81000000I-1500000J0D01*
G01*
X33020000Y-132056000D02*
G75*
G03*
X33020000Y-132056000I-1500000J0D01*
G01*
X26045000Y-97000000D02*
X110490000Y-97000000D01*
X110490000Y-163508000D01*
X26045000Y-163508000D01*
X26045000Y-97000000D01*
X33020000Y-142010000D02*
G75*
G03*
X33020000Y-142010000I-1500000J0D01*
G01*
X107672000Y-110744000D02*
G75*
G03*
X107672000Y-110744000I-1500000J0D01*
G01*
X31500000Y-158000000D02*
G75*
G03*
X31500000Y-158000000I-1500000J0D01*
G01*
X42140000Y-26035000D02*
G75*
G03*
X42140000Y-26035000I-1500000J0D01*
G01*
X134850000Y-34520000D02*
G75*
G03*
X134850000Y-34520000I-1500000J0D01*
G01*
M02*
