%TF.GenerationSoftware,KiCad,Pcbnew,7.0.1*%
%TF.CreationDate,2024-04-08T23:42:12+02:00*%
%TF.ProjectId,6N6P_hybrid,364e3650-5f68-4796-9272-69642e6b6963,rev?*%
%TF.SameCoordinates,Original*%
%TF.FileFunction,Copper,L1,Top*%
%TF.FilePolarity,Positive*%
%FSLAX46Y46*%
G04 Gerber Fmt 4.6, Leading zero omitted, Abs format (unit mm)*
G04 Created by KiCad (PCBNEW 7.0.1) date 2024-04-08 23:42:12*
%MOMM*%
%LPD*%
G01*
G04 APERTURE LIST*
G04 Aperture macros list*
%AMRoundRect*
0 Rectangle with rounded corners*
0 $1 Rounding radius*
0 $2 $3 $4 $5 $6 $7 $8 $9 X,Y pos of 4 corners*
0 Add a 4 corners polygon primitive as box body*
4,1,4,$2,$3,$4,$5,$6,$7,$8,$9,$2,$3,0*
0 Add four circle primitives for the rounded corners*
1,1,$1+$1,$2,$3*
1,1,$1+$1,$4,$5*
1,1,$1+$1,$6,$7*
1,1,$1+$1,$8,$9*
0 Add four rect primitives between the rounded corners*
20,1,$1+$1,$2,$3,$4,$5,0*
20,1,$1+$1,$4,$5,$6,$7,0*
20,1,$1+$1,$6,$7,$8,$9,0*
20,1,$1+$1,$8,$9,$2,$3,0*%
G04 Aperture macros list end*
%TA.AperFunction,ComponentPad*%
%ADD10C,2.800000*%
%TD*%
%TA.AperFunction,ComponentPad*%
%ADD11O,2.800000X2.800000*%
%TD*%
%TA.AperFunction,ComponentPad*%
%ADD12C,2.000000*%
%TD*%
%TA.AperFunction,ComponentPad*%
%ADD13R,1.300000X1.050000*%
%TD*%
%TA.AperFunction,ComponentPad*%
%ADD14O,1.300000X1.050000*%
%TD*%
%TA.AperFunction,ComponentPad*%
%ADD15R,1.600000X1.600000*%
%TD*%
%TA.AperFunction,ComponentPad*%
%ADD16O,1.600000X1.600000*%
%TD*%
%TA.AperFunction,ComponentPad*%
%ADD17RoundRect,0.675000X0.675000X0.675000X-0.675000X0.675000X-0.675000X-0.675000X0.675000X-0.675000X0*%
%TD*%
%TA.AperFunction,ComponentPad*%
%ADD18C,2.700000*%
%TD*%
%TA.AperFunction,ComponentPad*%
%ADD19RoundRect,0.249999X-1.550001X0.790001X-1.550001X-0.790001X1.550001X-0.790001X1.550001X0.790001X0*%
%TD*%
%TA.AperFunction,ComponentPad*%
%ADD20O,3.600000X2.080000*%
%TD*%
%TA.AperFunction,ComponentPad*%
%ADD21C,4.200000*%
%TD*%
%TA.AperFunction,ComponentPad*%
%ADD22C,4.000000*%
%TD*%
%TA.AperFunction,ComponentPad*%
%ADD23R,2.000000X2.000000*%
%TD*%
%TA.AperFunction,ComponentPad*%
%ADD24C,2.200000*%
%TD*%
%TA.AperFunction,ComponentPad*%
%ADD25R,2.400000X2.400000*%
%TD*%
%TA.AperFunction,ComponentPad*%
%ADD26C,2.400000*%
%TD*%
%TA.AperFunction,ComponentPad*%
%ADD27O,2.400000X2.400000*%
%TD*%
%TA.AperFunction,ComponentPad*%
%ADD28RoundRect,0.249999X0.790001X1.550001X-0.790001X1.550001X-0.790001X-1.550001X0.790001X-1.550001X0*%
%TD*%
%TA.AperFunction,ComponentPad*%
%ADD29O,2.080000X3.600000*%
%TD*%
%TA.AperFunction,ComponentPad*%
%ADD30C,1.400000*%
%TD*%
%TA.AperFunction,ComponentPad*%
%ADD31O,1.400000X1.400000*%
%TD*%
%TA.AperFunction,ComponentPad*%
%ADD32R,4.000000X4.000000*%
%TD*%
%TA.AperFunction,ComponentPad*%
%ADD33RoundRect,0.249999X-0.790001X-1.550001X0.790001X-1.550001X0.790001X1.550001X-0.790001X1.550001X0*%
%TD*%
%TA.AperFunction,Conductor*%
%ADD34C,1.200000*%
%TD*%
%TA.AperFunction,Conductor*%
%ADD35C,1.500000*%
%TD*%
G04 APERTURE END LIST*
D10*
%TO.P,R21,1*%
%TO.N,GND*%
X36195000Y-43815000D03*
D11*
%TO.P,R21,2*%
%TO.N,Net-(J2-Pin_2)*%
X36195000Y-64135000D03*
%TD*%
D10*
%TO.P,R2,1*%
%TO.N,Net-(R2-Pad1)*%
X140970000Y-42545000D03*
D11*
%TO.P,R2,2*%
%TO.N,Net-(D2-A)*%
X161290000Y-42545000D03*
%TD*%
D12*
%TO.P,C2,1*%
%TO.N,Net-(J3-Pin_2)*%
X119253000Y-63500000D03*
%TO.P,C2,2*%
%TO.N,Net-(J4-Pin_2)*%
X119253000Y-71000000D03*
%TD*%
D13*
%TO.P,Q1,1,E*%
%TO.N,Net-(Q1-E)*%
X49530000Y-34255000D03*
D14*
%TO.P,Q1,2,B*%
%TO.N,Net-(Q1-B)*%
X49530000Y-36795000D03*
%TO.P,Q1,3,C*%
%TO.N,V++*%
X49530000Y-39335000D03*
%TD*%
D15*
%TO.P,U1,1*%
%TO.N,Net-(R1-Pad1)*%
X140970000Y-59055000D03*
D16*
%TO.P,U1,2,-*%
%TO.N,Net-(U1A--)*%
X143510000Y-59055000D03*
%TO.P,U1,3,+*%
%TO.N,GND*%
X146050000Y-59055000D03*
%TO.P,U1,4,V-*%
%TO.N,V--*%
X148590000Y-59055000D03*
%TO.P,U1,5,+*%
%TO.N,GND*%
X148590000Y-51435000D03*
%TO.P,U1,6,-*%
%TO.N,Net-(U1B--)*%
X146050000Y-51435000D03*
%TO.P,U1,7*%
%TO.N,Net-(R2-Pad1)*%
X143510000Y-51435000D03*
%TO.P,U1,8,V+*%
%TO.N,V++*%
X140970000Y-51435000D03*
%TD*%
D10*
%TO.P,J8,1,Pin_1*%
%TO.N,GND*%
X35490000Y-26035000D03*
%TD*%
D17*
%TO.P,F2,1*%
%TO.N,Net-(J10-Pin_3)*%
X68072000Y-111506000D03*
X61312000Y-111506000D03*
D18*
%TO.P,F2,2*%
%TO.N,Net-(D11-+)*%
X51722000Y-111506000D03*
X44962000Y-111506000D03*
%TD*%
D19*
%TO.P,J6,1,Pin_1*%
%TO.N,GND*%
X28532500Y-35560000D03*
D20*
%TO.P,J6,2,Pin_2*%
%TO.N,Net-(J6-Pin_2)*%
X28532500Y-40640000D03*
%TO.P,J6,3,Pin_3*%
%TO.N,Net-(J6-Pin_3)*%
X28532500Y-45720000D03*
%TD*%
D21*
%TO.P,J13,1,Pin_1*%
%TO.N,Net-(J13-Pin_1)*%
X31750000Y-122453400D03*
%TD*%
D22*
%TO.P,J15,1,Pin_1*%
%TO.N,GND2*%
X101370000Y-113030000D03*
%TD*%
D23*
%TO.P,D3,1,-*%
%TO.N,GND2*%
X38735000Y-132160000D03*
D12*
%TO.P,D3,2*%
%TO.N,Net-(J12-Pin_1)*%
X38735000Y-137160000D03*
%TO.P,D3,3,+*%
%TO.N,Net-(D3-+)*%
X38735000Y-142160000D03*
%TO.P,D3,4*%
%TO.N,Net-(J11-Pin_1)*%
X38735000Y-147160000D03*
%TD*%
D24*
%TO.P,C8,1*%
%TO.N,Net-(Q1-E)*%
X43180000Y-33020000D03*
%TO.P,C8,2*%
%TO.N,Net-(J6-Pin_2)*%
X35680000Y-33020000D03*
%TD*%
D25*
%TO.P,C11,1*%
%TO.N,Net-(J10-Pin_3)*%
X72517000Y-127628000D03*
D26*
%TO.P,C11,2*%
%TO.N,GND2*%
X72517000Y-135128000D03*
%TD*%
D10*
%TO.P,R3,1*%
%TO.N,Net-(U1A--)*%
X126365000Y-62230000D03*
D11*
%TO.P,R3,2*%
%TO.N,Net-(J4-Pin_2)*%
X126365000Y-77470000D03*
%TD*%
D22*
%TO.P,J22,1,Pin_1*%
%TO.N,Net-(J21-Pin_1)*%
X101624000Y-122555000D03*
%TD*%
D10*
%TO.P,R19,1*%
%TO.N,Net-(J7-Pin_1)*%
X37455000Y-70485000D03*
D11*
%TO.P,R19,2*%
%TO.N,Net-(J3-Pin_1)*%
X57775000Y-70485000D03*
%TD*%
D12*
%TO.P,C9,1*%
%TO.N,V--*%
X113030000Y-53975000D03*
%TO.P,C9,2*%
%TO.N,V++*%
X113030000Y-43975000D03*
%TD*%
D10*
%TO.P,R10,1*%
%TO.N,Net-(J3-Pin_1)*%
X77777500Y-57150000D03*
D11*
%TO.P,R10,2*%
%TO.N,Net-(J3-Pin_2)*%
X77777500Y-77470000D03*
%TD*%
D26*
%TO.P,R20,1*%
%TO.N,Net-(U2B--)*%
X57150000Y-46990000D03*
D27*
%TO.P,R20,2*%
%TO.N,GND*%
X57150000Y-31750000D03*
%TD*%
D22*
%TO.P,J21,1,Pin_1*%
%TO.N,Net-(J21-Pin_1)*%
X101624000Y-129032000D03*
%TD*%
D10*
%TO.P,R5,1*%
%TO.N,Net-(D1-A)*%
X161290000Y-73660000D03*
D11*
%TO.P,R5,2*%
%TO.N,GND*%
X140970000Y-73660000D03*
%TD*%
D21*
%TO.P,J11,1,Pin_1*%
%TO.N,Net-(J11-Pin_1)*%
X31750000Y-147193000D03*
%TD*%
D10*
%TO.P,R9,1*%
%TO.N,Net-(U1B--)*%
X119380000Y-42545000D03*
D11*
%TO.P,R9,2*%
%TO.N,Net-(R2-Pad1)*%
X119380000Y-57785000D03*
%TD*%
D21*
%TO.P,J12,1,Pin_1*%
%TO.N,Net-(J12-Pin_1)*%
X31750000Y-137160000D03*
%TD*%
D12*
%TO.P,C14,1*%
%TO.N,GND2*%
X87978000Y-117348000D03*
%TO.P,C14,2*%
%TO.N,Net-(J10-Pin_3)*%
X77978000Y-117348000D03*
%TD*%
D10*
%TO.P,R23,1*%
%TO.N,Net-(Q1-B)*%
X43180000Y-43815000D03*
D11*
%TO.P,R23,2*%
%TO.N,Net-(J2-Pin_2)*%
X43180000Y-64135000D03*
%TD*%
D25*
%TO.P,C1,1*%
%TO.N,Net-(J21-Pin_1)*%
X93733000Y-129032000D03*
D26*
%TO.P,C1,2*%
%TO.N,GND2*%
X86233000Y-129032000D03*
%TD*%
D21*
%TO.P,J14,1,Pin_1*%
%TO.N,Net-(J14-Pin_1)*%
X31750000Y-112471200D03*
%TD*%
D22*
%TO.P,J9,1,Pin_1*%
%TO.N,Net-(J9-Pin_1)*%
X126365000Y-34290000D03*
%TD*%
D10*
%TO.P,R11,1*%
%TO.N,Net-(J3-Pin_1)*%
X70993000Y-50165000D03*
D11*
%TO.P,R11,2*%
%TO.N,Net-(J3-Pin_2)*%
X70993000Y-70485000D03*
%TD*%
D28*
%TO.P,J10,1,Pin_1*%
%TO.N,GND2*%
X93472000Y-104140000D03*
D29*
%TO.P,J10,2,Pin_2*%
%TO.N,Net-(J10-Pin_2)*%
X88392000Y-104140000D03*
%TO.P,J10,3,Pin_3*%
%TO.N,Net-(J10-Pin_3)*%
X83312000Y-104140000D03*
%TD*%
D10*
%TO.P,R13,1*%
%TO.N,V--*%
X84762500Y-35560000D03*
D11*
%TO.P,R13,2*%
%TO.N,Net-(Q1-E)*%
X64442500Y-35560000D03*
%TD*%
D10*
%TO.P,R1,1*%
%TO.N,Net-(R1-Pad1)*%
X140970000Y-66675000D03*
D11*
%TO.P,R1,2*%
%TO.N,Net-(D1-A)*%
X161290000Y-66675000D03*
%TD*%
D10*
%TO.P,R6,1*%
%TO.N,GND*%
X169545000Y-73660000D03*
D11*
%TO.P,R6,2*%
%TO.N,Net-(D2-A)*%
X169545000Y-53340000D03*
%TD*%
D12*
%TO.P,C15,1*%
%TO.N,Net-(J10-Pin_2)*%
X84455000Y-110744000D03*
%TO.P,C15,2*%
%TO.N,GND2*%
X94455000Y-110744000D03*
%TD*%
D30*
%TO.P,R24,1*%
%TO.N,GND*%
X46355000Y-26035000D03*
D31*
%TO.P,R24,2*%
%TO.N,GND3*%
X51435000Y-26035000D03*
%TD*%
D32*
%TO.P,C10,1*%
%TO.N,Net-(J16-Pin_1)*%
X84963000Y-154940000D03*
D22*
%TO.P,C10,2*%
%TO.N,GND2*%
X84963000Y-144940000D03*
%TD*%
D33*
%TO.P,J3,1,Pin_1*%
%TO.N,Net-(J3-Pin_1)*%
X64760000Y-77470000D03*
D29*
%TO.P,J3,2,Pin_2*%
%TO.N,Net-(J3-Pin_2)*%
X69840000Y-77470000D03*
%TD*%
D12*
%TO.P,C3,1*%
%TO.N,Net-(C3-Pad1)*%
X91430000Y-58580000D03*
%TO.P,C3,2*%
%TO.N,Net-(J3-Pin_2)*%
X91430000Y-68580000D03*
%TD*%
D33*
%TO.P,J4,1,Pin_1*%
%TO.N,Net-(J4-Pin_1)*%
X112395000Y-77502500D03*
D29*
%TO.P,J4,2,Pin_2*%
%TO.N,Net-(J4-Pin_2)*%
X117475000Y-77502500D03*
%TD*%
D10*
%TO.P,R18,1*%
%TO.N,GND2*%
X47244000Y-149225000D03*
D11*
%TO.P,R18,2*%
%TO.N,Net-(J16-Pin_1)*%
X67564000Y-149225000D03*
%TD*%
D12*
%TO.P,C7,1*%
%TO.N,Net-(J3-Pin_2)*%
X112268000Y-63500000D03*
%TO.P,C7,2*%
%TO.N,Net-(J4-Pin_1)*%
X112268000Y-71000000D03*
%TD*%
D10*
%TO.P,J18,1,Pin_1*%
%TO.N,GND*%
X161290000Y-80645000D03*
%TD*%
%TO.P,R7,1*%
%TO.N,Net-(U1A--)*%
X133350000Y-62230000D03*
D11*
%TO.P,R7,2*%
%TO.N,Net-(R1-Pad1)*%
X133350000Y-77470000D03*
%TD*%
D28*
%TO.P,J19,1,Pin_1*%
%TO.N,Net-(D2-A)*%
X160528000Y-29177500D03*
D29*
%TO.P,J19,2,Pin_2*%
%TO.N,Net-(D1-A)*%
X155448000Y-29177500D03*
%TD*%
D23*
%TO.P,D11,1,-*%
%TO.N,Net-(D11--)*%
X38735000Y-107475000D03*
D12*
%TO.P,D11,2*%
%TO.N,Net-(J14-Pin_1)*%
X38735000Y-112475000D03*
%TO.P,D11,3,+*%
%TO.N,Net-(D11-+)*%
X38735000Y-117475000D03*
%TO.P,D11,4*%
%TO.N,Net-(J13-Pin_1)*%
X38735000Y-122475000D03*
%TD*%
D25*
%TO.P,C13,1*%
%TO.N,GND2*%
X50920000Y-125730000D03*
D26*
%TO.P,C13,2*%
%TO.N,Net-(J10-Pin_2)*%
X58420000Y-125730000D03*
%TD*%
D12*
%TO.P,C16,1*%
%TO.N,Net-(J10-Pin_2)*%
X73660000Y-100965000D03*
%TO.P,C16,2*%
%TO.N,Net-(J10-Pin_3)*%
X73660000Y-110965000D03*
%TD*%
D22*
%TO.P,J20,1,Pin_1*%
%TO.N,Net-(J16-Pin_1)*%
X101624000Y-137795000D03*
%TD*%
D15*
%TO.P,U2,1*%
%TO.N,Net-(U2A--)*%
X84692500Y-51435000D03*
D16*
%TO.P,U2,2,-*%
X84692500Y-48895000D03*
%TO.P,U2,3,+*%
%TO.N,Net-(U2A-+)*%
X84692500Y-46355000D03*
%TO.P,U2,4,V-*%
%TO.N,V--*%
X84692500Y-43815000D03*
%TO.P,U2,5,+*%
%TO.N,Net-(U2B-+)*%
X77072500Y-43815000D03*
%TO.P,U2,6,-*%
%TO.N,Net-(U2B--)*%
X77072500Y-46355000D03*
%TO.P,U2,7*%
%TO.N,Net-(J3-Pin_1)*%
X77072500Y-48895000D03*
%TO.P,U2,8,V+*%
%TO.N,V++*%
X77072500Y-51435000D03*
%TD*%
D10*
%TO.P,R14,1*%
%TO.N,Net-(U2B--)*%
X64135000Y-50165000D03*
D11*
%TO.P,R14,2*%
%TO.N,Net-(J3-Pin_1)*%
X64135000Y-70485000D03*
%TD*%
D28*
%TO.P,J5,1,Pin_1*%
%TO.N,GND*%
X118110000Y-35900228D03*
D29*
%TO.P,J5,2,Pin_2*%
%TO.N,V++*%
X113030000Y-35900228D03*
%TO.P,J5,3,Pin_3*%
%TO.N,V--*%
X107950000Y-35900228D03*
%TD*%
D10*
%TO.P,R15,1*%
%TO.N,Net-(J7-Pin_2)*%
X37455000Y-77216000D03*
D11*
%TO.P,R15,2*%
%TO.N,Net-(J3-Pin_1)*%
X57775000Y-77216000D03*
%TD*%
D25*
%TO.P,C12,1*%
%TO.N,V++*%
X95885000Y-30107272D03*
D26*
%TO.P,C12,2*%
%TO.N,V--*%
X95885000Y-37607272D03*
%TD*%
D10*
%TO.P,R22,1*%
%TO.N,Net-(J4-Pin_1)*%
X105156000Y-72390000D03*
D11*
%TO.P,R22,2*%
%TO.N,Net-(J4-Pin_2)*%
X105156000Y-52070000D03*
%TD*%
D10*
%TO.P,R4,1*%
%TO.N,Net-(U1A--)*%
X126365000Y-57785000D03*
D11*
%TO.P,R4,2*%
%TO.N,Net-(J9-Pin_1)*%
X126365000Y-42545000D03*
%TD*%
D10*
%TO.P,R8,1*%
%TO.N,Net-(U1B--)*%
X133350000Y-42545000D03*
D11*
%TO.P,R8,2*%
%TO.N,Net-(R1-Pad1)*%
X133350000Y-57785000D03*
%TD*%
D33*
%TO.P,J1,1,Pin_1*%
%TO.N,Net-(J1-Pin_1)*%
X98450400Y-77502500D03*
D29*
%TO.P,J1,2,Pin_2*%
%TO.N,GND*%
X103530400Y-77502500D03*
%TD*%
D17*
%TO.P,F1,1*%
%TO.N,Net-(J16-Pin_1)*%
X69848000Y-157480000D03*
X63088000Y-157480000D03*
D18*
%TO.P,F1,2*%
%TO.N,Net-(D3-+)*%
X53498000Y-157480000D03*
X46738000Y-157480000D03*
%TD*%
D15*
%TO.P,D2,1,K*%
%TO.N,Net-(D1-K)*%
X169545000Y-38608000D03*
D16*
%TO.P,D2,2,A*%
%TO.N,Net-(D2-A)*%
X169545000Y-48768000D03*
%TD*%
D10*
%TO.P,R16,1*%
%TO.N,Net-(U2A--)*%
X84762500Y-57150000D03*
D11*
%TO.P,R16,2*%
%TO.N,Net-(C3-Pad1)*%
X84762500Y-77470000D03*
%TD*%
D10*
%TO.P,R17,1*%
%TO.N,Net-(J6-Pin_3)*%
X50155000Y-64135000D03*
D11*
%TO.P,R17,2*%
%TO.N,Net-(U2B-+)*%
X50155000Y-43815000D03*
%TD*%
D24*
%TO.P,C5,1*%
%TO.N,Net-(U2B--)*%
X57150000Y-51515000D03*
%TO.P,C5,2*%
%TO.N,Net-(J7-Pin_1)*%
X57150000Y-61515000D03*
%TD*%
D19*
%TO.P,J7,1,Pin_1*%
%TO.N,Net-(J7-Pin_1)*%
X28532500Y-67310000D03*
D20*
%TO.P,J7,2,Pin_2*%
%TO.N,Net-(J7-Pin_2)*%
X28532500Y-72390000D03*
%TD*%
D12*
%TO.P,C4,1*%
%TO.N,Net-(U2A-+)*%
X90170000Y-43260000D03*
%TO.P,C4,2*%
%TO.N,Net-(C3-Pad1)*%
X90170000Y-53260000D03*
%TD*%
D15*
%TO.P,D1,1,K*%
%TO.N,Net-(D1-K)*%
X165608000Y-34925000D03*
D16*
%TO.P,D1,2,A*%
%TO.N,Net-(D1-A)*%
X155448000Y-34925000D03*
%TD*%
D22*
%TO.P,J16,1,Pin_1*%
%TO.N,Net-(J16-Pin_1)*%
X101624000Y-144000000D03*
%TD*%
D17*
%TO.P,F3,1*%
%TO.N,Net-(J10-Pin_2)*%
X68072000Y-103886000D03*
X61312000Y-103886000D03*
D18*
%TO.P,F3,2*%
%TO.N,Net-(D11--)*%
X51722000Y-103886000D03*
X44962000Y-103886000D03*
%TD*%
D19*
%TO.P,J2,1,Pin_1*%
%TO.N,GND*%
X28565000Y-53975000D03*
D20*
%TO.P,J2,2,Pin_2*%
%TO.N,Net-(J2-Pin_2)*%
X28565000Y-59055000D03*
%TD*%
D10*
%TO.P,R12,1*%
%TO.N,Net-(U2A-+)*%
X98425000Y-52070000D03*
D11*
%TO.P,R12,2*%
%TO.N,Net-(J1-Pin_1)*%
X98425000Y-72390000D03*
%TD*%
D34*
%TO.N,GND*%
X88900000Y-31750000D02*
X90805000Y-33655000D01*
D35*
X95885000Y-57757641D02*
X95885000Y-68386573D01*
D34*
X152400000Y-52705000D02*
X151130000Y-51435000D01*
D35*
X103530400Y-79791173D02*
X103530400Y-77502500D01*
D34*
X146050000Y-59055000D02*
X146050000Y-61595000D01*
X90805000Y-33655000D02*
X90805000Y-37492359D01*
D35*
X91683680Y-39613680D02*
X93101321Y-41031321D01*
D34*
X151130000Y-62230000D02*
X152400000Y-60960000D01*
D35*
X94565787Y-80595787D02*
X95299214Y-81329214D01*
D34*
X152400000Y-60960000D02*
X152400000Y-52705000D01*
D35*
X94858680Y-55488680D02*
X95006321Y-55636321D01*
X90805000Y-36830000D02*
X90805000Y-37492359D01*
X95299213Y-69800787D02*
X94565786Y-70534214D01*
X93980000Y-71948427D02*
X93980000Y-79181573D01*
D34*
X151130000Y-51435000D02*
X148590000Y-51435000D01*
X146050000Y-61595000D02*
X146685000Y-62230000D01*
D35*
X93980000Y-43152641D02*
X93980000Y-53367359D01*
X102820787Y-81329213D02*
X102944614Y-81205386D01*
D34*
X146685000Y-62230000D02*
X151130000Y-62230000D01*
D35*
X96713427Y-81915000D02*
X101406573Y-81915000D01*
D34*
X57150000Y-31750000D02*
X88900000Y-31750000D01*
D35*
X95884971Y-57757641D02*
G75*
G03*
X95006321Y-55636321I-2999971J41D01*
G01*
X93980029Y-53367359D02*
G75*
G03*
X94858680Y-55488680I2999971J-41D01*
G01*
X95299200Y-81329228D02*
G75*
G03*
X96713427Y-81915000I1414200J1414228D01*
G01*
X94565772Y-70534200D02*
G75*
G03*
X93980000Y-71948427I1414228J-1414200D01*
G01*
X90805029Y-37492359D02*
G75*
G03*
X91683680Y-39613680I2999971J-41D01*
G01*
X101406573Y-81914980D02*
G75*
G03*
X102820786Y-81329212I27J1999980D01*
G01*
X93980020Y-79181573D02*
G75*
G03*
X94565788Y-80595786I1999980J-27D01*
G01*
X102944628Y-81205400D02*
G75*
G03*
X103530400Y-79791173I-1414228J1414200D01*
G01*
X93979971Y-43152641D02*
G75*
G03*
X93101321Y-41031321I-2999971J41D01*
G01*
X95299227Y-69800801D02*
G75*
G03*
X95885000Y-68386573I-1414227J1414201D01*
G01*
D34*
%TO.N,Net-(R1-Pad1)*%
X140970000Y-59055000D02*
X140970000Y-66675000D01*
%TO.N,Net-(R2-Pad1)*%
X143510000Y-51435000D02*
X143510000Y-47156068D01*
X143510000Y-51435000D02*
X143510000Y-52511573D01*
X119380000Y-57343427D02*
X119380000Y-57785000D01*
X142045534Y-43620534D02*
X140970000Y-42545000D01*
X142924213Y-53925787D02*
X142825786Y-54024214D01*
X120699213Y-55195787D02*
X119965786Y-55929214D01*
X141411573Y-54610000D02*
X122113427Y-54610000D01*
X141411573Y-54609980D02*
G75*
G03*
X142825785Y-54024213I27J1999980D01*
G01*
X143510022Y-47156068D02*
G75*
G03*
X142045533Y-43620535I-5000022J-32D01*
G01*
X119965772Y-55929200D02*
G75*
G03*
X119380000Y-57343427I1414228J-1414200D01*
G01*
X142924227Y-53925801D02*
G75*
G03*
X143510000Y-52511573I-1414227J1414201D01*
G01*
X122113427Y-54610020D02*
G75*
G03*
X120699214Y-55195788I-27J-1999980D01*
G01*
D35*
%TO.N,Net-(J3-Pin_1)*%
X65599466Y-59495534D02*
X66480534Y-58614466D01*
X64135000Y-70485000D02*
X64135000Y-63031068D01*
X70016068Y-57150000D02*
X77777500Y-57150000D01*
X70016068Y-57149978D02*
G75*
G03*
X66480535Y-58614467I32J-5000022D01*
G01*
X65599482Y-59495550D02*
G75*
G03*
X64135000Y-63031068I3535518J-3535550D01*
G01*
%TO.N,Net-(J4-Pin_2)*%
X105156000Y-52070000D02*
X105156000Y-61174932D01*
X106620466Y-64710466D02*
X107755534Y-65845534D01*
X119253000Y-69916427D02*
X119253000Y-71000000D01*
X118060787Y-67895787D02*
X118667214Y-68502214D01*
X111291068Y-67310000D02*
X116646573Y-67310000D01*
X105155978Y-61174932D02*
G75*
G03*
X106620467Y-64710465I5000022J32D01*
G01*
X118060801Y-67895773D02*
G75*
G03*
X116646573Y-67310000I-1414201J-1414227D01*
G01*
X107755550Y-65845518D02*
G75*
G03*
X111291068Y-67310000I3535550J3535518D01*
G01*
X119252980Y-69916427D02*
G75*
G03*
X118667213Y-68502215I-1999980J27D01*
G01*
%TO.N,Net-(J7-Pin_1)*%
X37455000Y-70485000D02*
X49557359Y-70485000D01*
X57150000Y-62892359D02*
X57150000Y-61515000D01*
X51678680Y-69606320D02*
X56271321Y-65013679D01*
X49557359Y-70484971D02*
G75*
G03*
X51678680Y-69606320I41J2999971D01*
G01*
X56271341Y-65013699D02*
G75*
G03*
X57150000Y-62892359I-2121341J2121299D01*
G01*
D34*
%TO.N,Net-(C3-Pad1)*%
X86226966Y-63783034D02*
X91430000Y-58580000D01*
X84762500Y-77470000D02*
X84762500Y-67318568D01*
X86226982Y-63783050D02*
G75*
G03*
X84762500Y-67318568I3535518J-3535550D01*
G01*
%TD*%
%TA.AperFunction,Conductor*%
%TO.N,GND2*%
G36*
X98108227Y-99775466D02*
G01*
X98154164Y-99820911D01*
X98171000Y-99883296D01*
X98171000Y-108585000D01*
X103889000Y-108585000D01*
X103951000Y-108601613D01*
X103996387Y-108647000D01*
X104013000Y-108709000D01*
X104013000Y-116970000D01*
X103996387Y-117032000D01*
X103951000Y-117077387D01*
X103889000Y-117094000D01*
X97536000Y-117094000D01*
X97536000Y-121572498D01*
X97532284Y-121602627D01*
X97499243Y-121734533D01*
X97438685Y-122142780D01*
X97418433Y-122554999D01*
X97438685Y-122967219D01*
X97499243Y-123375466D01*
X97532284Y-123507373D01*
X97536000Y-123537502D01*
X97536000Y-125987000D01*
X97519387Y-126049000D01*
X97474000Y-126094387D01*
X97412000Y-126111000D01*
X96354336Y-126111000D01*
X96310738Y-126103083D01*
X96272707Y-126080342D01*
X96270697Y-126078584D01*
X96025056Y-125915932D01*
X95759926Y-125787471D01*
X95480040Y-125695496D01*
X95190390Y-125641646D01*
X95017112Y-125631500D01*
X92448888Y-125631500D01*
X92275609Y-125641646D01*
X91985959Y-125695496D01*
X91706073Y-125787471D01*
X91440943Y-125915932D01*
X91195303Y-126078584D01*
X90973529Y-126272529D01*
X90779584Y-126494303D01*
X90616932Y-126739943D01*
X90488471Y-127005073D01*
X90396496Y-127284959D01*
X90342646Y-127574609D01*
X90332500Y-127747888D01*
X90332500Y-130316112D01*
X90342646Y-130489390D01*
X90396496Y-130779040D01*
X90488471Y-131058926D01*
X90616932Y-131324056D01*
X90616933Y-131324057D01*
X90779586Y-131569699D01*
X90973529Y-131791471D01*
X91195301Y-131985414D01*
X91440943Y-132148067D01*
X91706073Y-132276528D01*
X91843067Y-132321546D01*
X91985961Y-132368504D01*
X92275610Y-132422354D01*
X92448888Y-132432500D01*
X95017112Y-132432500D01*
X95190390Y-132422354D01*
X95480039Y-132368504D01*
X95759926Y-132276528D01*
X96025057Y-132148067D01*
X96059175Y-132125475D01*
X96096727Y-132100611D01*
X96129439Y-132085264D01*
X96165186Y-132080000D01*
X97412000Y-132080000D01*
X97474000Y-132096613D01*
X97519387Y-132142000D01*
X97536000Y-132204000D01*
X97536000Y-136812498D01*
X97532284Y-136842627D01*
X97499243Y-136974533D01*
X97438685Y-137382780D01*
X97418433Y-137794999D01*
X97438685Y-138207219D01*
X97499243Y-138615466D01*
X97532284Y-138747373D01*
X97536000Y-138777502D01*
X97536000Y-143017498D01*
X97532284Y-143047627D01*
X97499243Y-143179533D01*
X97438685Y-143587780D01*
X97418433Y-144000000D01*
X97438685Y-144412219D01*
X97499243Y-144820466D01*
X97532284Y-144952373D01*
X97536000Y-144982502D01*
X97536000Y-151020195D01*
X97519432Y-151082118D01*
X97474154Y-151127493D01*
X97412267Y-151144194D01*
X94773857Y-151149868D01*
X88303860Y-151163782D01*
X88267973Y-151158556D01*
X88235134Y-151143171D01*
X88055056Y-151023932D01*
X87789926Y-150895471D01*
X87510040Y-150803496D01*
X87220390Y-150749646D01*
X87047112Y-150739500D01*
X82878888Y-150739500D01*
X82705609Y-150749646D01*
X82415959Y-150803496D01*
X82136073Y-150895471D01*
X81870943Y-151023932D01*
X81669095Y-151157586D01*
X81636511Y-151172894D01*
X81600903Y-151178197D01*
X70800512Y-151201424D01*
X70739830Y-151185711D01*
X70694587Y-151142327D01*
X70676343Y-151082358D01*
X70689758Y-151021135D01*
X70857734Y-150691465D01*
X70992978Y-150339143D01*
X71090653Y-149974613D01*
X71149690Y-149601871D01*
X71169441Y-149225000D01*
X71149690Y-148848129D01*
X71120171Y-148661757D01*
X71090654Y-148475390D01*
X70992978Y-148110857D01*
X70857734Y-147758535D01*
X70686401Y-147422275D01*
X70480865Y-147105778D01*
X70480863Y-147105775D01*
X70243365Y-146812489D01*
X69976511Y-146545635D01*
X69683225Y-146308137D01*
X69683223Y-146308136D01*
X69683221Y-146308134D01*
X69366725Y-146102598D01*
X69030464Y-145931265D01*
X68678142Y-145796021D01*
X68313609Y-145698345D01*
X67940873Y-145639310D01*
X67564000Y-145619559D01*
X67187126Y-145639310D01*
X66814390Y-145698345D01*
X66449857Y-145796021D01*
X66097535Y-145931265D01*
X65761275Y-146102598D01*
X65444778Y-146308134D01*
X65151485Y-146545638D01*
X64884638Y-146812485D01*
X64647134Y-147105778D01*
X64441598Y-147422275D01*
X64270265Y-147758535D01*
X64135021Y-148110857D01*
X64037345Y-148475390D01*
X63978310Y-148848126D01*
X63958559Y-149225000D01*
X63978310Y-149601873D01*
X64037345Y-149974609D01*
X64135021Y-150339142D01*
X64270265Y-150691464D01*
X64444547Y-151033511D01*
X64442469Y-151034569D01*
X64458951Y-151086381D01*
X64444090Y-151150371D01*
X64398625Y-151197789D01*
X64335317Y-151215327D01*
X50786010Y-151244466D01*
X45209265Y-151256459D01*
X45147154Y-151239936D01*
X45101657Y-151194537D01*
X45085000Y-151132460D01*
X45085000Y-123822000D01*
X45101613Y-123760000D01*
X45147000Y-123714613D01*
X45209000Y-123698000D01*
X55455415Y-123698000D01*
X55519344Y-123715750D01*
X55564971Y-123763918D01*
X55579233Y-123828714D01*
X55558048Y-123891588D01*
X55501976Y-123974286D01*
X55329256Y-124300068D01*
X55192772Y-124642620D01*
X55094123Y-124997922D01*
X55034469Y-125361797D01*
X55014505Y-125729999D01*
X55034469Y-126098202D01*
X55094123Y-126462077D01*
X55192772Y-126817379D01*
X55329256Y-127159931D01*
X55501978Y-127485717D01*
X55708907Y-127790913D01*
X55708910Y-127790917D01*
X55872906Y-127983988D01*
X55947627Y-128071956D01*
X56215324Y-128325533D01*
X56215327Y-128325535D01*
X56215330Y-128325538D01*
X56508881Y-128548690D01*
X56824838Y-128738795D01*
X57159497Y-128893625D01*
X57389905Y-128971258D01*
X57508933Y-129011364D01*
X57573900Y-129025664D01*
X57869052Y-129090632D01*
X58199671Y-129126589D01*
X58235629Y-129130500D01*
X58235630Y-129130500D01*
X58604370Y-129130500D01*
X58604371Y-129130500D01*
X58637116Y-129126938D01*
X58970948Y-129090632D01*
X59331066Y-129011364D01*
X59625636Y-128912112D01*
X69116500Y-128912112D01*
X69126646Y-129085390D01*
X69180496Y-129375040D01*
X69272471Y-129654926D01*
X69400932Y-129920056D01*
X69400933Y-129920057D01*
X69563586Y-130165699D01*
X69757529Y-130387471D01*
X69979301Y-130581414D01*
X69979303Y-130581415D01*
X70224943Y-130744067D01*
X70490073Y-130872528D01*
X70627067Y-130917546D01*
X70769961Y-130964504D01*
X71059610Y-131018354D01*
X71232888Y-131028500D01*
X73801112Y-131028500D01*
X73974390Y-131018354D01*
X74264039Y-130964504D01*
X74543926Y-130872528D01*
X74809057Y-130744067D01*
X75054699Y-130581414D01*
X75276471Y-130387471D01*
X75470414Y-130165699D01*
X75633067Y-129920057D01*
X75761528Y-129654926D01*
X75853504Y-129375039D01*
X75907354Y-129085390D01*
X75917500Y-128912112D01*
X75917500Y-126343888D01*
X75907354Y-126170610D01*
X75853504Y-125880961D01*
X75761528Y-125601074D01*
X75633067Y-125335943D01*
X75470414Y-125090301D01*
X75276471Y-124868529D01*
X75054699Y-124674586D01*
X74847654Y-124537490D01*
X74809056Y-124511932D01*
X74543926Y-124383471D01*
X74264040Y-124291496D01*
X73974390Y-124237646D01*
X73801112Y-124227500D01*
X71232888Y-124227500D01*
X71059609Y-124237646D01*
X70769959Y-124291496D01*
X70490073Y-124383471D01*
X70224943Y-124511932D01*
X69979303Y-124674584D01*
X69757529Y-124868529D01*
X69563584Y-125090303D01*
X69400932Y-125335943D01*
X69272471Y-125601073D01*
X69180496Y-125880959D01*
X69126646Y-126170609D01*
X69116500Y-126343888D01*
X69116500Y-128912112D01*
X59625636Y-128912112D01*
X59680503Y-128893625D01*
X60015162Y-128738795D01*
X60331119Y-128548690D01*
X60624670Y-128325538D01*
X60892373Y-128071956D01*
X61131090Y-127790917D01*
X61338022Y-127485716D01*
X61444457Y-127284959D01*
X61510743Y-127159931D01*
X61647227Y-126817379D01*
X61745876Y-126462077D01*
X61776951Y-126272529D01*
X61805531Y-126098199D01*
X61825494Y-125730000D01*
X61805531Y-125361801D01*
X61745875Y-124997919D01*
X61727295Y-124931003D01*
X61726496Y-124867687D01*
X61757064Y-124812231D01*
X63517620Y-122967218D01*
X63874330Y-122593396D01*
X63915249Y-122565002D01*
X63964040Y-122555000D01*
X74040999Y-122555000D01*
X74041000Y-122555000D01*
X76434178Y-120251404D01*
X76478516Y-120223948D01*
X76530225Y-120217151D01*
X76580152Y-120232217D01*
X76587167Y-120236094D01*
X76919276Y-120373659D01*
X77264700Y-120473173D01*
X77619093Y-120533387D01*
X77978000Y-120553543D01*
X78336907Y-120533387D01*
X78691300Y-120473173D01*
X79036724Y-120373659D01*
X79368833Y-120236094D01*
X79683452Y-120062211D01*
X79976623Y-119854194D01*
X80244661Y-119614661D01*
X80484194Y-119346623D01*
X80692211Y-119053452D01*
X80866094Y-118738833D01*
X81003659Y-118406724D01*
X81103173Y-118061300D01*
X81163387Y-117706907D01*
X81183543Y-117348000D01*
X81163387Y-116989093D01*
X81103173Y-116634700D01*
X81003659Y-116289276D01*
X80906816Y-116055479D01*
X80897381Y-116007241D01*
X80907429Y-115959124D01*
X80935383Y-115918694D01*
X83178207Y-113759826D01*
X83218204Y-113734011D01*
X83264984Y-113725169D01*
X83311648Y-113734604D01*
X83396276Y-113769659D01*
X83741700Y-113869173D01*
X84096093Y-113929387D01*
X84455000Y-113949543D01*
X84813907Y-113929387D01*
X85168300Y-113869173D01*
X85513724Y-113769659D01*
X85845833Y-113632094D01*
X86160452Y-113458211D01*
X86406414Y-113283691D01*
X86453622Y-113250195D01*
X86467874Y-113237458D01*
X86721661Y-113010661D01*
X86961194Y-112742623D01*
X87056562Y-112608216D01*
X87169207Y-112449458D01*
X87169207Y-112449456D01*
X87169211Y-112449452D01*
X87343094Y-112134833D01*
X87480659Y-111802724D01*
X87580173Y-111457300D01*
X87640387Y-111102907D01*
X87660543Y-110744000D01*
X87640387Y-110385093D01*
X87580173Y-110030700D01*
X87486273Y-109704766D01*
X87485659Y-109638325D01*
X87519434Y-109581105D01*
X89070967Y-108087650D01*
X89126519Y-108056782D01*
X89360808Y-107997453D01*
X89622380Y-107899518D01*
X89695667Y-107872079D01*
X89695669Y-107872077D01*
X89695674Y-107872076D01*
X90014714Y-107710623D01*
X90314057Y-107515053D01*
X90590069Y-107287739D01*
X90839399Y-107031441D01*
X91059021Y-106749271D01*
X91246269Y-106444653D01*
X91398870Y-106121285D01*
X91514972Y-105783092D01*
X91520525Y-105758309D01*
X91533451Y-105724630D01*
X91555526Y-105696096D01*
X97684096Y-99796938D01*
X97723108Y-99771522D01*
X97768742Y-99762287D01*
X98045664Y-99759303D01*
X98108227Y-99775466D01*
G37*
%TD.AperFunction*%
%TD*%
%TA.AperFunction,Conductor*%
%TO.N,GND*%
G36*
X152338000Y-22876613D02*
G01*
X152383387Y-22922000D01*
X152400000Y-22984000D01*
X152400000Y-37465000D01*
X154870282Y-37465000D01*
X154892633Y-37467030D01*
X155133971Y-37511258D01*
X155448000Y-37530253D01*
X155762029Y-37511258D01*
X156003366Y-37467030D01*
X156025718Y-37465000D01*
X157991000Y-37465000D01*
X158053000Y-37481613D01*
X158098387Y-37527000D01*
X158115000Y-37589000D01*
X158115000Y-42114501D01*
X158113248Y-42135271D01*
X158104613Y-42186090D01*
X158084457Y-42545000D01*
X158104613Y-42903909D01*
X158113248Y-42954729D01*
X158115000Y-42975499D01*
X158115000Y-43180000D01*
X158131051Y-43196051D01*
X158153531Y-43226805D01*
X158161920Y-43251890D01*
X158162899Y-43251609D01*
X158264341Y-43603724D01*
X158401905Y-43935831D01*
X158575792Y-44250458D01*
X158783804Y-44543622D01*
X158916308Y-44691893D01*
X159023339Y-44811661D01*
X159092788Y-44873724D01*
X159291377Y-45051195D01*
X159584541Y-45259207D01*
X159584547Y-45259210D01*
X159584548Y-45259211D01*
X159899167Y-45433094D01*
X160231276Y-45570659D01*
X160576700Y-45670173D01*
X160931093Y-45730387D01*
X161290000Y-45750543D01*
X161648907Y-45730387D01*
X162003300Y-45670173D01*
X162123057Y-45635672D01*
X162274673Y-45591993D01*
X162331483Y-45589202D01*
X162383563Y-45612070D01*
X162419955Y-45655784D01*
X162433000Y-45711147D01*
X162433000Y-57785000D01*
X174755000Y-57785000D01*
X174817000Y-57801613D01*
X174862387Y-57847000D01*
X174879000Y-57909000D01*
X174879000Y-76711000D01*
X174862387Y-76773000D01*
X174817000Y-76818387D01*
X174755000Y-76835000D01*
X166243000Y-76835000D01*
X166243000Y-83696000D01*
X166226387Y-83758000D01*
X166181000Y-83803387D01*
X166119000Y-83820000D01*
X123949000Y-83820000D01*
X123887000Y-83803387D01*
X123841613Y-83758000D01*
X123825000Y-83696000D01*
X123825000Y-79755639D01*
X123839154Y-79698108D01*
X123878384Y-79653711D01*
X123933735Y-79632582D01*
X123992571Y-79639546D01*
X124041457Y-79673010D01*
X124098339Y-79736661D01*
X124183826Y-79813056D01*
X124366377Y-79976195D01*
X124659541Y-80184207D01*
X124659547Y-80184210D01*
X124659548Y-80184211D01*
X124974167Y-80358094D01*
X125306276Y-80495659D01*
X125651700Y-80595173D01*
X126006093Y-80655387D01*
X126365000Y-80675543D01*
X126723907Y-80655387D01*
X127078300Y-80595173D01*
X127423724Y-80495659D01*
X127755833Y-80358094D01*
X128070452Y-80184211D01*
X128070458Y-80184207D01*
X128363622Y-79976195D01*
X128417112Y-79928393D01*
X128631661Y-79736661D01*
X128871194Y-79468623D01*
X128930865Y-79384526D01*
X129079207Y-79175458D01*
X129079207Y-79175456D01*
X129079211Y-79175452D01*
X129253094Y-78860833D01*
X129390659Y-78528724D01*
X129490173Y-78183300D01*
X129550387Y-77828907D01*
X129570543Y-77470000D01*
X130144457Y-77470000D01*
X130164613Y-77828908D01*
X130224826Y-78183299D01*
X130324341Y-78528724D01*
X130461905Y-78860831D01*
X130635792Y-79175458D01*
X130843804Y-79468622D01*
X130976308Y-79616893D01*
X131083339Y-79736661D01*
X131217358Y-79856427D01*
X131351377Y-79976195D01*
X131644541Y-80184207D01*
X131644547Y-80184210D01*
X131644548Y-80184211D01*
X131959167Y-80358094D01*
X132291276Y-80495659D01*
X132636700Y-80595173D01*
X132991093Y-80655387D01*
X133350000Y-80675543D01*
X133708907Y-80655387D01*
X133770046Y-80644999D01*
X154704356Y-80644999D01*
X154724891Y-80892816D01*
X154724891Y-80892819D01*
X154724892Y-80892821D01*
X154785937Y-81133881D01*
X154830960Y-81236523D01*
X154885825Y-81361604D01*
X154885827Y-81361607D01*
X155021836Y-81569785D01*
X155190256Y-81752738D01*
X155190259Y-81752740D01*
X155386485Y-81905470D01*
X155386487Y-81905471D01*
X155386491Y-81905474D01*
X155605190Y-82023828D01*
X155840386Y-82104571D01*
X156085665Y-82145500D01*
X156334335Y-82145500D01*
X156579614Y-82104571D01*
X156814810Y-82023828D01*
X157033509Y-81905474D01*
X157229744Y-81752738D01*
X157398164Y-81569785D01*
X157534173Y-81361607D01*
X157634063Y-81133881D01*
X157695108Y-80892821D01*
X157715643Y-80645000D01*
X157695108Y-80397179D01*
X157634063Y-80156119D01*
X157534173Y-79928393D01*
X157398164Y-79720215D01*
X157229744Y-79537262D01*
X157141557Y-79468623D01*
X157033514Y-79384529D01*
X157033510Y-79384526D01*
X157033509Y-79384526D01*
X156814810Y-79266172D01*
X156814806Y-79266170D01*
X156814805Y-79266170D01*
X156579615Y-79185429D01*
X156334335Y-79144500D01*
X156085665Y-79144500D01*
X155840384Y-79185429D01*
X155605194Y-79266170D01*
X155386485Y-79384529D01*
X155190259Y-79537259D01*
X155190256Y-79537261D01*
X155190256Y-79537262D01*
X155021836Y-79720215D01*
X154976499Y-79789607D01*
X154885825Y-79928395D01*
X154795780Y-80133678D01*
X154785937Y-80156119D01*
X154734790Y-80358094D01*
X154724891Y-80397183D01*
X154704356Y-80644999D01*
X133770046Y-80644999D01*
X134063300Y-80595173D01*
X134408724Y-80495659D01*
X134740833Y-80358094D01*
X135055452Y-80184211D01*
X135055458Y-80184207D01*
X135348622Y-79976195D01*
X135402112Y-79928393D01*
X135616661Y-79736661D01*
X135856194Y-79468623D01*
X135915865Y-79384526D01*
X136064207Y-79175458D01*
X136064207Y-79175456D01*
X136064211Y-79175452D01*
X136238094Y-78860833D01*
X136375659Y-78528724D01*
X136475173Y-78183300D01*
X136535387Y-77828907D01*
X136555543Y-77470000D01*
X136535387Y-77111093D01*
X136475173Y-76756700D01*
X136375659Y-76411276D01*
X136238094Y-76079167D01*
X136064211Y-75764548D01*
X136064210Y-75764547D01*
X136064207Y-75764541D01*
X135856195Y-75471377D01*
X135736427Y-75337357D01*
X135616661Y-75203339D01*
X135496893Y-75096308D01*
X135348622Y-74963804D01*
X135055458Y-74755792D01*
X134740831Y-74581905D01*
X134408724Y-74444341D01*
X134063299Y-74344826D01*
X133708908Y-74284613D01*
X133350000Y-74264457D01*
X132991091Y-74284613D01*
X132636700Y-74344826D01*
X132291275Y-74444341D01*
X131959168Y-74581905D01*
X131644541Y-74755792D01*
X131351377Y-74963804D01*
X131083339Y-75203339D01*
X130843804Y-75471377D01*
X130635792Y-75764541D01*
X130461905Y-76079168D01*
X130324341Y-76411275D01*
X130224826Y-76756700D01*
X130164613Y-77111091D01*
X130144457Y-77470000D01*
X129570543Y-77470000D01*
X129550387Y-77111093D01*
X129490173Y-76756700D01*
X129390659Y-76411276D01*
X129253094Y-76079167D01*
X129079211Y-75764548D01*
X129079210Y-75764547D01*
X129079207Y-75764541D01*
X128871195Y-75471377D01*
X128751427Y-75337357D01*
X128631661Y-75203339D01*
X128511893Y-75096308D01*
X128363622Y-74963804D01*
X128070458Y-74755792D01*
X127755831Y-74581905D01*
X127423724Y-74444341D01*
X127078299Y-74344826D01*
X126723908Y-74284613D01*
X126365000Y-74264457D01*
X126006091Y-74284613D01*
X125651700Y-74344826D01*
X125306275Y-74444341D01*
X124974168Y-74581905D01*
X124659541Y-74755792D01*
X124366377Y-74963804D01*
X124098344Y-75203334D01*
X124098341Y-75203336D01*
X124098339Y-75203339D01*
X124041457Y-75266989D01*
X123992571Y-75300454D01*
X123933735Y-75307418D01*
X123878384Y-75286289D01*
X123839154Y-75241892D01*
X123825000Y-75184361D01*
X123825000Y-73660000D01*
X158084457Y-73660000D01*
X158104613Y-74018908D01*
X158164826Y-74373299D01*
X158264341Y-74718724D01*
X158401905Y-75050831D01*
X158575792Y-75365458D01*
X158783804Y-75658622D01*
X158878460Y-75764541D01*
X159023339Y-75926661D01*
X159157357Y-76046427D01*
X159291377Y-76166195D01*
X159584541Y-76374207D01*
X159584547Y-76374210D01*
X159584548Y-76374211D01*
X159899167Y-76548094D01*
X160231276Y-76685659D01*
X160576700Y-76785173D01*
X160931093Y-76845387D01*
X161290000Y-76865543D01*
X161648907Y-76845387D01*
X162003300Y-76785173D01*
X162348724Y-76685659D01*
X162680833Y-76548094D01*
X162995452Y-76374211D01*
X163288623Y-76166194D01*
X163556661Y-75926661D01*
X163796194Y-75658623D01*
X164004211Y-75365452D01*
X164178094Y-75050833D01*
X164315659Y-74718724D01*
X164415173Y-74373300D01*
X164475387Y-74018907D01*
X164495543Y-73660000D01*
X164475387Y-73301093D01*
X164415173Y-72946700D01*
X164315659Y-72601276D01*
X164178094Y-72269167D01*
X164004211Y-71954548D01*
X164004210Y-71954547D01*
X164004207Y-71954541D01*
X163796195Y-71661377D01*
X163676427Y-71527358D01*
X163556661Y-71393339D01*
X163436893Y-71286308D01*
X163288622Y-71153804D01*
X162995458Y-70945792D01*
X162680831Y-70771905D01*
X162348724Y-70634341D01*
X162003299Y-70534826D01*
X161648908Y-70474613D01*
X161290000Y-70454457D01*
X160931091Y-70474613D01*
X160576700Y-70534826D01*
X160231275Y-70634341D01*
X159899168Y-70771905D01*
X159584541Y-70945792D01*
X159291377Y-71153804D01*
X159023339Y-71393339D01*
X158783804Y-71661377D01*
X158575792Y-71954541D01*
X158401905Y-72269168D01*
X158264341Y-72601275D01*
X158164826Y-72946700D01*
X158104613Y-73301091D01*
X158084457Y-73660000D01*
X123825000Y-73660000D01*
X123825000Y-66083111D01*
X123841430Y-66021428D01*
X123886368Y-65976091D01*
X123947901Y-65959116D01*
X137718028Y-65837256D01*
X137770607Y-65848443D01*
X137813511Y-65880831D01*
X137838676Y-65928333D01*
X137841373Y-65982021D01*
X137784613Y-66316090D01*
X137764457Y-66675000D01*
X137784613Y-67033908D01*
X137844826Y-67388299D01*
X137944341Y-67733724D01*
X138081905Y-68065831D01*
X138255792Y-68380458D01*
X138463804Y-68673622D01*
X138596308Y-68821893D01*
X138703339Y-68941661D01*
X138837358Y-69061427D01*
X138971377Y-69181195D01*
X139264541Y-69389207D01*
X139264547Y-69389210D01*
X139264548Y-69389211D01*
X139579167Y-69563094D01*
X139911276Y-69700659D01*
X140256700Y-69800173D01*
X140611093Y-69860387D01*
X140970000Y-69880543D01*
X141328907Y-69860387D01*
X141683300Y-69800173D01*
X142028724Y-69700659D01*
X142360833Y-69563094D01*
X142675452Y-69389211D01*
X142968623Y-69181194D01*
X143236661Y-68941661D01*
X143476194Y-68673623D01*
X143684211Y-68380452D01*
X143858094Y-68065833D01*
X143995659Y-67733724D01*
X144095173Y-67388300D01*
X144155387Y-67033907D01*
X144175543Y-66675000D01*
X158084457Y-66675000D01*
X158104613Y-67033908D01*
X158164826Y-67388299D01*
X158264341Y-67733724D01*
X158401905Y-68065831D01*
X158575792Y-68380458D01*
X158783804Y-68673622D01*
X158916308Y-68821893D01*
X159023339Y-68941661D01*
X159157358Y-69061427D01*
X159291377Y-69181195D01*
X159584541Y-69389207D01*
X159584547Y-69389210D01*
X159584548Y-69389211D01*
X159899167Y-69563094D01*
X160231276Y-69700659D01*
X160576700Y-69800173D01*
X160931093Y-69860387D01*
X161290000Y-69880543D01*
X161648907Y-69860387D01*
X162003300Y-69800173D01*
X162348724Y-69700659D01*
X162680833Y-69563094D01*
X162995452Y-69389211D01*
X163288623Y-69181194D01*
X163556661Y-68941661D01*
X163796194Y-68673623D01*
X164004211Y-68380452D01*
X164178094Y-68065833D01*
X164315659Y-67733724D01*
X164415173Y-67388300D01*
X164475387Y-67033907D01*
X164495543Y-66675000D01*
X164475387Y-66316093D01*
X164415173Y-65961700D01*
X164315659Y-65616276D01*
X164178094Y-65284167D01*
X164004211Y-64969548D01*
X164004210Y-64969546D01*
X164004207Y-64969541D01*
X163796195Y-64676377D01*
X163676427Y-64542357D01*
X163556661Y-64408339D01*
X163436893Y-64301308D01*
X163288622Y-64168804D01*
X162995458Y-63960792D01*
X162680831Y-63786905D01*
X162348724Y-63649341D01*
X162003299Y-63549826D01*
X161648908Y-63489613D01*
X161290000Y-63469457D01*
X160931091Y-63489613D01*
X160576700Y-63549826D01*
X160231275Y-63649341D01*
X159899168Y-63786905D01*
X159584541Y-63960792D01*
X159291377Y-64168804D01*
X159023339Y-64408339D01*
X158783804Y-64676377D01*
X158575792Y-64969541D01*
X158401905Y-65284168D01*
X158264341Y-65616275D01*
X158164826Y-65961700D01*
X158104613Y-66316091D01*
X158084457Y-66675000D01*
X144175543Y-66675000D01*
X144155387Y-66316093D01*
X144095173Y-65961700D01*
X143995659Y-65616276D01*
X143858094Y-65284167D01*
X143684211Y-64969548D01*
X143532870Y-64756254D01*
X143515856Y-64722156D01*
X143510000Y-64684500D01*
X143510000Y-61776979D01*
X143525386Y-61717154D01*
X143567726Y-61672175D01*
X143626511Y-61653205D01*
X143824029Y-61641258D01*
X144133478Y-61584549D01*
X144433835Y-61490954D01*
X144720721Y-61361837D01*
X144989952Y-61199081D01*
X145237602Y-61005060D01*
X145460060Y-60782602D01*
X145654081Y-60534952D01*
X145816837Y-60265721D01*
X145936925Y-59998894D01*
X145971191Y-59954054D01*
X146021782Y-59929041D01*
X146078218Y-59929041D01*
X146128809Y-59954054D01*
X146163074Y-59998894D01*
X146283163Y-60265721D01*
X146283164Y-60265722D01*
X146445918Y-60534952D01*
X146581305Y-60707760D01*
X146639940Y-60782602D01*
X146862398Y-61005060D01*
X146974660Y-61093012D01*
X147110047Y-61199081D01*
X147226677Y-61269586D01*
X147379279Y-61361837D01*
X147666165Y-61490954D01*
X147966522Y-61584549D01*
X148275971Y-61641258D01*
X148590000Y-61660253D01*
X148904029Y-61641258D01*
X149213478Y-61584549D01*
X149513835Y-61490954D01*
X149800721Y-61361837D01*
X150069952Y-61199081D01*
X150317602Y-61005060D01*
X150540060Y-60782602D01*
X150734081Y-60534952D01*
X150896837Y-60265721D01*
X151025954Y-59978835D01*
X151100510Y-59739574D01*
X151130000Y-59690794D01*
X151130000Y-59632718D01*
X151132031Y-59610366D01*
X151176258Y-59369029D01*
X151195253Y-59055000D01*
X151176258Y-58740971D01*
X151132030Y-58499633D01*
X151130000Y-58477282D01*
X151130000Y-48260000D01*
X146034500Y-48260000D01*
X145972500Y-48243387D01*
X145927113Y-48198000D01*
X145910500Y-48136000D01*
X145910500Y-47307087D01*
X145910501Y-47307079D01*
X145910500Y-47207435D01*
X145910521Y-47207329D01*
X145910521Y-47156053D01*
X145910522Y-47156053D01*
X145910520Y-46913785D01*
X145902367Y-46789411D01*
X145892005Y-46631326D01*
X145878827Y-46430288D01*
X145815579Y-45949899D01*
X145721049Y-45474675D01*
X145595639Y-45006651D01*
X145439888Y-44547831D01*
X145254462Y-44100180D01*
X145040155Y-43665615D01*
X144797886Y-43245997D01*
X144681036Y-43071121D01*
X144528689Y-42843119D01*
X144233726Y-42458721D01*
X144233723Y-42458717D01*
X144194563Y-42414064D01*
X144173011Y-42379223D01*
X144163988Y-42339263D01*
X144155387Y-42186093D01*
X144095173Y-41831700D01*
X143995659Y-41486276D01*
X143858094Y-41154167D01*
X143684211Y-40839548D01*
X143532870Y-40626254D01*
X143515856Y-40592156D01*
X143510000Y-40554500D01*
X143510000Y-37846000D01*
X143509999Y-37845999D01*
X128000415Y-37983252D01*
X127935547Y-37965602D01*
X127889423Y-37916695D01*
X127875600Y-37850905D01*
X127898140Y-37787571D01*
X127950416Y-37745307D01*
X128040869Y-37706491D01*
X128377911Y-37519417D01*
X128694298Y-37299205D01*
X128986784Y-37048115D01*
X129252366Y-36768722D01*
X129488320Y-36463895D01*
X129692225Y-36136760D01*
X129861987Y-35790675D01*
X129995866Y-35429192D01*
X130016241Y-35350502D01*
X130092487Y-35056022D01*
X130099709Y-35008881D01*
X130150860Y-34674984D01*
X130158720Y-34520000D01*
X131844356Y-34520000D01*
X131864891Y-34767816D01*
X131864891Y-34767819D01*
X131864892Y-34767821D01*
X131925937Y-35008881D01*
X131946615Y-35056021D01*
X132025825Y-35236604D01*
X132025827Y-35236607D01*
X132161836Y-35444785D01*
X132330256Y-35627738D01*
X132330259Y-35627740D01*
X132526485Y-35780470D01*
X132526487Y-35780471D01*
X132526491Y-35780474D01*
X132745190Y-35898828D01*
X132980386Y-35979571D01*
X133225665Y-36020500D01*
X133474335Y-36020500D01*
X133719614Y-35979571D01*
X133954810Y-35898828D01*
X134173509Y-35780474D01*
X134369744Y-35627738D01*
X134538164Y-35444785D01*
X134674173Y-35236607D01*
X134774063Y-35008881D01*
X134835108Y-34767821D01*
X134855643Y-34520000D01*
X134835108Y-34272179D01*
X134774063Y-34031119D01*
X134674173Y-33803393D01*
X134538164Y-33595215D01*
X134369744Y-33412262D01*
X134347612Y-33395036D01*
X134173514Y-33259529D01*
X134173510Y-33259526D01*
X134173509Y-33259526D01*
X133954810Y-33141172D01*
X133954806Y-33141170D01*
X133954805Y-33141170D01*
X133719615Y-33060429D01*
X133474335Y-33019500D01*
X133225665Y-33019500D01*
X132980384Y-33060429D01*
X132745194Y-33141170D01*
X132526485Y-33259529D01*
X132330259Y-33412259D01*
X132161837Y-33595214D01*
X132025825Y-33803395D01*
X131942597Y-33993138D01*
X131925937Y-34031119D01*
X131890978Y-34169168D01*
X131864891Y-34272183D01*
X131844356Y-34520000D01*
X130158720Y-34520000D01*
X130170384Y-34290000D01*
X130150860Y-33905016D01*
X130092488Y-33523982D01*
X130063561Y-33412259D01*
X129995867Y-33150810D01*
X129914322Y-32930633D01*
X129861987Y-32789325D01*
X129692225Y-32443240D01*
X129488320Y-32116105D01*
X129387589Y-31985972D01*
X129252371Y-31811284D01*
X129252369Y-31811281D01*
X129252366Y-31811278D01*
X128986784Y-31531885D01*
X128986782Y-31531883D01*
X128986779Y-31531880D01*
X128694300Y-31280796D01*
X128377912Y-31060584D01*
X128377911Y-31060583D01*
X128040869Y-30873509D01*
X127686630Y-30721493D01*
X127686628Y-30721492D01*
X127686625Y-30721491D01*
X127318834Y-30606096D01*
X126941240Y-30528497D01*
X126628534Y-30496699D01*
X126557740Y-30489500D01*
X126172260Y-30489500D01*
X126107447Y-30496090D01*
X125788759Y-30528497D01*
X125411165Y-30606096D01*
X125043374Y-30721491D01*
X124689132Y-30873508D01*
X124352087Y-31060584D01*
X124035699Y-31280796D01*
X123743220Y-31531880D01*
X123477628Y-31811284D01*
X123241683Y-32116100D01*
X123037775Y-32443240D01*
X122868011Y-32789329D01*
X122734132Y-33150810D01*
X122637512Y-33523977D01*
X122579140Y-33905013D01*
X122559616Y-34290000D01*
X122579140Y-34674986D01*
X122637512Y-35056022D01*
X122734132Y-35429189D01*
X122829912Y-35687800D01*
X122868013Y-35790675D01*
X123037775Y-36136760D01*
X123241680Y-36463895D01*
X123241682Y-36463898D01*
X123241683Y-36463899D01*
X123477628Y-36768715D01*
X123477631Y-36768718D01*
X123477634Y-36768722D01*
X123615860Y-36914136D01*
X123743220Y-37048119D01*
X124035699Y-37299203D01*
X124035702Y-37299205D01*
X124352089Y-37519417D01*
X124689131Y-37706491D01*
X124845625Y-37773648D01*
X124897648Y-37815554D01*
X124920380Y-37878371D01*
X124907223Y-37943866D01*
X124861994Y-37993030D01*
X124797821Y-38011593D01*
X115691952Y-38092177D01*
X115630905Y-38076727D01*
X115585318Y-38033282D01*
X115566951Y-37973048D01*
X115580537Y-37911562D01*
X115634044Y-37807315D01*
X115751436Y-37491275D01*
X115830625Y-37163569D01*
X115870500Y-36828797D01*
X115870500Y-35056024D01*
X115867702Y-35008882D01*
X115855525Y-34803686D01*
X115855525Y-34803682D01*
X115795888Y-34471860D01*
X115697425Y-34149421D01*
X115697424Y-34149417D01*
X115561517Y-33840889D01*
X115418649Y-33598988D01*
X115390071Y-33550600D01*
X115284460Y-33412259D01*
X115185496Y-33282624D01*
X114950663Y-33040727D01*
X114910299Y-33007975D01*
X114814982Y-32930632D01*
X114688865Y-32828298D01*
X114403784Y-32648327D01*
X114099411Y-32503333D01*
X113780039Y-32395361D01*
X113780038Y-32395360D01*
X113780036Y-32395360D01*
X113651726Y-32368351D01*
X113450126Y-32325916D01*
X113114327Y-32295980D01*
X112948709Y-32300890D01*
X112777332Y-32305971D01*
X112443888Y-32355748D01*
X112154493Y-32434826D01*
X112118673Y-32444614D01*
X111806247Y-32571320D01*
X111511008Y-32734086D01*
X111379707Y-32828298D01*
X111355327Y-32845792D01*
X111237086Y-32930633D01*
X110988334Y-33158194D01*
X110768243Y-33413580D01*
X110590737Y-33677117D01*
X110544513Y-33718163D01*
X110484216Y-33731791D01*
X110424833Y-33714614D01*
X110381122Y-33670903D01*
X110338649Y-33598988D01*
X110310071Y-33550600D01*
X110204460Y-33412259D01*
X110105496Y-33282624D01*
X109870663Y-33040727D01*
X109830299Y-33007975D01*
X109734982Y-32930632D01*
X109608865Y-32828298D01*
X109323784Y-32648327D01*
X109019411Y-32503333D01*
X108700039Y-32395361D01*
X108700038Y-32395360D01*
X108700036Y-32395360D01*
X108571726Y-32368351D01*
X108370126Y-32325916D01*
X108034327Y-32295980D01*
X107868709Y-32300890D01*
X107697332Y-32305971D01*
X107363888Y-32355748D01*
X107074493Y-32434826D01*
X107038673Y-32444614D01*
X106726247Y-32571320D01*
X106431008Y-32734086D01*
X106299707Y-32828298D01*
X106275327Y-32845792D01*
X106157086Y-32930633D01*
X105908334Y-33158194D01*
X105688243Y-33413580D01*
X105499902Y-33693204D01*
X105345956Y-33993138D01*
X105228565Y-34309178D01*
X105154289Y-34616552D01*
X105149375Y-34636887D01*
X105119517Y-34887566D01*
X105109500Y-34971662D01*
X105109500Y-36744435D01*
X105124474Y-36996769D01*
X105184112Y-37328596D01*
X105282575Y-37651038D01*
X105403703Y-37926013D01*
X105413813Y-37986095D01*
X105394087Y-38043741D01*
X105349285Y-38085032D01*
X105290225Y-38100000D01*
X98992683Y-38100000D01*
X98940277Y-38088382D01*
X98897692Y-38055704D01*
X98872907Y-38008091D01*
X98870960Y-37963474D01*
X98869842Y-37963409D01*
X98876681Y-37845999D01*
X98890585Y-37607272D01*
X98870262Y-37258345D01*
X98809569Y-36914136D01*
X98709326Y-36579301D01*
X98570889Y-36258368D01*
X98396130Y-35955676D01*
X98187412Y-35675319D01*
X97947558Y-35421089D01*
X97679811Y-35196423D01*
X97679807Y-35196420D01*
X97679803Y-35196417D01*
X97387793Y-35004358D01*
X97075454Y-34847495D01*
X96747014Y-34727954D01*
X96747013Y-34727953D01*
X96747011Y-34727953D01*
X96560157Y-34683668D01*
X96406915Y-34647349D01*
X96349054Y-34640586D01*
X96059759Y-34606772D01*
X95710241Y-34606772D01*
X95462273Y-34635755D01*
X95363084Y-34647349D01*
X95022985Y-34727954D01*
X94694545Y-34847495D01*
X94382206Y-35004358D01*
X94090196Y-35196417D01*
X94053860Y-35226905D01*
X93822442Y-35421089D01*
X93822438Y-35421092D01*
X93822437Y-35421094D01*
X93582589Y-35675317D01*
X93373869Y-35955676D01*
X93199112Y-36258365D01*
X93199111Y-36258368D01*
X93060674Y-36579301D01*
X93048872Y-36618724D01*
X92960429Y-36914141D01*
X92899738Y-37258344D01*
X92879414Y-37607271D01*
X92900158Y-37963409D01*
X92899039Y-37963474D01*
X92897093Y-38008091D01*
X92872308Y-38055704D01*
X92829723Y-38088382D01*
X92777317Y-38100000D01*
X87048139Y-38100000D01*
X86990608Y-38085846D01*
X86946211Y-38046616D01*
X86925082Y-37991265D01*
X86932046Y-37932429D01*
X86965510Y-37883542D01*
X87029161Y-37826661D01*
X87268694Y-37558623D01*
X87291132Y-37527000D01*
X87476708Y-37265457D01*
X87480639Y-37258344D01*
X87650594Y-36950833D01*
X87788159Y-36618724D01*
X87887673Y-36273300D01*
X87947887Y-35918907D01*
X87968043Y-35560000D01*
X87947887Y-35201093D01*
X87887673Y-34846700D01*
X87788159Y-34501276D01*
X87650594Y-34169167D01*
X87476711Y-33854548D01*
X87476710Y-33854547D01*
X87476707Y-33854541D01*
X87268695Y-33561377D01*
X87086318Y-33357298D01*
X87029161Y-33293339D01*
X86909393Y-33186308D01*
X86761122Y-33053804D01*
X86467958Y-32845792D01*
X86172865Y-32682701D01*
X86153333Y-32671906D01*
X85821224Y-32534341D01*
X85821223Y-32534340D01*
X85475799Y-32434826D01*
X85121408Y-32374613D01*
X84762500Y-32354457D01*
X84403591Y-32374613D01*
X84049200Y-32434826D01*
X83703775Y-32534341D01*
X83371668Y-32671905D01*
X83057041Y-32845792D01*
X82763877Y-33053804D01*
X82495839Y-33293339D01*
X82256304Y-33561377D01*
X82048292Y-33854541D01*
X81874405Y-34169168D01*
X81736841Y-34501275D01*
X81637326Y-34846700D01*
X81577113Y-35201091D01*
X81556957Y-35560000D01*
X81577113Y-35918908D01*
X81637326Y-36273299D01*
X81736841Y-36618724D01*
X81874405Y-36950831D01*
X82048292Y-37265457D01*
X82256304Y-37558622D01*
X82423136Y-37745306D01*
X82495839Y-37826661D01*
X82559489Y-37883542D01*
X82592954Y-37932429D01*
X82599918Y-37991265D01*
X82578789Y-38046616D01*
X82534392Y-38085846D01*
X82476861Y-38100000D01*
X66728139Y-38100000D01*
X66670608Y-38085846D01*
X66626211Y-38046616D01*
X66605082Y-37991265D01*
X66612046Y-37932429D01*
X66645510Y-37883542D01*
X66709161Y-37826661D01*
X66948694Y-37558623D01*
X66971132Y-37527000D01*
X67156708Y-37265457D01*
X67160639Y-37258344D01*
X67330594Y-36950833D01*
X67468159Y-36618724D01*
X67567673Y-36273300D01*
X67627887Y-35918907D01*
X67648043Y-35560000D01*
X67627887Y-35201093D01*
X67567673Y-34846700D01*
X67468159Y-34501276D01*
X67330594Y-34169167D01*
X67156711Y-33854548D01*
X67156710Y-33854547D01*
X67156707Y-33854541D01*
X66948695Y-33561377D01*
X66766318Y-33357298D01*
X66709161Y-33293339D01*
X66589393Y-33186308D01*
X66441122Y-33053804D01*
X66147958Y-32845792D01*
X65852865Y-32682701D01*
X65833333Y-32671906D01*
X65501224Y-32534341D01*
X65501223Y-32534340D01*
X65155799Y-32434826D01*
X64801408Y-32374613D01*
X64442500Y-32354457D01*
X64083591Y-32374613D01*
X63729200Y-32434826D01*
X63383775Y-32534341D01*
X63051668Y-32671905D01*
X62737041Y-32845792D01*
X62443877Y-33053804D01*
X62175839Y-33293339D01*
X61936304Y-33561377D01*
X61728292Y-33854541D01*
X61554405Y-34169168D01*
X61416841Y-34501275D01*
X61317326Y-34846700D01*
X61257113Y-35201091D01*
X61236957Y-35560000D01*
X61257113Y-35918908D01*
X61317326Y-36273299D01*
X61416841Y-36618724D01*
X61554405Y-36950831D01*
X61728292Y-37265457D01*
X61936304Y-37558622D01*
X62103136Y-37745306D01*
X62175839Y-37826661D01*
X62239489Y-37883542D01*
X62272954Y-37932429D01*
X62279918Y-37991265D01*
X62258789Y-38046616D01*
X62214392Y-38085846D01*
X62156861Y-38100000D01*
X51803752Y-38100000D01*
X51743517Y-38084387D01*
X51698451Y-38041480D01*
X51679901Y-37982084D01*
X51692539Y-37921157D01*
X51808092Y-37686840D01*
X51906080Y-37398175D01*
X51965552Y-37099190D01*
X51985490Y-36795000D01*
X51965552Y-36490810D01*
X51960198Y-36463895D01*
X51906080Y-36191824D01*
X51808093Y-35903162D01*
X51746706Y-35778682D01*
X51733930Y-35722099D01*
X51748287Y-35665899D01*
X51834898Y-35502025D01*
X51924026Y-35247310D01*
X51974196Y-34982157D01*
X51980500Y-34869905D01*
X51980499Y-33640096D01*
X51974196Y-33527843D01*
X51924026Y-33262690D01*
X51834898Y-33007975D01*
X51708802Y-32769390D01*
X51548555Y-32552263D01*
X51357737Y-32361445D01*
X51140610Y-32201198D01*
X51140608Y-32201197D01*
X51140607Y-32201196D01*
X50902031Y-32075105D01*
X50902030Y-32075104D01*
X50902025Y-32075102D01*
X50647310Y-31985974D01*
X50647309Y-31985973D01*
X50647304Y-31985972D01*
X50382159Y-31935804D01*
X50326031Y-31932652D01*
X50269905Y-31929500D01*
X50269903Y-31929500D01*
X48790096Y-31929500D01*
X48677840Y-31935804D01*
X48412695Y-31985972D01*
X48333058Y-32013838D01*
X48157975Y-32075102D01*
X48157971Y-32075103D01*
X48157968Y-32075105D01*
X47919392Y-32201196D01*
X47702261Y-32361446D01*
X47511446Y-32552261D01*
X47351196Y-32769392D01*
X47225105Y-33007968D01*
X47225103Y-33007971D01*
X47225102Y-33007975D01*
X47163838Y-33183058D01*
X47135972Y-33262695D01*
X47085804Y-33527840D01*
X47085804Y-33527843D01*
X47079500Y-33640095D01*
X47079500Y-33905016D01*
X47079501Y-34166000D01*
X47062888Y-34228000D01*
X47017501Y-34273387D01*
X46955501Y-34290000D01*
X45979551Y-34290000D01*
X45920701Y-34275145D01*
X45875951Y-34234139D01*
X45856023Y-34176807D01*
X45865691Y-34116889D01*
X45910198Y-34013711D01*
X46007100Y-33690035D01*
X46065771Y-33357298D01*
X46085416Y-33020000D01*
X46065771Y-32682702D01*
X46011446Y-32374613D01*
X46007101Y-32349970D01*
X46007100Y-32349965D01*
X45910198Y-32026289D01*
X45776375Y-31716052D01*
X45607440Y-31423448D01*
X45587880Y-31397175D01*
X92884500Y-31397175D01*
X92890804Y-31509431D01*
X92940972Y-31774576D01*
X92940973Y-31774581D01*
X92940974Y-31774582D01*
X93030102Y-32029297D01*
X93030104Y-32029302D01*
X93030105Y-32029303D01*
X93054310Y-32075102D01*
X93156198Y-32267882D01*
X93316445Y-32485009D01*
X93507263Y-32675827D01*
X93724390Y-32836074D01*
X93962975Y-32962170D01*
X94217690Y-33051298D01*
X94482843Y-33101468D01*
X94595095Y-33107772D01*
X97174904Y-33107771D01*
X97287157Y-33101468D01*
X97552310Y-33051298D01*
X97807025Y-32962170D01*
X98045610Y-32836074D01*
X98262737Y-32675827D01*
X98453555Y-32485009D01*
X98613802Y-32267882D01*
X98739898Y-32029297D01*
X98829026Y-31774582D01*
X98879196Y-31509429D01*
X98885500Y-31397177D01*
X98885499Y-28817368D01*
X98879196Y-28705115D01*
X98829026Y-28439962D01*
X98739898Y-28185247D01*
X98613802Y-27946662D01*
X98453555Y-27729535D01*
X98262737Y-27538717D01*
X98045610Y-27378470D01*
X98045608Y-27378469D01*
X98045607Y-27378468D01*
X97807031Y-27252377D01*
X97807030Y-27252376D01*
X97807025Y-27252374D01*
X97552310Y-27163246D01*
X97552309Y-27163245D01*
X97552304Y-27163244D01*
X97287159Y-27113076D01*
X97231030Y-27109923D01*
X97174905Y-27106772D01*
X97174903Y-27106772D01*
X94595096Y-27106772D01*
X94482840Y-27113076D01*
X94217695Y-27163244D01*
X94138058Y-27191110D01*
X93962975Y-27252374D01*
X93962971Y-27252375D01*
X93962968Y-27252377D01*
X93724392Y-27378468D01*
X93507261Y-27538718D01*
X93316446Y-27729533D01*
X93156196Y-27946664D01*
X93030105Y-28185240D01*
X93030103Y-28185243D01*
X93030102Y-28185247D01*
X92968838Y-28360330D01*
X92940972Y-28439967D01*
X92890804Y-28705112D01*
X92884500Y-28817368D01*
X92884500Y-31397175D01*
X45587880Y-31397175D01*
X45405678Y-31152435D01*
X45173817Y-30906677D01*
X45134288Y-30873508D01*
X44914997Y-30689500D01*
X44788187Y-30606096D01*
X44632708Y-30503836D01*
X44632704Y-30503834D01*
X44632701Y-30503832D01*
X44330778Y-30352200D01*
X44013286Y-30236643D01*
X44013285Y-30236642D01*
X44013283Y-30236642D01*
X43684520Y-30158724D01*
X43348935Y-30119500D01*
X43011065Y-30119500D01*
X42759376Y-30148917D01*
X42675479Y-30158724D01*
X42346713Y-30236643D01*
X42029221Y-30352200D01*
X41727298Y-30503832D01*
X41445002Y-30689500D01*
X41186182Y-30906677D01*
X40954323Y-31152433D01*
X40752559Y-31423448D01*
X40583626Y-31716049D01*
X40583625Y-31716052D01*
X40449802Y-32026289D01*
X40422913Y-32116105D01*
X40352898Y-32349970D01*
X40294229Y-32682701D01*
X40274583Y-33019999D01*
X40294229Y-33357298D01*
X40352898Y-33690029D01*
X40352900Y-33690035D01*
X40449802Y-34013711D01*
X40577254Y-34309178D01*
X40583626Y-34323950D01*
X40623387Y-34392817D01*
X40640000Y-34454817D01*
X40640000Y-41824500D01*
X40634144Y-41862156D01*
X40617129Y-41896256D01*
X40465790Y-42109546D01*
X40291905Y-42424168D01*
X40154341Y-42756275D01*
X40054826Y-43101700D01*
X39994613Y-43456091D01*
X39974457Y-43815000D01*
X39994613Y-44173908D01*
X40054826Y-44528299D01*
X40154341Y-44873724D01*
X40209401Y-45006651D01*
X40291906Y-45205833D01*
X40465789Y-45520452D01*
X40572022Y-45670173D01*
X40617129Y-45733744D01*
X40634144Y-45767844D01*
X40640000Y-45805500D01*
X40640000Y-55756000D01*
X40623387Y-55818000D01*
X40578000Y-55863387D01*
X40516000Y-55880000D01*
X22984000Y-55880000D01*
X22922000Y-55863387D01*
X22876613Y-55818000D01*
X22860000Y-55756000D01*
X22860000Y-45635672D01*
X24928252Y-45635672D01*
X24931160Y-45733744D01*
X24938243Y-45972668D01*
X24988020Y-46306112D01*
X25032813Y-46470036D01*
X25076886Y-46631326D01*
X25203592Y-46943752D01*
X25286305Y-47093784D01*
X25366359Y-47238993D01*
X25562904Y-47512913D01*
X25679771Y-47640662D01*
X25790466Y-47761665D01*
X26045852Y-47981756D01*
X26325476Y-48170097D01*
X26625410Y-48324043D01*
X26625413Y-48324044D01*
X26941453Y-48441436D01*
X27269159Y-48520625D01*
X27603931Y-48560500D01*
X29376704Y-48560500D01*
X29376707Y-48560500D01*
X29471332Y-48554884D01*
X29629046Y-48545525D01*
X29960868Y-48485888D01*
X30283307Y-48387425D01*
X30283307Y-48387424D01*
X30283310Y-48387424D01*
X30591838Y-48251517D01*
X30688600Y-48194368D01*
X30882128Y-48080071D01*
X31150103Y-47875496D01*
X31392002Y-47640662D01*
X31604429Y-47378866D01*
X31784401Y-47093784D01*
X31929392Y-46789416D01*
X32037368Y-46470036D01*
X32106811Y-46140128D01*
X32136747Y-45804322D01*
X32126757Y-45467332D01*
X32076980Y-45133888D01*
X31988114Y-44808673D01*
X31861409Y-44496251D01*
X31698641Y-44201007D01*
X31502096Y-43927087D01*
X31274534Y-43678335D01*
X31142448Y-43564504D01*
X31019147Y-43458243D01*
X30755610Y-43280737D01*
X30714564Y-43234513D01*
X30700936Y-43174216D01*
X30718113Y-43114833D01*
X30761820Y-43071124D01*
X30882128Y-43000071D01*
X31150103Y-42795496D01*
X31392002Y-42560662D01*
X31604429Y-42298866D01*
X31784401Y-42013784D01*
X31929392Y-41709416D01*
X32037368Y-41390036D01*
X32106811Y-41060128D01*
X32136747Y-40724322D01*
X32126757Y-40387332D01*
X32076980Y-40053888D01*
X31988114Y-39728673D01*
X31861409Y-39416251D01*
X31698641Y-39121007D01*
X31502096Y-38847087D01*
X31274534Y-38598335D01*
X31142448Y-38484504D01*
X31019147Y-38378243D01*
X30739523Y-38189902D01*
X30439589Y-38035956D01*
X30143601Y-37926013D01*
X30123547Y-37918564D01*
X29875015Y-37858507D01*
X29795842Y-37839375D01*
X29689050Y-37826655D01*
X29461069Y-37799500D01*
X27688296Y-37799500D01*
X27688293Y-37799500D01*
X27435958Y-37814474D01*
X27104131Y-37874112D01*
X26781689Y-37972575D01*
X26473161Y-38108482D01*
X26182873Y-38279928D01*
X25914896Y-38484503D01*
X25672999Y-38719336D01*
X25460570Y-38981134D01*
X25280599Y-39266215D01*
X25135605Y-39570588D01*
X25027633Y-39889960D01*
X24958188Y-40219873D01*
X24928252Y-40555672D01*
X24932991Y-40715525D01*
X24938243Y-40892668D01*
X24988020Y-41226112D01*
X25059111Y-41486276D01*
X25076886Y-41551326D01*
X25203592Y-41863752D01*
X25221512Y-41896256D01*
X25366359Y-42158993D01*
X25562904Y-42432913D01*
X25586514Y-42458721D01*
X25790466Y-42681665D01*
X26045852Y-42901756D01*
X26309389Y-43079262D01*
X26350434Y-43125486D01*
X26364063Y-43185782D01*
X26346887Y-43245165D01*
X26303176Y-43288877D01*
X26182870Y-43359930D01*
X25914896Y-43564503D01*
X25672999Y-43799336D01*
X25460570Y-44061134D01*
X25280599Y-44346215D01*
X25135605Y-44650588D01*
X25027633Y-44969960D01*
X24958188Y-45299873D01*
X24928252Y-45635672D01*
X22860000Y-45635672D01*
X22860000Y-33019999D01*
X32774583Y-33019999D01*
X32794229Y-33357298D01*
X32852898Y-33690029D01*
X32852900Y-33690035D01*
X32949802Y-34013711D01*
X33077254Y-34309178D01*
X33083626Y-34323950D01*
X33252559Y-34616551D01*
X33335495Y-34727953D01*
X33454322Y-34887565D01*
X33686183Y-35133323D01*
X33945006Y-35350502D01*
X34227292Y-35536164D01*
X34227298Y-35536167D01*
X34529221Y-35687799D01*
X34529224Y-35687800D01*
X34846717Y-35803358D01*
X35175480Y-35881276D01*
X35511065Y-35920500D01*
X35848932Y-35920500D01*
X35848935Y-35920500D01*
X36184520Y-35881276D01*
X36513283Y-35803358D01*
X36830776Y-35687800D01*
X37132708Y-35536164D01*
X37414994Y-35350502D01*
X37673817Y-35133323D01*
X37905678Y-34887565D01*
X38107440Y-34616552D01*
X38276375Y-34323948D01*
X38410198Y-34013711D01*
X38507100Y-33690035D01*
X38565771Y-33357298D01*
X38585416Y-33020000D01*
X38565771Y-32682702D01*
X38511446Y-32374613D01*
X38507101Y-32349970D01*
X38507100Y-32349965D01*
X38410198Y-32026289D01*
X38276375Y-31716052D01*
X38107440Y-31423448D01*
X37905678Y-31152435D01*
X37673817Y-30906677D01*
X37634288Y-30873508D01*
X37414997Y-30689500D01*
X37288187Y-30606096D01*
X37132708Y-30503836D01*
X37132704Y-30503834D01*
X37132701Y-30503832D01*
X36830778Y-30352200D01*
X36513286Y-30236643D01*
X36513285Y-30236642D01*
X36513283Y-30236642D01*
X36184520Y-30158724D01*
X35848935Y-30119500D01*
X35511065Y-30119500D01*
X35259376Y-30148917D01*
X35175479Y-30158724D01*
X34846713Y-30236643D01*
X34529221Y-30352200D01*
X34227298Y-30503832D01*
X33945002Y-30689500D01*
X33686182Y-30906677D01*
X33454323Y-31152433D01*
X33252559Y-31423448D01*
X33083626Y-31716049D01*
X33083625Y-31716052D01*
X32949802Y-32026289D01*
X32922913Y-32116105D01*
X32852898Y-32349970D01*
X32794229Y-32682701D01*
X32774583Y-33019999D01*
X22860000Y-33019999D01*
X22860000Y-29334000D01*
X22876613Y-29272000D01*
X22922000Y-29226613D01*
X22984000Y-29210000D01*
X30480000Y-29210000D01*
X30480000Y-26035000D01*
X39134356Y-26035000D01*
X39154891Y-26282816D01*
X39154891Y-26282819D01*
X39154892Y-26282821D01*
X39215937Y-26523881D01*
X39221971Y-26537637D01*
X39315825Y-26751604D01*
X39315827Y-26751607D01*
X39451836Y-26959785D01*
X39620256Y-27142738D01*
X39620259Y-27142740D01*
X39816485Y-27295470D01*
X39816487Y-27295471D01*
X39816491Y-27295474D01*
X40035190Y-27413828D01*
X40270386Y-27494571D01*
X40515665Y-27535500D01*
X40764335Y-27535500D01*
X41009614Y-27494571D01*
X41244810Y-27413828D01*
X41463509Y-27295474D01*
X41659744Y-27142738D01*
X41828164Y-26959785D01*
X41964173Y-26751607D01*
X42064063Y-26523881D01*
X42125108Y-26282821D01*
X42145643Y-26035000D01*
X49729731Y-26035000D01*
X49748777Y-26289154D01*
X49805492Y-26537637D01*
X49898608Y-26774891D01*
X50003178Y-26956012D01*
X50026041Y-26995612D01*
X50184950Y-27194877D01*
X50371783Y-27368232D01*
X50582366Y-27511805D01*
X50811996Y-27622389D01*
X51055542Y-27697513D01*
X51307565Y-27735500D01*
X51562435Y-27735500D01*
X51814458Y-27697513D01*
X52058004Y-27622389D01*
X52287634Y-27511805D01*
X52498217Y-27368232D01*
X52685050Y-27194877D01*
X52843959Y-26995612D01*
X52971393Y-26774888D01*
X53064508Y-26537637D01*
X53121222Y-26289157D01*
X53140268Y-26035000D01*
X53121222Y-25780843D01*
X53064508Y-25532363D01*
X52971393Y-25295112D01*
X52843959Y-25074388D01*
X52685050Y-24875123D01*
X52498217Y-24701768D01*
X52287634Y-24558195D01*
X52058004Y-24447611D01*
X51814458Y-24372487D01*
X51562435Y-24334500D01*
X51307565Y-24334500D01*
X51055542Y-24372487D01*
X50811996Y-24447611D01*
X50582366Y-24558195D01*
X50548354Y-24581384D01*
X50371781Y-24701769D01*
X50184950Y-24875123D01*
X50026038Y-25074392D01*
X49898608Y-25295108D01*
X49805492Y-25532362D01*
X49748777Y-25780845D01*
X49729731Y-26035000D01*
X42145643Y-26035000D01*
X42125108Y-25787179D01*
X42064063Y-25546119D01*
X41964173Y-25318393D01*
X41828164Y-25110215D01*
X41659744Y-24927262D01*
X41592756Y-24875123D01*
X41463514Y-24774529D01*
X41463510Y-24774526D01*
X41463509Y-24774526D01*
X41244810Y-24656172D01*
X41244806Y-24656170D01*
X41244805Y-24656170D01*
X41009615Y-24575429D01*
X40764335Y-24534500D01*
X40515665Y-24534500D01*
X40270384Y-24575429D01*
X40035194Y-24656170D01*
X39816485Y-24774529D01*
X39620259Y-24927259D01*
X39451837Y-25110214D01*
X39315825Y-25318395D01*
X39225780Y-25523678D01*
X39215937Y-25546119D01*
X39156497Y-25780843D01*
X39154891Y-25787183D01*
X39134356Y-26035000D01*
X30480000Y-26035000D01*
X30480000Y-22984000D01*
X30496613Y-22922000D01*
X30542000Y-22876613D01*
X30604000Y-22860000D01*
X152276000Y-22860000D01*
X152338000Y-22876613D01*
G37*
%TD.AperFunction*%
%TD*%
M02*
